# Blender 3.6.2
# www.blender.org
mtllib Dungeon_Blank_10x10x5_L.mtl
o Dungeon_Blank_10x10x5_L
v -0.011627 -1.999999 9.988373
v -0.011627 0.026535 9.988373
v -10.011629 0.026534 -0.011628
v -10.011627 -2.000000 -0.011628
v -0.011628 -1.999999 -0.011627
v -0.011628 0.026535 -0.011627
v -10.011629 0.026534 7.488373
v -10.011629 0.026534 4.988373
v -10.011629 0.026534 2.488373
v -10.011627 -2.000000 7.488373
v -10.011627 -2.000000 4.988373
v -10.011627 -2.000000 2.488373
v -0.011627 -1.999999 7.488372
v -0.011628 -1.999999 4.988372
v -0.011628 -1.999999 2.488372
v -0.011627 0.026535 7.488372
v -0.011628 0.026535 4.988372
v -0.011628 0.026535 2.488372
v -7.511627 -1.999999 9.988373
v -5.011627 -1.999999 9.988373
v -2.511627 -1.999999 9.988373
v -2.511628 0.026535 9.988373
v -5.011628 0.026535 9.988373
v -7.511628 0.026534 9.988373
v -7.511628 -1.999999 -0.011628
v -5.011628 -1.999999 -0.011628
v -2.511628 -1.999999 -0.011628
v -7.511629 0.026534 -0.011628
v -5.011629 0.026535 -0.011628
v -2.511629 0.026535 -0.011628
v -5.011629 4.026534 7.488373
v -2.511629 4.026535 7.488373
v -7.511628 0.026534 7.488373
v -10.011629 4.026534 4.988373
v -2.511629 4.026535 -0.011628
v -0.011629 4.026535 -0.011628
v -0.011629 4.026535 2.488372
v -10.011629 4.026534 -0.011628
v -10.011629 4.026534 2.488373
v -7.511627 -1.999999 7.488373
v -5.011628 -1.999999 7.488373
v -2.511627 -1.999999 7.488373
v -7.511627 -1.999999 4.988372
v -5.011628 -1.999999 4.988372
v -2.511628 -1.999999 4.988372
v -7.511627 -1.999999 2.488372
v -5.011628 -1.999999 2.488372
v -2.511628 -1.999999 2.488372
v -10.011629 2.026534 2.488373
v -10.011629 2.026534 -0.011628
v -0.011628 2.026535 2.488372
v -0.011628 2.026535 -0.011627
v -2.511629 2.026535 -0.011628
v -10.011629 2.026534 7.488373
v -10.011629 2.026534 4.988373
v -0.011627 2.026535 7.488372
v -0.011628 2.026535 4.988372
v -7.511628 2.026534 7.488373
v -7.511628 2.026534 4.988372
v -2.511629 6.026535 9.988373
v -7.511629 2.026534 -0.011628
v -5.011629 2.026535 -0.011628
v -5.011629 4.026534 9.988373
v -5.011629 2.026535 7.488373
v -5.011629 2.026535 9.988373
v -5.011629 2.026535 4.988372
v -0.011629 6.026535 -0.011628
v -2.511629 6.026535 -0.011628
v -0.011627 4.026535 9.988373
v -7.511628 4.026534 4.988372
v -7.511628 4.026534 2.488372
v -7.511629 4.026534 -0.011628
v -5.011629 4.026534 -0.011628
v -7.511628 2.026534 9.988373
v -5.011629 4.026534 4.988372
v -2.511629 4.026535 2.488372
v -5.011629 4.026534 2.488372
v -10.011629 6.026533 2.488373
v -10.011629 6.026533 -0.011628
v -7.511628 6.026533 2.488372
v -7.511629 6.026533 -0.011628
v -5.011629 6.026533 -0.011628
v -2.511629 6.026535 2.488372
v -5.011629 6.026533 2.488372
v -0.011629 6.026535 2.488372
v -0.011629 6.026535 4.988372
v -0.011627 6.026535 7.488372
v -2.511629 4.026535 9.988373
v -2.511629 2.026535 9.988373
v -0.011628 4.026535 4.988372
v -0.011627 6.026535 9.988373
v -2.511629 6.026535 4.988372
v -2.511629 6.026535 7.488373
v -0.011627 2.026535 9.988373
v -2.511629 4.026535 4.988372
v -0.011627 4.026535 7.488372
v -10.011627 -2.000000 9.988373
v -10.011628 0.026534 9.988373
vn -0.0000 -1.0000 -0.0000
vn -1.0000 -0.0000 -0.0000
vn 1.0000 -0.0000 -0.0000
vn -0.0000 -0.0000 -1.0000
vn -0.0000 -0.0000 1.0000
vn -0.0000 1.0000 -0.0000
vt 0.076035 0.937482
vt 0.093475 0.937482
vt 0.093475 0.935512
vt 0.076035 0.935512
vt 0.076035 0.963152
vt 0.093475 0.963152
vt 0.093475 0.915754
vt 0.076035 0.915754
vt 0.023713 0.963152
vt 0.041153 0.963152
vt 0.049873 0.915754
vt 0.049873 0.963152
vt 0.041153 0.963152
vt 0.041153 0.915754
vt 0.023713 0.915754
vt 0.041153 0.915754
vt 0.041153 0.963152
vt 0.023713 0.963152
vt 0.058594 0.915754
vt 0.058594 0.963152
vt 0.058593 0.963152
vt 0.023713 0.937482
vt 0.041153 0.937482
vt 0.041153 0.935512
vt 0.023713 0.935512
vt 0.058594 0.937482
vt 0.058594 0.935512
vt 0.058594 0.943394
vt 0.076035 0.943394
vt 0.076035 0.941424
vt 0.058594 0.941424
vt 0.076035 0.939453
vt 0.058594 0.939453
vt 0.041153 0.943394
vt 0.041153 0.941424
vt 0.041153 0.939453
vt 0.023713 0.941424
vt 0.023713 0.939453
vt 0.067314 0.963152
vt 0.076034 0.963152
vt 0.067314 0.915754
vt 0.067314 0.963152
vt 0.041153 0.939453
vt 0.041153 0.941423
vt 0.058594 0.937482
vt 0.076034 0.915754
vt 0.058593 0.915754
vt 0.023713 0.941423
vt 0.049873 0.963152
vt 0.058593 0.963152
vt 0.093475 0.943394
vt 0.093475 0.941424
vt 0.093475 0.939453
vt 0.058594 0.941423
vt 0.076035 0.941423
vt 0.076035 0.937482
s 0
usemtl M_General.003
f 48/1/1 27/2/1 5/3/1 15/4/1
f 9/5/2 3/6/2 4/7/2 12/8/2
f 94/9/3 56/10/3 96/10/3 69/9/3
f 27/11/4 30/12/4 6/13/4 5/14/4
f 15/8/3 5/7/3 6/6/3 18/5/3
f 1/15/3 13/16/3 16/17/3 2/18/3
f 13/16/3 14/19/3 17/20/3 16/17/3
f 14/19/3 15/8/3 18/5/3 17/20/3
f 2/18/3 16/17/3 56/10/3 94/9/3
f 3/6/2 9/5/2 49/5/2 50/6/2
f 30/12/4 29/21/4 62/21/4 53/12/4
f 7/17/2 8/20/2 11/19/2 10/16/2
f 8/20/2 9/5/2 12/8/2 11/19/2
f 21/22/1 42/23/1 13/24/1 1/25/1
f 42/23/1 45/26/1 14/27/1 13/24/1
f 45/26/1 48/1/1 15/4/1 14/27/1
f 11/28/1 12/29/1 46/30/1 43/31/1
f 43/31/1 46/30/1 47/32/1 44/33/1
f 44/33/1 47/32/1 48/1/1 45/26/1
f 10/34/1 11/28/1 43/31/1 40/35/1
f 40/35/1 43/31/1 44/33/1 41/36/1
f 41/36/1 44/33/1 45/26/1 42/23/1
f 10/34/1 40/35/1 19/35/1 97/34/1
f 19/37/1 40/35/1 41/36/1 20/38/1
f 20/38/1 41/36/1 42/23/1 21/22/1
f 29/21/4 28/39/4 61/39/4 62/21/4
f 6/13/4 30/12/4 53/12/4 52/13/4
f 17/20/3 18/5/3 51/5/3 57/20/3
f 28/39/4 3/40/4 50/40/4 61/39/4
f 18/5/3 6/6/3 52/6/3 51/5/3
f 16/17/3 17/20/3 57/20/3 56/17/3
f 19/41/5 24/42/5 98/42/5 97/41/5
f 64/43/6 58/44/6 74/44/6 65/43/6
f 95/45/6 75/33/6 31/33/6 32/45/6
f 4/46/4 3/40/4 28/39/4 25/41/4
f 25/41/4 28/39/4 29/21/4 26/47/4
f 26/47/4 29/21/4 30/12/4 27/11/4
f 9/5/2 8/20/2 55/20/2 49/5/2
f 8/20/2 7/17/2 54/17/2 55/20/2
f 24/48/2 74/44/2 58/44/2 33/44/2
f 1/14/5 2/13/5 22/49/5 21/11/5
f 21/11/5 22/49/5 23/50/5 20/47/5
f 20/47/5 23/50/5 24/42/5 19/41/5
f 12/29/1 4/51/1 25/52/1 46/30/1
f 46/30/1 25/52/1 26/53/1 47/32/1
f 47/32/1 26/53/1 27/2/1 48/1/1
f 49/5/2 55/20/2 34/20/2 39/5/2
f 69/9/3 96/10/3 87/17/3 91/18/3
f 50/6/2 49/5/2 39/5/2 38/6/2
f 89/43/5 88/45/5 63/33/5 65/43/5
f 61/39/4 50/40/4 38/40/4 72/39/4
f 57/20/3 51/5/3 37/5/3 90/20/3
f 54/34/6 58/44/6 59/54/6 55/28/6
f 58/44/6 64/43/6 66/33/6 59/54/6
f 64/43/2 31/33/2 75/33/2 66/33/2
f 56/17/3 57/20/3 90/20/3 96/17/3
f 52/13/4 53/12/4 35/12/4 36/13/4
f 53/12/4 62/21/4 73/21/4 35/12/4
f 24/48/5 23/50/5 65/43/5 74/44/5
f 7/34/5 33/44/5 58/44/5 54/34/5
f 35/12/4 73/21/4 82/21/4 68/12/4
f 96/17/3 90/20/3 86/20/3 87/17/3
f 34/28/6 70/54/6 71/55/6 39/29/6
f 70/54/6 75/33/6 77/32/6 71/55/6
f 75/33/6 95/45/6 76/56/6 77/32/6
f 38/6/2 39/5/2 78/5/2 79/6/2
f 71/55/5 77/32/5 84/32/5 80/55/5
f 73/21/4 72/39/4 81/39/4 82/21/4
f 62/21/4 61/39/4 72/39/4 73/21/4
f 59/54/5 66/33/5 75/33/5 70/54/5
f 51/5/3 52/6/3 36/6/3 37/5/3
f 55/28/5 59/54/5 70/54/5 34/28/5
f 83/56/6 85/4/6 67/3/6 68/2/6
f 78/29/6 80/55/6 81/52/6 79/51/6
f 80/55/6 84/32/6 82/53/6 81/52/6
f 84/32/6 83/56/6 68/2/6 82/53/6
f 36/13/4 35/12/4 68/12/4 67/13/4
f 39/29/5 71/55/5 80/55/5 78/29/5
f 90/20/3 37/5/3 85/5/3 86/20/3
f 72/39/4 38/40/4 79/40/4 81/39/4
f 37/5/3 36/6/3 67/6/3 85/5/3
f 77/32/5 76/56/5 83/56/5 84/32/5
f 83/56/2 76/56/2 95/56/2 92/56/2
f 64/43/2 65/43/2 63/33/2 31/33/2
f 22/49/5 89/43/5 65/43/5 23/50/5
f 2/18/5 94/9/5 89/43/5 22/49/5
f 89/43/5 94/9/5 69/9/5 88/43/5
f 88/43/5 69/9/5 91/9/5 60/43/5
f 32/45/6 31/33/6 63/33/6 88/45/6
f 32/45/2 88/43/2 60/43/2 93/45/2
f 95/45/2 32/45/2 93/45/2 92/45/2
f 85/4/6 83/56/6 92/56/6 86/20/6
f 93/45/6 87/17/6 86/20/6 92/45/6
f 93/45/6 60/43/6 91/18/6 87/17/6
f 10/16/2 97/41/2 98/42/2 7/17/2
f 7/17/6 98/42/6 24/42/6 33/44/6
