# Blender 3.6.2
# www.blender.org
mtllib Dungeon_Blank_10x10x5.mtl
o Dungeon_Blank_10x10x5
v -10.011629 0.026534 -0.011628
v -10.011627 -2.000000 -0.011628
v -0.011628 -1.999999 -0.011627
v -0.011628 0.026535 -0.011627
v -10.011629 0.026534 7.488373
v -10.011629 0.026534 4.988373
v -10.011629 0.026534 2.488373
v -10.011627 -2.000000 7.488373
v -10.011627 -2.000000 4.988373
v -10.011627 -2.000000 2.488373
v -0.011627 -1.999999 7.488372
v -0.011628 -1.999999 4.988372
v -0.011628 -1.999999 2.488372
v -0.011627 0.026535 7.488372
v -0.011628 0.026535 4.988372
v -0.011628 0.026535 2.488372
v -7.511628 -1.973466 7.488373
v -5.011629 -1.973465 7.488373
v -2.511628 -1.973465 7.488373
v -0.011627 -1.973465 7.488372
v -10.011629 -1.973466 7.488373
v -7.511628 -1.999999 -0.011628
v -5.011628 -1.999999 -0.011628
v -2.511628 -1.999999 -0.011628
v -7.511629 0.026534 -0.011628
v -5.011629 0.026535 -0.011628
v -2.511629 0.026535 -0.011628
v -2.511628 0.026535 7.488373
v -5.011629 0.026535 7.488373
v -7.511628 0.026534 7.488373
v -10.011629 4.026534 4.988373
v -2.511629 4.026535 -0.011628
v -0.011629 4.026535 -0.011628
v -0.011629 4.026535 2.488372
v -10.011629 4.026534 -0.011628
v -10.011629 4.026534 2.488373
v -7.511627 -1.999999 7.488373
v -5.011628 -1.999999 7.488373
v -2.511627 -1.999999 7.488373
v -7.511627 -1.999999 4.988372
v -5.011628 -1.999999 4.988372
v -2.511628 -1.999999 4.988372
v -7.511627 -1.999999 2.488372
v -5.011628 -1.999999 2.488372
v -2.511628 -1.999999 2.488372
v -10.011629 2.026534 2.488373
v -10.011629 2.026534 -0.011628
v -0.011628 2.026535 2.488372
v -0.011628 2.026535 -0.011627
v -2.511629 2.026535 -0.011628
v -10.011629 2.026534 7.488373
v -10.011629 2.026534 4.988373
v -0.011627 2.026535 7.488372
v -0.011628 2.026535 4.988372
v -7.511628 2.026534 7.488373
v -7.511628 2.026534 4.988372
v -0.011629 6.026535 2.488372
v -7.511629 2.026534 -0.011628
v -5.011629 2.026535 -0.011628
v -2.511628 2.026535 7.488373
v -5.011629 2.026535 7.488373
v -2.511629 2.026535 4.988372
v -5.011629 2.026535 4.988372
v -0.011629 6.026535 -0.011628
v -2.511629 6.026535 -0.011628
v -0.011629 4.026535 4.988372
v -7.511628 4.026534 4.988372
v -7.511628 4.026534 2.488372
v -7.511629 4.026534 -0.011628
v -5.011629 4.026534 -0.011628
v -2.511629 4.026535 4.988372
v -5.011629 4.026534 4.988372
v -2.511629 4.026535 2.488372
v -5.011629 4.026534 2.488372
v -10.011629 6.026533 2.488373
v -10.011629 6.026533 -0.011628
v -7.511628 6.026533 2.488372
v -7.511629 6.026533 -0.011628
v -5.011629 6.026533 -0.011628
v -2.511629 6.026535 2.488372
v -5.011629 6.026533 2.488372
v -9.000000 0.000000 7.615412
v -9.000000 2.026534 7.615412
v -8.863395 0.000000 7.628866
v -8.863395 2.026534 7.628866
v -8.732039 0.000000 7.668713
v -8.732039 2.026534 7.668713
v -8.610981 0.000000 7.733419
v -8.610981 2.026534 7.733419
v -8.504873 0.000000 7.820500
v -8.504873 2.026534 7.820500
v -8.417792 0.000000 7.926609
v -8.417792 2.026534 7.926609
v -8.353086 0.000000 8.047667
v -8.353086 2.026534 8.047667
v -8.313239 0.000000 8.179022
v -8.313239 2.026534 8.179022
v -8.299785 0.000000 8.315627
v -8.299785 2.026534 8.315627
v -8.313239 0.000000 8.452232
v -8.313239 2.026534 8.452232
v -8.353086 0.000000 8.583588
v -8.353086 2.026534 8.583588
v -8.417792 0.000000 8.704646
v -8.417792 2.026534 8.704646
v -8.504873 0.000000 8.810754
v -8.504873 2.026534 8.810754
v -8.610981 0.000000 8.897835
v -8.610981 2.026534 8.897835
v -8.732039 0.000000 8.962542
v -8.732039 2.026534 8.962542
v -8.863395 0.000000 9.002388
v -8.863395 2.026534 9.002388
v -9.000000 0.000000 9.015842
v -9.000000 2.026534 9.015842
v -9.136605 0.000000 9.002388
v -9.136605 2.026534 9.002388
v -9.267961 0.000000 8.962542
v -9.267961 2.026534 8.962542
v -9.389019 0.000000 8.897835
v -9.389019 2.026534 8.897835
v -9.495127 0.000000 8.810754
v -9.495127 2.026534 8.810754
v -9.582208 0.000000 8.704646
v -9.582208 2.026534 8.704646
v -9.646914 0.000000 8.583588
v -9.646914 2.026534 8.583588
v -9.686761 0.000000 8.452232
v -9.686761 2.026534 8.452232
v -9.700215 0.000000 8.315627
v -9.700215 2.026534 8.315627
v -9.686761 0.000000 8.179022
v -9.686761 2.026534 8.179022
v -9.646914 0.000000 8.047667
v -9.646914 2.026534 8.047667
v -9.582208 0.000000 7.926609
v -9.582208 2.026534 7.926609
v -9.495127 0.000000 7.820500
v -9.495127 2.026534 7.820500
v -9.389019 0.000000 7.733419
v -9.389019 2.026534 7.733419
v -9.267961 0.000000 7.668713
v -9.267961 2.026534 7.668713
v -9.136605 0.000000 7.628866
v -9.136605 2.026534 7.628866
v -9.000000 0.000000 8.315627
v -9.000000 2.026534 8.315627
v -3.932884 0.000000 7.615412
v -3.932884 2.026534 7.615412
v -3.796278 0.000000 7.628866
v -3.796278 2.026534 7.628866
v -3.664923 0.000000 7.668713
v -3.664923 2.026534 7.668713
v -3.543865 0.000000 7.733419
v -3.543865 2.026534 7.733419
v -3.437757 0.000000 7.820500
v -3.437757 2.026534 7.820500
v -3.350676 0.000000 7.926609
v -3.350676 2.026534 7.926609
v -3.285969 0.000000 8.047667
v -3.285969 2.026534 8.047667
v -3.246123 0.000000 8.179022
v -3.246123 2.026534 8.179022
v -3.232668 0.000000 8.315627
v -3.232668 2.026534 8.315627
v -3.246123 0.000000 8.452232
v -3.246123 2.026534 8.452232
v -3.285969 0.000000 8.583588
v -3.285969 2.026534 8.583588
v -3.350676 0.000000 8.704646
v -3.350676 2.026534 8.704646
v -3.437757 0.000000 8.810754
v -3.437757 2.026534 8.810754
v -3.543865 0.000000 8.897835
v -3.543865 2.026534 8.897835
v -3.664923 0.000000 8.962542
v -3.664923 2.026534 8.962542
v -3.796278 0.000000 9.002388
v -3.796278 2.026534 9.002388
v -3.932884 0.000000 9.015842
v -3.932884 2.026534 9.015842
v -4.069489 0.000000 9.002388
v -4.069489 2.026534 9.002388
v -4.200845 0.000000 8.962542
v -4.200845 2.026534 8.962542
v -4.321902 0.000000 8.897835
v -4.321902 2.026534 8.897835
v -4.428010 0.000000 8.810754
v -4.428010 2.026534 8.810754
v -4.515091 0.000000 8.704646
v -4.515091 2.026534 8.704646
v -4.579798 0.000000 8.583588
v -4.579798 2.026534 8.583588
v -4.619645 0.000000 8.452232
v -4.619645 2.026534 8.452232
v -4.633099 0.000000 8.315627
v -4.633099 2.026534 8.315627
v -4.619645 0.000000 8.179022
v -4.619645 2.026534 8.179022
v -4.579798 0.000000 8.047667
v -4.579798 2.026534 8.047667
v -4.515091 0.000000 7.926609
v -4.515091 2.026534 7.926609
v -4.428010 0.000000 7.820500
v -4.428010 2.026534 7.820500
v -4.321902 0.000000 7.733419
v -4.321902 2.026534 7.733419
v -4.200845 0.000000 7.668713
v -4.200845 2.026534 7.668713
v -4.069489 0.000000 7.628866
v -4.069489 2.026534 7.628866
v -3.932884 0.000000 8.315627
v -3.932884 2.026534 8.315627
v -5.010216 0.000000 7.565118
v -5.010216 2.026535 7.565118
v -4.953236 0.000000 7.570730
v -4.953236 2.026535 7.570730
v -4.898445 0.000000 7.587350
v -4.898445 2.026535 7.587350
v -4.847950 0.000000 7.614341
v -4.847950 2.026535 7.614341
v -4.803690 0.000000 7.650663
v -4.803690 2.026535 7.650663
v -4.767367 0.000000 7.694923
v -4.767367 2.026535 7.694923
v -4.740377 0.000000 7.745418
v -4.740377 2.026535 7.745418
v -4.723756 0.000000 7.800209
v -4.723756 2.026535 7.800209
v -4.718144 0.000000 7.857189
v -4.718144 2.026535 7.857189
v -4.723756 0.000000 7.914169
v -4.723756 2.026535 7.914169
v -4.740377 0.000000 7.968960
v -4.740377 2.026535 7.968960
v -4.767367 0.000000 8.019456
v -4.767367 2.026535 8.019456
v -4.803690 0.000000 8.063715
v -4.803690 2.026535 8.063715
v -4.847950 0.000000 8.100038
v -4.847950 2.026535 8.100038
v -4.898445 0.000000 8.127028
v -4.898445 2.026535 8.127028
v -4.953236 0.000000 8.143649
v -4.953236 2.026535 8.143649
v -5.010216 0.000000 8.149261
v -5.010216 2.026535 8.149261
v -5.067196 0.000000 8.143649
v -5.067196 2.026535 8.143649
v -5.121987 0.000000 8.127028
v -5.121987 2.026535 8.127028
v -5.172482 0.000000 8.100038
v -5.172482 2.026535 8.100038
v -5.216742 0.000000 8.063715
v -5.216742 2.026535 8.063715
v -5.253064 0.000000 8.019456
v -5.253064 2.026535 8.019456
v -5.280055 0.000000 7.968960
v -5.280055 2.026535 7.968960
v -5.296675 0.000000 7.914169
v -5.296675 2.026535 7.914169
v -5.302287 0.000000 7.857189
v -5.302287 2.026535 7.857189
v -5.296675 0.000000 7.800209
v -5.296675 2.026535 7.800209
v -5.280055 0.000000 7.745418
v -5.280055 2.026535 7.745418
v -5.253064 0.000000 7.694923
v -5.253064 2.026535 7.694923
v -5.216742 0.000000 7.650663
v -5.216742 2.026535 7.650663
v -5.172482 0.000000 7.614341
v -5.172482 2.026535 7.614341
v -5.121987 0.000000 7.587350
v -5.121987 2.026535 7.587350
v -5.067196 0.000000 7.570730
v -5.067196 2.026535 7.570730
v -5.010216 0.000000 7.857189
v -5.010216 2.026535 7.857189
v -7.511628 0.026534 10.000000
v -10.011629 0.026534 10.000000
v -10.011629 -1.973466 10.000000
v -2.511628 0.026535 10.000000
v -2.511628 -1.973465 10.000000
v -0.011627 -1.973465 9.999999
v -0.011627 0.026535 9.999999
v -7.511628 -1.973466 10.000000
v -5.011629 -1.973465 10.000000
v -5.011629 0.026535 10.000000
vn -0.0000 -1.0000 -0.0000
vn -0.0000 1.0000 -0.0000
vn -1.0000 -0.0000 -0.0000
vn -0.0000 -0.0000 1.0000
vn -0.0000 -0.0000 -1.0000
vn 1.0000 -0.0000 -0.0000
vn 0.1951 -0.0000 -0.9808
vn 0.3827 -0.0000 -0.9239
vn 0.5556 -0.0000 -0.8315
vn 0.7071 -0.0000 -0.7071
vn 0.8315 -0.0000 -0.5556
vn 0.9239 -0.0000 -0.3827
vn 0.9808 -0.0000 -0.1951
vn 0.9808 -0.0000 0.1951
vn 0.9239 -0.0000 0.3827
vn 0.8315 -0.0000 0.5556
vn 0.7071 -0.0000 0.7071
vn 0.5556 -0.0000 0.8315
vn 0.3827 -0.0000 0.9239
vn 0.1951 -0.0000 0.9808
vn -0.1951 -0.0000 0.9808
vn -0.3827 -0.0000 0.9239
vn -0.5556 -0.0000 0.8315
vn -0.7071 -0.0000 0.7071
vn -0.8315 -0.0000 0.5556
vn -0.9239 -0.0000 0.3827
vn -0.9808 -0.0000 0.1951
vn -0.9808 -0.0000 -0.1951
vn -0.9239 -0.0000 -0.3827
vn -0.8315 -0.0000 -0.5556
vn -0.7071 -0.0000 -0.7071
vn -0.5556 -0.0000 -0.8315
vn -0.3827 -0.0000 -0.9239
vn -0.1951 -0.0000 -0.9808
vt 0.076035 0.937482
vt 0.093475 0.937482
vt 0.093475 0.935512
vt 0.076035 0.935512
vt 0.185685 0.935512
vt 0.185685 0.937482
vt 0.076035 0.963152
vt 0.093475 0.963152
vt 0.093475 0.915754
vt 0.076035 0.915754
vt 0.041153 0.937482
vt 0.041153 0.935512
vt 0.049873 0.915754
vt 0.049873 0.963152
vt 0.041153 0.963152
vt 0.041153 0.915754
vt 0.041153 0.915754
vt 0.058594 0.915754
vt 0.058594 0.963152
vt 0.041153 0.963152
vt 0.058593 0.963152
vt 0.058594 0.937482
vt 0.058594 0.935512
vt 0.058594 0.943394
vt 0.076035 0.943394
vt 0.076035 0.941424
vt 0.058594 0.941424
vt 0.076035 0.939453
vt 0.058594 0.939453
vt 0.041153 0.943394
vt 0.041153 0.941424
vt 0.041153 0.939453
vt 0.067314 0.963152
vt 0.076034 0.963152
vt 0.076034 0.915754
vt 0.067314 0.915754
vt 0.058593 0.915754
vt 0.041153 0.941423
vt 0.041153 0.939453
vt 0.000000 0.000000
vt 0.185685 0.941423
vt 0.185685 0.943394
vt 0.093475 0.943394
vt 0.093475 0.941424
vt 0.093475 0.939453
vt 0.058594 0.937482
vt 0.058594 0.941423
vt 0.076035 0.937482
vt 0.076035 0.941423
vt 0.480107 0.918066
vt 0.480107 0.957081
vt 0.477669 0.957081
vt 0.477669 0.918066
vt 0.475230 0.957081
vt 0.475230 0.918066
vt 0.472792 0.957081
vt 0.472792 0.918066
vt 0.470354 0.957081
vt 0.470354 0.918066
vt 0.467915 0.957081
vt 0.467915 0.918066
vt 0.465477 0.957081
vt 0.465477 0.918066
vt 0.463038 0.957081
vt 0.463038 0.918066
vt 0.460600 0.957081
vt 0.460600 0.918066
vt 0.458161 0.957081
vt 0.458161 0.918066
vt 0.455723 0.957081
vt 0.455723 0.918066
vt 0.453285 0.957081
vt 0.453285 0.918066
vt 0.450846 0.957081
vt 0.450846 0.918066
vt 0.448408 0.957081
vt 0.448408 0.918066
vt 0.445969 0.957081
vt 0.445969 0.918066
vt 0.443531 0.957081
vt 0.443531 0.918066
vt 0.441093 0.957081
vt 0.441093 0.918066
vt 0.438654 0.957081
vt 0.438654 0.918066
vt 0.436216 0.957081
vt 0.436216 0.918066
vt 0.433777 0.957081
vt 0.433777 0.918066
vt 0.431339 0.957081
vt 0.431339 0.918066
vt 0.428900 0.957081
vt 0.428900 0.918066
vt 0.426462 0.957081
vt 0.426462 0.918066
vt 0.424024 0.957081
vt 0.424024 0.918066
vt 0.421585 0.957081
vt 0.421585 0.918066
vt 0.419147 0.957081
vt 0.419147 0.918066
vt 0.416708 0.957081
vt 0.416708 0.918066
vt 0.414270 0.957081
vt 0.414270 0.918066
vt 0.411832 0.957081
vt 0.411832 0.918066
vt 0.409393 0.957081
vt 0.409393 0.918066
vt 0.406955 0.957081
vt 0.406955 0.918066
vt 0.030537 0.948859
vt 0.029536 0.950731
vt 0.020532 0.944715
vt 0.404516 0.957081
vt 0.404516 0.918066
vt 0.402078 0.957081
vt 0.402078 0.918066
vt 0.022645 0.955336
vt 0.024676 0.954720
vt 0.030537 0.940571
vt 0.029536 0.938699
vt 0.014516 0.935712
vt 0.012875 0.937058
vt 0.012875 0.952372
vt 0.014516 0.953719
vt 0.031153 0.946828
vt 0.022645 0.934095
vt 0.020532 0.933887
vt 0.009704 0.944715
vt 0.009912 0.946828
vt 0.026548 0.953719
vt 0.028189 0.937058
vt 0.011529 0.938699
vt 0.016388 0.954720
vt 0.031361 0.944715
vt 0.018420 0.934095
vt 0.010528 0.948859
vt 0.028189 0.952372
vt 0.026548 0.935712
vt 0.010528 0.940571
vt 0.018420 0.955336
vt 0.031153 0.942603
vt 0.016388 0.934711
vt 0.011529 0.950731
vt 0.024676 0.934711
vt 0.009912 0.942603
vt 0.020532 0.955544
vt 0.108898 0.948859
vt 0.107897 0.950731
vt 0.098893 0.944715
vt 0.101006 0.955336
vt 0.103037 0.954720
vt 0.108898 0.940571
vt 0.107897 0.938699
vt 0.092877 0.935712
vt 0.091236 0.937058
vt 0.091236 0.952372
vt 0.092877 0.953719
vt 0.109514 0.946828
vt 0.101006 0.934095
vt 0.098893 0.933887
vt 0.088065 0.944715
vt 0.088273 0.946828
vt 0.104909 0.953719
vt 0.106550 0.937058
vt 0.089890 0.938699
vt 0.094749 0.954720
vt 0.109722 0.944715
vt 0.096781 0.934095
vt 0.088889 0.948859
vt 0.106550 0.952372
vt 0.104909 0.935712
vt 0.088889 0.940571
vt 0.096781 0.955336
vt 0.109514 0.942603
vt 0.094749 0.934711
vt 0.089890 0.950731
vt 0.103037 0.934711
vt 0.088273 0.942603
vt 0.098893 0.955544
vt 0.086406 0.953533
vt 0.085988 0.954314
vt 0.082233 0.951805
vt 0.083114 0.956235
vt 0.083961 0.955978
vt 0.086406 0.950076
vt 0.085988 0.949295
vt 0.079723 0.948049
vt 0.079039 0.948611
vt 0.079039 0.954999
vt 0.079723 0.955560
vt 0.086663 0.952686
vt 0.083114 0.947375
vt 0.082233 0.947288
vt 0.077716 0.951805
vt 0.077803 0.952686
vt 0.084742 0.955560
vt 0.085427 0.948611
vt 0.078477 0.949295
vt 0.080504 0.955978
vt 0.086750 0.951805
vt 0.081352 0.947375
vt 0.078060 0.953533
vt 0.085427 0.954999
vt 0.084742 0.948049
vt 0.078060 0.950076
vt 0.081352 0.956235
vt 0.086663 0.950924
vt 0.080504 0.947632
vt 0.078477 0.954314
vt 0.083961 0.947632
vt 0.077803 0.950924
vt 0.082233 0.956322
vt 0.106031 0.904150
vt 0.106031 0.964507
vt 0.030234 0.964507
vt 0.030234 0.904150
vt 0.185685 0.939453
vt 0.106031 0.964507
vt 0.030234 0.904150
vt 0.030234 0.964507
s 0
usemtl M_General
f 45/1/1 24/2/1 3/3/1 13/4/1
f 14/5/2 28/6/2 283/6/2 286/5/2
f 7/7/3 1/8/3 2/9/3 10/10/3
f 28/11/4 14/12/4 53/12/4 60/11/4
f 24/13/5 27/14/5 4/15/5 3/16/5
f 13/10/6 3/9/6 4/8/6 16/7/6
f 11/17/6 12/18/6 15/19/6 14/20/6
f 12/18/6 13/10/6 16/7/6 15/19/6
f 1/8/3 7/7/3 46/7/3 47/8/3
f 27/14/5 26/21/5 59/21/5 50/14/5
f 5/20/3 6/19/3 9/18/3 8/17/3
f 6/19/3 7/7/3 10/10/3 9/18/3
f 39/11/1 42/22/1 12/23/1 11/12/1
f 42/22/1 45/1/1 13/4/1 12/23/1
f 9/24/1 10/25/1 43/26/1 40/27/1
f 40/27/1 43/26/1 44/28/1 41/29/1
f 41/29/1 44/28/1 45/1/1 42/22/1
f 8/30/1 9/24/1 40/27/1 37/31/1
f 37/31/1 40/27/1 41/29/1 38/32/1
f 38/32/1 41/29/1 42/22/1 39/11/1
f 26/21/5 25/33/5 58/33/5 59/21/5
f 4/15/5 27/14/5 50/14/5 49/15/5
f 15/19/6 16/7/6 48/7/6 54/19/6
f 25/33/5 1/34/5 47/34/5 58/33/5
f 16/7/6 4/8/6 49/8/6 48/7/6
f 14/20/6 15/19/6 54/19/6 53/20/6
f 2/35/5 1/34/5 25/33/5 22/36/5
f 22/36/5 25/33/5 26/21/5 23/37/5
f 23/37/5 26/21/5 27/14/5 24/13/5
f 7/7/3 6/19/3 52/19/3 46/7/3
f 6/19/3 5/20/3 51/20/3 52/19/3
f 30/38/4 29/39/4 61/39/4 55/38/4
f 17/40/1 18/40/1 288/40/1 287/40/1
f 19/40/1 20/40/1 285/40/1 284/40/1
f 30/41/2 5/42/2 281/42/2 280/41/2
f 10/25/1 2/43/1 22/44/1 43/26/1
f 43/26/1 22/44/1 23/45/1 44/28/1
f 44/28/1 23/45/1 24/2/1 45/1/1
f 46/7/3 52/19/3 31/19/3 36/7/3
f 60/11/2 53/12/2 54/23/2 62/46/2
f 47/8/3 46/7/3 36/7/3 35/8/3
f 63/29/4 62/46/4 71/46/4 72/29/4
f 58/33/5 47/34/5 35/34/5 69/33/5
f 54/19/6 48/7/6 34/7/6 66/19/6
f 51/30/2 55/38/2 56/47/2 52/24/2
f 55/38/2 61/39/2 63/29/2 56/47/2
f 61/39/2 60/11/2 62/46/2 63/29/2
f 62/46/4 54/23/4 66/23/4 71/46/4
f 49/15/5 50/14/5 32/14/5 33/15/5
f 50/14/5 59/21/5 70/21/5 32/14/5
f 29/39/4 28/11/4 60/11/4 61/39/4
f 5/30/4 30/38/4 55/38/4 51/30/4
f 32/14/5 70/21/5 79/21/5 65/14/5
f 71/46/2 66/23/2 34/4/2 73/48/2
f 31/24/2 67/47/2 68/49/2 36/25/2
f 67/47/2 72/29/2 74/28/2 68/49/2
f 72/29/2 71/46/2 73/48/2 74/28/2
f 35/8/3 36/7/3 75/7/3 76/8/3
f 68/49/4 74/28/4 81/28/4 77/49/4
f 70/21/5 69/33/5 78/33/5 79/21/5
f 59/21/5 58/33/5 69/33/5 70/21/5
f 56/47/4 63/29/4 72/29/4 67/47/4
f 48/7/6 49/8/6 33/8/6 34/7/6
f 52/24/4 56/47/4 67/47/4 31/24/4
f 80/48/2 57/4/2 64/3/2 65/2/2
f 75/25/2 77/49/2 78/44/2 76/43/2
f 77/49/2 81/28/2 79/45/2 78/44/2
f 81/28/2 80/48/2 65/2/2 79/45/2
f 33/15/5 32/14/5 65/14/5 64/15/5
f 36/25/4 68/49/4 77/49/4 75/25/4
f 73/48/4 34/4/4 57/4/4 80/48/4
f 69/33/5 35/34/5 76/34/5 78/33/5
f 34/7/6 33/8/6 64/8/6 57/7/6
f 74/28/4 73/48/4 80/48/4 81/28/4
s 1
f 82/50/5 83/51/5 85/52/7 84/53/7
f 84/53/7 85/52/7 87/54/8 86/55/8
f 86/55/8 87/54/8 89/56/9 88/57/9
f 88/57/9 89/56/9 91/58/10 90/59/10
f 90/59/10 91/58/10 93/60/11 92/61/11
f 92/61/11 93/60/11 95/62/12 94/63/12
f 94/63/12 95/62/12 97/64/13 96/65/13
f 96/65/13 97/64/13 99/66/6 98/67/6
f 98/67/6 99/66/6 101/68/14 100/69/14
f 100/69/14 101/68/14 103/70/15 102/71/15
f 102/71/15 103/70/15 105/72/16 104/73/16
f 104/73/16 105/72/16 107/74/17 106/75/17
f 106/75/17 107/74/17 109/76/18 108/77/18
f 108/77/18 109/76/18 111/78/19 110/79/19
f 110/79/19 111/78/19 113/80/20 112/81/20
f 112/81/20 113/80/20 115/82/4 114/83/4
f 114/83/4 115/82/4 117/84/21 116/85/21
f 116/85/21 117/84/21 119/86/22 118/87/22
f 118/87/22 119/86/22 121/88/23 120/89/23
f 120/89/23 121/88/23 123/90/24 122/91/24
f 122/91/24 123/90/24 125/92/25 124/93/25
f 124/93/25 125/92/25 127/94/26 126/95/26
f 126/95/26 127/94/26 129/96/27 128/97/27
f 128/97/27 129/96/27 131/98/3 130/99/3
f 130/99/3 131/98/3 133/100/28 132/101/28
f 132/101/28 133/100/28 135/102/29 134/103/29
f 134/103/29 135/102/29 137/104/30 136/105/30
f 136/105/30 137/104/30 139/106/31 138/107/31
f 138/107/31 139/106/31 141/108/32 140/109/32
f 140/109/32 141/108/32 143/110/33 142/111/33
s 0
f 95/112/2 93/113/2 147/114/2
s 1
f 142/111/33 143/110/33 145/115/34 144/116/34
f 144/116/34 145/115/34 83/117/5 82/118/5
s 0
f 84/119/1 86/120/1 146/114/1
f 102/121/1 104/122/1 146/114/1
f 120/123/1 122/124/1 146/114/1
f 138/125/1 140/126/1 146/114/1
f 94/112/1 96/127/1 146/114/1
f 112/128/1 114/129/1 146/114/1
f 130/130/1 132/131/1 146/114/1
f 86/120/1 88/132/1 146/114/1
f 104/122/1 106/133/1 146/114/1
f 122/124/1 124/134/1 146/114/1
f 140/126/1 142/135/1 146/114/1
f 96/127/1 98/136/1 146/114/1
f 114/129/1 116/137/1 146/114/1
f 132/131/1 134/138/1 146/114/1
f 88/132/1 90/139/1 146/114/1
f 106/133/1 108/140/1 146/114/1
f 124/134/1 126/141/1 146/114/1
f 142/135/1 144/142/1 146/114/1
f 98/136/1 100/143/1 146/114/1
f 116/137/1 118/144/1 146/114/1
f 134/138/1 136/145/1 146/114/1
f 90/139/1 92/113/1 146/114/1
f 108/140/1 110/146/1 146/114/1
f 126/141/1 128/147/1 146/114/1
f 82/148/1 84/119/1 146/114/1
f 144/142/1 82/148/1 146/114/1
f 100/143/1 102/121/1 146/114/1
f 118/144/1 120/123/1 146/114/1
f 136/145/1 138/125/1 146/114/1
f 92/113/1 94/112/1 146/114/1
f 110/146/1 112/128/1 146/114/1
f 128/147/1 130/130/1 146/114/1
f 113/128/2 111/146/2 147/114/2
f 131/130/2 129/147/2 147/114/2
f 87/120/2 85/119/2 147/114/2
f 105/122/2 103/121/2 147/114/2
f 123/124/2 121/123/2 147/114/2
f 141/126/2 139/125/2 147/114/2
f 97/127/2 95/112/2 147/114/2
f 115/129/2 113/128/2 147/114/2
f 133/131/2 131/130/2 147/114/2
f 89/132/2 87/120/2 147/114/2
f 107/133/2 105/122/2 147/114/2
f 125/134/2 123/124/2 147/114/2
f 143/135/2 141/126/2 147/114/2
f 99/136/2 97/127/2 147/114/2
f 117/137/2 115/129/2 147/114/2
f 135/138/2 133/131/2 147/114/2
f 91/139/2 89/132/2 147/114/2
f 109/140/2 107/133/2 147/114/2
f 127/141/2 125/134/2 147/114/2
f 145/142/2 143/135/2 147/114/2
f 101/143/2 99/136/2 147/114/2
f 119/144/2 117/137/2 147/114/2
f 137/145/2 135/138/2 147/114/2
f 93/113/2 91/139/2 147/114/2
f 111/146/2 109/140/2 147/114/2
f 129/147/2 127/141/2 147/114/2
f 85/119/2 83/148/2 147/114/2
f 83/148/2 145/142/2 147/114/2
f 103/121/2 101/143/2 147/114/2
f 121/123/2 119/144/2 147/114/2
f 139/125/2 137/145/2 147/114/2
s 1
f 148/50/5 149/51/5 151/52/7 150/53/7
f 150/53/7 151/52/7 153/54/8 152/55/8
f 152/55/8 153/54/8 155/56/9 154/57/9
f 154/57/9 155/56/9 157/58/10 156/59/10
f 156/59/10 157/58/10 159/60/11 158/61/11
f 158/61/11 159/60/11 161/62/12 160/63/12
f 160/63/12 161/62/12 163/64/13 162/65/13
f 162/65/13 163/64/13 165/66/6 164/67/6
f 164/67/6 165/66/6 167/68/14 166/69/14
f 166/69/14 167/68/14 169/70/15 168/71/15
f 168/71/15 169/70/15 171/72/16 170/73/16
f 170/73/16 171/72/16 173/74/17 172/75/17
f 172/75/17 173/74/17 175/76/18 174/77/18
f 174/77/18 175/76/18 177/78/19 176/79/19
f 176/79/19 177/78/19 179/80/20 178/81/20
f 178/81/20 179/80/20 181/82/4 180/83/4
f 180/83/4 181/82/4 183/84/21 182/85/21
f 182/85/21 183/84/21 185/86/22 184/87/22
f 184/87/22 185/86/22 187/88/23 186/89/23
f 186/89/23 187/88/23 189/90/24 188/91/24
f 188/91/24 189/90/24 191/92/25 190/93/25
f 190/93/25 191/92/25 193/94/26 192/95/26
f 192/95/26 193/94/26 195/96/27 194/97/27
f 194/97/27 195/96/27 197/98/3 196/99/3
f 196/99/3 197/98/3 199/100/28 198/101/28
f 198/101/28 199/100/28 201/102/29 200/103/29
f 200/103/29 201/102/29 203/104/30 202/105/30
f 202/105/30 203/104/30 205/106/31 204/107/31
f 204/107/31 205/106/31 207/108/32 206/109/32
f 206/109/32 207/108/32 209/110/33 208/111/33
s 0
f 161/149/2 159/150/2 213/151/2
s 1
f 208/111/33 209/110/33 211/115/34 210/116/34
f 210/116/34 211/115/34 149/117/5 148/118/5
s 0
f 150/152/1 152/153/1 212/151/1
f 168/154/1 170/155/1 212/151/1
f 186/156/1 188/157/1 212/151/1
f 204/158/1 206/159/1 212/151/1
f 160/149/1 162/160/1 212/151/1
f 178/161/1 180/162/1 212/151/1
f 196/163/1 198/164/1 212/151/1
f 152/153/1 154/165/1 212/151/1
f 170/155/1 172/166/1 212/151/1
f 188/157/1 190/167/1 212/151/1
f 206/159/1 208/168/1 212/151/1
f 162/160/1 164/169/1 212/151/1
f 180/162/1 182/170/1 212/151/1
f 198/164/1 200/171/1 212/151/1
f 154/165/1 156/172/1 212/151/1
f 172/166/1 174/173/1 212/151/1
f 190/167/1 192/174/1 212/151/1
f 208/168/1 210/175/1 212/151/1
f 164/169/1 166/176/1 212/151/1
f 182/170/1 184/177/1 212/151/1
f 200/171/1 202/178/1 212/151/1
f 156/172/1 158/150/1 212/151/1
f 174/173/1 176/179/1 212/151/1
f 192/174/1 194/180/1 212/151/1
f 148/181/1 150/152/1 212/151/1
f 210/175/1 148/181/1 212/151/1
f 166/176/1 168/154/1 212/151/1
f 184/177/1 186/156/1 212/151/1
f 202/178/1 204/158/1 212/151/1
f 158/150/1 160/149/1 212/151/1
f 176/179/1 178/161/1 212/151/1
f 194/180/1 196/163/1 212/151/1
f 179/161/2 177/179/2 213/151/2
f 197/163/2 195/180/2 213/151/2
f 153/153/2 151/152/2 213/151/2
f 171/155/2 169/154/2 213/151/2
f 189/157/2 187/156/2 213/151/2
f 207/159/2 205/158/2 213/151/2
f 163/160/2 161/149/2 213/151/2
f 181/162/2 179/161/2 213/151/2
f 199/164/2 197/163/2 213/151/2
f 155/165/2 153/153/2 213/151/2
f 173/166/2 171/155/2 213/151/2
f 191/167/2 189/157/2 213/151/2
f 209/168/2 207/159/2 213/151/2
f 165/169/2 163/160/2 213/151/2
f 183/170/2 181/162/2 213/151/2
f 201/171/2 199/164/2 213/151/2
f 157/172/2 155/165/2 213/151/2
f 175/173/2 173/166/2 213/151/2
f 193/174/2 191/167/2 213/151/2
f 211/175/2 209/168/2 213/151/2
f 167/176/2 165/169/2 213/151/2
f 185/177/2 183/170/2 213/151/2
f 203/178/2 201/171/2 213/151/2
f 159/150/2 157/172/2 213/151/2
f 177/179/2 175/173/2 213/151/2
f 195/180/2 193/174/2 213/151/2
f 151/152/2 149/181/2 213/151/2
f 149/181/2 211/175/2 213/151/2
f 169/154/2 167/176/2 213/151/2
f 187/156/2 185/177/2 213/151/2
f 205/158/2 203/178/2 213/151/2
s 1
f 214/50/5 215/51/5 217/52/7 216/53/7
f 216/53/7 217/52/7 219/54/8 218/55/8
f 218/55/8 219/54/8 221/56/9 220/57/9
f 220/57/9 221/56/9 223/58/10 222/59/10
f 222/59/10 223/58/10 225/60/11 224/61/11
f 224/61/11 225/60/11 227/62/12 226/63/12
f 226/63/12 227/62/12 229/64/13 228/65/13
f 228/65/13 229/64/13 231/66/6 230/67/6
f 230/67/6 231/66/6 233/68/14 232/69/14
f 232/69/14 233/68/14 235/70/15 234/71/15
f 234/71/15 235/70/15 237/72/16 236/73/16
f 236/73/16 237/72/16 239/74/17 238/75/17
f 238/75/17 239/74/17 241/76/18 240/77/18
f 240/77/18 241/76/18 243/78/19 242/79/19
f 242/79/19 243/78/19 245/80/20 244/81/20
f 244/81/20 245/80/20 247/82/4 246/83/4
f 246/83/4 247/82/4 249/84/21 248/85/21
f 248/85/21 249/84/21 251/86/22 250/87/22
f 250/87/22 251/86/22 253/88/23 252/89/23
f 252/89/23 253/88/23 255/90/24 254/91/24
f 254/91/24 255/90/24 257/92/25 256/93/25
f 256/93/25 257/92/25 259/94/26 258/95/26
f 258/95/26 259/94/26 261/96/27 260/97/27
f 260/97/27 261/96/27 263/98/3 262/99/3
f 262/99/3 263/98/3 265/100/28 264/101/28
f 264/101/28 265/100/28 267/102/29 266/103/29
f 266/103/29 267/102/29 269/104/30 268/105/30
f 268/105/30 269/104/30 271/106/31 270/107/31
f 270/107/31 271/106/31 273/108/32 272/109/32
f 272/109/32 273/108/32 275/110/33 274/111/33
s 0
f 227/182/2 225/183/2 279/184/2
s 1
f 274/111/33 275/110/33 277/115/34 276/116/34
f 276/116/34 277/115/34 215/117/5 214/118/5
s 0
f 216/185/1 218/186/1 278/184/1
f 234/187/1 236/188/1 278/184/1
f 252/189/1 254/190/1 278/184/1
f 270/191/1 272/192/1 278/184/1
f 226/182/1 228/193/1 278/184/1
f 244/194/1 246/195/1 278/184/1
f 262/196/1 264/197/1 278/184/1
f 218/186/1 220/198/1 278/184/1
f 236/188/1 238/199/1 278/184/1
f 254/190/1 256/200/1 278/184/1
f 272/192/1 274/201/1 278/184/1
f 228/193/1 230/202/1 278/184/1
f 246/195/1 248/203/1 278/184/1
f 264/197/1 266/204/1 278/184/1
f 220/198/1 222/205/1 278/184/1
f 238/199/1 240/206/1 278/184/1
f 256/200/1 258/207/1 278/184/1
f 274/201/1 276/208/1 278/184/1
f 230/202/1 232/209/1 278/184/1
f 248/203/1 250/210/1 278/184/1
f 266/204/1 268/211/1 278/184/1
f 222/205/1 224/183/1 278/184/1
f 240/206/1 242/212/1 278/184/1
f 258/207/1 260/213/1 278/184/1
f 214/214/1 216/185/1 278/184/1
f 276/208/1 214/214/1 278/184/1
f 232/209/1 234/187/1 278/184/1
f 250/210/1 252/189/1 278/184/1
f 268/211/1 270/191/1 278/184/1
f 224/183/1 226/182/1 278/184/1
f 242/212/1 244/194/1 278/184/1
f 260/213/1 262/196/1 278/184/1
f 245/194/2 243/212/2 279/184/2
f 263/196/2 261/213/2 279/184/2
f 219/186/2 217/185/2 279/184/2
f 237/188/2 235/187/2 279/184/2
f 255/190/2 253/189/2 279/184/2
f 273/192/2 271/191/2 279/184/2
f 229/193/2 227/182/2 279/184/2
f 247/195/2 245/194/2 279/184/2
f 265/197/2 263/196/2 279/184/2
f 221/198/2 219/186/2 279/184/2
f 239/199/2 237/188/2 279/184/2
f 257/200/2 255/190/2 279/184/2
f 275/201/2 273/192/2 279/184/2
f 231/202/2 229/193/2 279/184/2
f 249/203/2 247/195/2 279/184/2
f 267/204/2 265/197/2 279/184/2
f 223/205/2 221/198/2 279/184/2
f 241/206/2 239/199/2 279/184/2
f 259/207/2 257/200/2 279/184/2
f 277/208/2 275/201/2 279/184/2
f 233/209/2 231/202/2 279/184/2
f 251/210/2 249/203/2 279/184/2
f 269/211/2 267/204/2 279/184/2
f 225/183/2 223/205/2 279/184/2
f 243/212/2 241/206/2 279/184/2
f 261/213/2 259/207/2 279/184/2
f 217/185/2 215/214/2 279/184/2
f 215/214/2 277/208/2 279/184/2
f 235/187/2 233/209/2 279/184/2
f 253/189/2 251/210/2 279/184/2
f 271/191/2 269/211/2 279/184/2
f 283/11/4 289/39/4 288/39/4 284/11/4
f 280/38/4 281/30/4 282/30/4 287/38/4
f 286/12/4 283/11/4 284/11/4 285/12/4
f 289/39/4 280/38/4 287/38/4 288/39/4
f 20/215/6 14/216/6 286/217/6 285/218/6
f 21/40/1 17/40/1 287/40/1 282/40/1
f 28/6/2 29/219/2 289/219/2 283/6/2
f 5/220/3 21/215/3 282/221/3 281/222/3
f 29/219/2 30/41/2 280/41/2 289/219/2
f 18/40/1 19/40/1 284/40/1 288/40/1
