# Blender 4.5.1 LTS
# www.blender.org
mtllib Dungeon_Base_30x40.mtl
o Dungeon_Base_30x40
v 0.000002 -2.000000 40.000000
v 0.000002 0.000000 40.000000
v -29.999998 -2.000000 40.000000
v -29.999998 0.000000 40.000000
v 0.000000 -2.000000 0.000000
v 0.000000 0.000000 0.000000
v -30.000000 -2.000000 0.000001
v -30.000000 0.000000 0.000001
v -19.999998 -2.000000 40.000000
v -9.999998 -2.000000 40.000000
v -9.999998 0.000000 40.000000
v -19.999998 0.000000 40.000000
v -10.000000 -2.000000 0.000000
v -20.000000 -2.000000 0.000001
v -20.000000 0.000000 0.000001
v -10.000000 0.000000 0.000000
v -30.000000 -2.000000 10.000001
v -30.000000 -2.000000 20.000002
v -29.999998 -2.000000 30.000002
v -29.999998 0.000000 30.000002
v -30.000000 0.000000 20.000002
v -30.000000 0.000000 10.000001
v 0.000001 -2.000000 30.000000
v 0.000001 -2.000000 20.000000
v 0.000000 -2.000000 10.000000
v 0.000000 0.000000 10.000000
v 0.000001 0.000000 20.000000
v 0.000001 0.000000 30.000000
v -19.999998 0.000000 30.000000
v -20.000000 0.000000 20.000000
v -20.000000 0.000000 10.000001
v -9.999999 0.000000 30.000000
v -9.999999 0.000000 20.000000
v -10.000000 0.000000 10.000000
v -20.000000 -2.000000 10.000001
v -20.000000 -2.000000 20.000000
v -19.999998 -2.000000 30.000000
v -10.000000 -2.000000 10.000000
v -9.999999 -2.000000 20.000000
v -9.999999 -2.000000 30.000000
v -30.000000 0.000000 7.500001
v -30.000000 0.000000 5.000001
v -30.000000 0.000000 2.500001
v 0.000000 -2.000000 7.500000
v 0.000000 -2.000000 5.000000
v 0.000000 -2.000000 2.500000
v -20.000000 0.000000 7.500001
v -20.000000 0.000000 5.000001
v -20.000000 0.000000 2.500001
v -10.000000 0.000000 7.500000
v -10.000000 0.000000 5.000000
v -10.000000 0.000000 2.500000
v -30.000000 -2.000000 2.500001
v -30.000000 -2.000000 5.000001
v -30.000000 -2.000000 7.500001
v 0.000000 0.000000 2.500000
v 0.000000 0.000000 5.000000
v 0.000000 0.000000 7.500000
v -20.000000 -2.000000 2.500001
v -20.000000 -2.000000 5.000001
v -20.000000 -2.000000 7.500001
v -10.000000 -2.000000 2.500000
v -10.000000 -2.000000 5.000000
v -10.000000 -2.000000 7.500000
v -29.999998 -2.000000 32.500000
v -29.999998 -2.000000 35.000000
v -29.999998 -2.000000 37.500000
v 0.000001 0.000000 32.500000
v 0.000002 0.000000 35.000000
v 0.000002 0.000000 37.500000
v -19.999998 -2.000000 32.500000
v -19.999998 -2.000000 35.000000
v -19.999998 -2.000000 37.500000
v -9.999999 -2.000000 32.500000
v -9.999998 -2.000000 35.000000
v -9.999998 -2.000000 37.500000
v -29.999998 0.000000 37.500000
v -29.999998 0.000000 35.000000
v -29.999998 0.000000 32.500000
v 0.000002 -2.000000 37.500000
v 0.000002 -2.000000 35.000000
v 0.000001 -2.000000 32.500000
v -19.999998 0.000000 37.500000
v -19.999998 0.000000 35.000000
v -19.999998 0.000000 32.500000
v -9.999998 0.000000 37.500000
v -9.999998 0.000000 35.000000
v -9.999999 0.000000 32.500000
v -15.000000 -2.000000 5.000000
v -17.500000 -2.000000 5.000001
v -12.500000 -2.000000 7.500000
v -15.000000 -2.000000 7.500000
v -17.500000 -2.000000 7.500001
v -12.500000 0.000000 7.500000
v -15.000000 0.000000 7.500000
v -17.500000 0.000000 7.500001
v -12.500000 0.000000 5.000000
v -15.000000 0.000000 5.000000
v -17.500000 0.000000 5.000001
v -12.500000 0.000000 2.500000
v -15.000000 0.000000 2.500001
v -17.500000 0.000000 2.500001
v -12.499999 0.000000 30.000000
v -14.999999 0.000000 30.000000
v -17.499998 0.000000 30.000000
v -12.499999 0.000000 20.000000
v -14.999999 0.000000 20.000000
v -17.500000 0.000000 20.000000
v -12.500000 0.000000 10.000001
v -15.000000 0.000000 10.000001
v -17.500000 0.000000 10.000001
v -12.500000 -2.000000 10.000001
v -15.000000 -2.000000 10.000001
v -17.500000 -2.000000 10.000001
v -12.499999 -2.000000 20.000000
v -14.999999 -2.000000 20.000000
v -17.500000 -2.000000 20.000000
v -12.499999 -2.000000 30.000000
v -14.999999 -2.000000 30.000000
v -17.499998 -2.000000 30.000000
v -12.500000 0.000000 0.000001
v -15.000000 0.000000 0.000001
v -17.500000 0.000000 0.000001
v -17.500000 -2.000000 0.000001
v -15.000000 -2.000000 0.000001
v -12.500000 -2.000000 0.000001
v -17.499998 0.000000 40.000000
v -14.999998 0.000000 40.000000
v -12.499998 0.000000 40.000000
v -12.499998 -2.000000 40.000000
v -14.999998 -2.000000 40.000000
v -17.499998 -2.000000 40.000000
v -12.500000 -2.000000 5.000000
v -17.500000 -2.000000 2.500001
v -15.000000 -2.000000 2.500001
v -12.500000 -2.000000 2.500000
v -17.499998 -2.000000 37.500000
v -14.999998 -2.000000 37.500000
v -12.499998 -2.000000 37.500000
v -17.499998 -2.000000 35.000000
v -14.999998 -2.000000 35.000000
v -12.499998 -2.000000 35.000000
v -17.499998 -2.000000 32.500000
v -14.999999 -2.000000 32.500000
v -12.499999 -2.000000 32.500000
v -17.499998 0.000000 32.500000
v -14.999999 0.000000 32.500000
v -12.499999 0.000000 32.500000
v -17.499998 0.000000 35.000000
v -14.999998 0.000000 35.000000
v -12.499998 0.000000 35.000000
v -17.499998 0.000000 37.500000
v -14.999998 0.000000 37.500000
v -12.499998 0.000000 37.500000
v -7.499998 -2.000000 40.000000
v -4.999998 -2.000000 40.000000
v -2.499998 -2.000000 40.000000
v -7.500000 0.000000 0.000000
v -5.000000 0.000000 0.000000
v -2.500000 0.000000 0.000000
v -2.499998 0.000000 40.000000
v -4.999998 0.000000 40.000000
v -7.499998 0.000000 40.000000
v -2.500000 -2.000000 0.000000
v -5.000000 -2.000000 0.000000
v -7.500000 -2.000000 0.000000
v -7.500000 0.000000 10.000000
v -5.000000 0.000000 10.000000
v -2.500000 0.000000 10.000000
v -7.499999 0.000000 20.000000
v -4.999999 0.000000 20.000000
v -2.499999 0.000000 20.000000
v -7.499999 0.000000 30.000000
v -4.999999 0.000000 30.000000
v -2.499999 0.000000 30.000000
v -7.499999 -2.000000 30.000000
v -4.999999 -2.000000 30.000000
v -2.499999 -2.000000 30.000000
v -7.499999 -2.000000 20.000000
v -4.999999 -2.000000 20.000000
v -2.499999 -2.000000 20.000000
v -7.500000 -2.000000 10.000000
v -5.000000 -2.000000 10.000000
v -2.500000 -2.000000 10.000000
v -7.500000 0.000000 2.500000
v -5.000000 0.000000 2.500000
v -2.500000 0.000000 2.500000
v -7.500000 0.000000 5.000000
v -5.000000 0.000000 5.000000
v -2.500000 0.000000 5.000000
v -7.500000 0.000000 7.500000
v -5.000000 0.000000 7.500000
v -2.500000 0.000000 7.500000
v -7.500000 -2.000000 7.500000
v -5.000000 -2.000000 7.500000
v -2.500000 -2.000000 7.500000
v -7.500000 -2.000000 5.000000
v -5.000000 -2.000000 5.000000
v -2.500000 -2.000000 5.000000
v -7.500000 -2.000000 2.500000
v -5.000000 -2.000000 2.500000
v -2.500000 -2.000000 2.500000
v -7.499999 -2.000000 37.500000
v -4.999999 -2.000000 37.500000
v -2.499998 -2.000000 37.500000
v -7.499999 -2.000000 35.000000
v -4.999999 -2.000000 35.000000
v -2.499999 -2.000000 35.000000
v -7.499999 -2.000000 32.500000
v -4.999999 -2.000000 32.500000
v -2.499999 -2.000000 32.500000
v -7.499999 0.000000 32.500000
v -4.999999 0.000000 32.500000
v -2.499999 0.000000 32.500000
v -7.499999 0.000000 35.000000
v -4.999999 0.000000 35.000000
v -2.499999 0.000000 35.000000
v -7.499999 0.000000 37.500000
v -4.999999 0.000000 37.500000
v -2.499998 0.000000 37.500000
v -22.499998 0.000000 40.000000
v -24.999998 0.000000 40.000000
v -27.499998 0.000000 40.000000
v -22.500000 -2.000000 0.000001
v -25.000000 -2.000000 0.000001
v -27.500000 -2.000000 0.000001
v -27.499998 -2.000000 40.000000
v -24.999998 -2.000000 40.000000
v -22.499998 -2.000000 40.000000
v -27.500000 0.000000 0.000001
v -25.000000 0.000000 0.000001
v -22.500000 0.000000 0.000001
v -27.499998 -2.000000 30.000002
v -24.999998 -2.000000 30.000002
v -22.499998 -2.000000 30.000002
v -27.500000 -2.000000 20.000002
v -25.000000 -2.000000 20.000002
v -22.500000 -2.000000 20.000002
v -27.500000 -2.000000 10.000001
v -25.000000 -2.000000 10.000001
v -22.500000 -2.000000 10.000001
v -27.500000 0.000000 10.000001
v -25.000000 0.000000 10.000001
v -22.500000 0.000000 10.000001
v -27.500000 0.000000 20.000002
v -25.000000 0.000000 20.000002
v -22.500000 0.000000 20.000002
v -27.499998 0.000000 30.000002
v -24.999998 0.000000 30.000002
v -22.499998 0.000000 30.000002
v -27.500000 0.000000 2.500001
v -25.000000 0.000000 2.500001
v -22.500000 0.000000 2.500001
v -27.500000 0.000000 5.000001
v -25.000000 0.000000 5.000001
v -22.500000 0.000000 5.000001
v -27.500000 0.000000 7.500001
v -25.000000 0.000000 7.500001
v -22.500000 0.000000 7.500001
v -27.500000 -2.000000 7.500001
v -25.000000 -2.000000 7.500001
v -22.500000 -2.000000 7.500001
v -27.500000 -2.000000 5.000001
v -25.000000 -2.000000 5.000001
v -22.500000 -2.000000 5.000001
v -27.500000 -2.000000 2.500001
v -25.000000 -2.000000 2.500001
v -22.500000 -2.000000 2.500001
v -27.499998 -2.000000 37.500000
v -24.999998 -2.000000 37.500000
v -22.499998 -2.000000 37.500000
v -27.499998 -2.000000 35.000000
v -24.999998 -2.000000 35.000000
v -22.499998 -2.000000 35.000000
v -27.499998 -2.000000 32.500000
v -24.999998 -2.000000 32.500000
v -22.499998 -2.000000 32.500000
v -27.499998 0.000000 32.500000
v -24.999998 0.000000 32.500000
v -22.499998 0.000000 32.500000
v -27.499998 0.000000 35.000000
v -24.999998 0.000000 35.000000
v -22.499998 0.000000 35.000000
v -27.499998 0.000000 37.500000
v -24.999998 0.000000 37.500000
v -22.499998 0.000000 37.500000
vn -0.0000 -0.0000 1.0000
vn -1.0000 -0.0000 -0.0000
vn -0.0000 -0.0000 -1.0000
vn 1.0000 -0.0000 -0.0000
vn -0.0000 -1.0000 -0.0000
vn -0.0000 1.0000 -0.0000
vt 0.070796 0.915048
vt 0.056700 0.915048
vt 0.056700 0.913874
vt 0.070796 0.913874
vt 0.070796 0.928850
vt 0.056700 0.928850
vt 0.056700 0.927969
vt 0.070796 0.927969
vt 0.084891 0.915048
vt 0.070796 0.915048
vt 0.084891 0.913874
vt 0.084891 0.928850
vt 0.084891 0.927969
vt 0.043780 0.927088
vt 0.043780 0.927969
vt 0.042605 0.927969
vt 0.042605 0.927088
vt 0.430122 0.955948
vt 0.430122 0.956829
vt 0.428948 0.956829
vt 0.428948 0.955948
vt 0.439519 0.955948
vt 0.439519 0.956829
vt 0.438345 0.956829
vt 0.438345 0.955948
vt 0.437170 0.956829
vt 0.437170 0.955948
vt 0.053176 0.927088
vt 0.053176 0.927969
vt 0.052002 0.927969
vt 0.052002 0.927088
vt 0.784141 0.934682
vt 0.782966 0.934682
vt 0.782966 0.933801
vt 0.784141 0.933801
vt 0.084891 0.924445
vt 0.070796 0.924445
vt 0.070796 0.923271
vt 0.084891 0.923271
vt 0.050827 0.927969
vt 0.050827 0.927088
vt 0.070796 0.924445
vt 0.056700 0.924445
vt 0.056700 0.923271
vt 0.049653 0.927969
vt 0.048478 0.927969
vt 0.048478 0.927088
vt 0.049653 0.927088
vt 0.070796 0.922096
vt 0.070796 0.920921
vt 0.084891 0.920921
vt 0.084891 0.922096
vt 0.056700 0.922096
vt 0.070796 0.922096
vt 0.056700 0.920921
vt 0.056700 0.919747
vt 0.070796 0.919747
vt 0.070796 0.920921
vt 0.053176 0.916517
vt 0.053176 0.917398
vt 0.052002 0.917398
vt 0.052002 0.916517
vt 0.053176 0.920921
vt 0.052002 0.920921
vt 0.053176 0.924445
vt 0.052002 0.924445
vt 0.050827 0.917398
vt 0.049653 0.917398
vt 0.049653 0.916517
vt 0.050827 0.916517
vt 0.050827 0.920921
vt 0.049653 0.920921
vt 0.048478 0.920921
vt 0.048478 0.917398
vt 0.786490 0.923230
vt 0.786490 0.924111
vt 0.785315 0.924111
vt 0.785315 0.923230
vt 0.786490 0.927635
vt 0.785315 0.927635
vt 0.786490 0.931158
vt 0.785315 0.931158
vt 0.430122 0.945377
vt 0.430122 0.946258
vt 0.428948 0.946258
vt 0.428948 0.945377
vt 0.430122 0.949782
vt 0.428948 0.949782
vt 0.430122 0.953305
vt 0.428948 0.953305
vt 0.043780 0.916517
vt 0.043780 0.917398
vt 0.042605 0.917398
vt 0.042605 0.916517
vt 0.043780 0.920921
vt 0.042605 0.920921
vt 0.043780 0.924445
vt 0.042605 0.924445
vt 0.084891 0.939422
vt 0.070796 0.939422
vt 0.070796 0.938541
vt 0.084891 0.938541
vt 0.070796 0.935017
vt 0.084891 0.935017
vt 0.070796 0.931493
vt 0.084891 0.931493
vt 0.056700 0.939422
vt 0.056700 0.938541
vt 0.056700 0.935017
vt 0.056700 0.931493
vt 0.084891 0.942065
vt 0.070796 0.942065
vt 0.070796 0.941184
vt 0.084891 0.941184
vt 0.070796 0.940303
vt 0.084891 0.940303
vt 0.430122 0.942734
vt 0.430122 0.943615
vt 0.428948 0.943615
vt 0.428948 0.942734
vt 0.777093 0.921468
vt 0.777093 0.922349
vt 0.775918 0.922349
vt 0.775918 0.921468
vt 0.777093 0.923230
vt 0.775918 0.923230
vt 0.439519 0.942734
vt 0.439519 0.943615
vt 0.438345 0.943615
vt 0.438345 0.942734
vt 0.786490 0.921468
vt 0.786490 0.922349
vt 0.785315 0.922349
vt 0.785315 0.921468
vt 0.050827 0.924445
vt 0.049653 0.924445
vt 0.784141 0.924111
vt 0.784141 0.923230
vt 0.782966 0.924111
vt 0.781791 0.924111
vt 0.781791 0.923230
vt 0.782966 0.923230
vt 0.784141 0.927635
vt 0.782966 0.927635
vt 0.784141 0.931158
vt 0.782966 0.931158
vt 0.781791 0.931158
vt 0.781791 0.927635
vt 0.053176 0.925326
vt 0.052002 0.925326
vt 0.053176 0.926207
vt 0.052002 0.926207
vt 0.043780 0.925326
vt 0.042605 0.925326
vt 0.043780 0.926207
vt 0.042605 0.926207
vt 0.056700 0.930612
vt 0.070796 0.930612
vt 0.056700 0.929731
vt 0.070796 0.929731
vt 0.056700 0.942065
vt 0.056700 0.941184
vt 0.056700 0.940303
vt 0.043780 0.913874
vt 0.043780 0.914755
vt 0.042605 0.914755
vt 0.042605 0.913874
vt 0.043780 0.915636
vt 0.042605 0.915636
vt 0.053176 0.913874
vt 0.053176 0.914755
vt 0.052002 0.914755
vt 0.052002 0.913874
vt 0.053176 0.915636
vt 0.052002 0.915636
vt 0.437170 0.943615
vt 0.435996 0.943615
vt 0.435996 0.942734
vt 0.437170 0.942734
vt 0.784141 0.922349
vt 0.784141 0.921468
vt 0.782966 0.922349
vt 0.781791 0.922349
vt 0.781791 0.921468
vt 0.782966 0.921468
vt 0.050827 0.925326
vt 0.049653 0.925326
vt 0.048478 0.925326
vt 0.048478 0.924445
vt 0.786490 0.932039
vt 0.785315 0.932039
vt 0.786490 0.932920
vt 0.785315 0.932920
vt 0.786490 0.933801
vt 0.785315 0.933801
vt 0.430122 0.954186
vt 0.428948 0.954186
vt 0.777093 0.932039
vt 0.777093 0.932920
vt 0.775918 0.932920
vt 0.775918 0.932039
vt 0.777093 0.933801
vt 0.775918 0.933801
vt 0.084891 0.930612
vt 0.084891 0.929731
vt 0.781791 0.933801
vt 0.780617 0.933801
vt 0.780617 0.932920
vt 0.781791 0.932920
vt 0.049653 0.926207
vt 0.048478 0.926207
vt 0.780617 0.932039
vt 0.781791 0.932039
vt 0.050827 0.926207
vt 0.780617 0.931158
vt 0.048478 0.916517
vt 0.047303 0.916517
vt 0.047303 0.915636
vt 0.048478 0.915636
vt 0.047303 0.914755
vt 0.048478 0.914755
vt 0.047303 0.913874
vt 0.048478 0.913874
vt 0.047303 0.927088
vt 0.047303 0.926207
vt 0.434821 0.943615
vt 0.434821 0.942734
vt 0.047303 0.925326
vt 0.047303 0.924445
vt 0.780617 0.923230
vt 0.780617 0.922349
vt 0.780617 0.921468
vt 0.433646 0.943615
vt 0.433646 0.942734
vt 0.780617 0.927635
vt 0.780617 0.924111
vt 0.047303 0.920921
vt 0.047303 0.917398
vt 0.056700 0.918572
vt 0.070796 0.918572
vt 0.070796 0.919747
vt 0.084891 0.919747
vt 0.084891 0.918572
vt 0.047303 0.927969
vt 0.434821 0.956829
vt 0.433646 0.956829
vt 0.433646 0.955948
vt 0.434821 0.955948
vt 0.781791 0.934682
vt 0.050827 0.914755
vt 0.050827 0.913874
vt 0.049653 0.914755
vt 0.049653 0.913874
vt 0.050827 0.915636
vt 0.049653 0.915636
vt 0.784141 0.932039
vt 0.782966 0.932039
vt 0.784141 0.932920
vt 0.782966 0.932920
vt 0.779442 0.933801
vt 0.779442 0.932920
vt 0.778268 0.933801
vt 0.778268 0.932920
vt 0.779442 0.932039
vt 0.778268 0.932039
vt 0.779442 0.931158
vt 0.778268 0.931158
vt 0.777093 0.931158
vt 0.046129 0.916517
vt 0.046129 0.915636
vt 0.044954 0.916517
vt 0.044954 0.915636
vt 0.046129 0.914755
vt 0.044954 0.914755
vt 0.046129 0.913874
vt 0.044954 0.913874
vt 0.046129 0.927088
vt 0.046129 0.926207
vt 0.044954 0.927088
vt 0.044954 0.926207
vt 0.046129 0.925326
vt 0.044954 0.925326
vt 0.046129 0.924445
vt 0.044954 0.924445
vt 0.779442 0.923230
vt 0.779442 0.922349
vt 0.778268 0.923230
vt 0.778268 0.922349
vt 0.779442 0.921468
vt 0.778268 0.921468
vt 0.432472 0.943615
vt 0.432472 0.942734
vt 0.431297 0.943615
vt 0.431297 0.942734
vt 0.046129 0.920921
vt 0.044954 0.920921
vt 0.046129 0.917398
vt 0.044954 0.917398
vt 0.779442 0.927635
vt 0.778268 0.927635
vt 0.777093 0.927635
vt 0.779442 0.924111
vt 0.778268 0.924111
vt 0.777093 0.924111
vt 0.056700 0.926795
vt 0.070796 0.926794
vt 0.056700 0.925620
vt 0.070796 0.925620
vt 0.432472 0.956829
vt 0.432472 0.955948
vt 0.431297 0.956829
vt 0.431297 0.955948
vt 0.046129 0.927969
vt 0.044954 0.927969
vt 0.070796 0.917398
vt 0.084891 0.917397
vt 0.070796 0.916223
vt 0.084891 0.916223
vt 0.790014 0.932920
vt 0.790014 0.933801
vt 0.788839 0.933801
vt 0.788839 0.932920
vt 0.787665 0.933801
vt 0.787665 0.932920
vt 0.790014 0.932039
vt 0.788839 0.932039
vt 0.787665 0.932039
vt 0.443043 0.953305
vt 0.443043 0.954186
vt 0.441869 0.954186
vt 0.441869 0.953305
vt 0.788839 0.931158
vt 0.787665 0.931158
vt 0.056700 0.915636
vt 0.056700 0.916517
vt 0.055526 0.916517
vt 0.055526 0.915636
vt 0.054351 0.916517
vt 0.054351 0.915636
vt 0.056700 0.914755
vt 0.055526 0.914755
vt 0.054351 0.914755
vt 0.055526 0.913874
vt 0.054351 0.913874
vt 0.056700 0.926207
vt 0.056700 0.927088
vt 0.055526 0.927088
vt 0.055526 0.926207
vt 0.054351 0.927088
vt 0.054351 0.926207
vt 0.056700 0.925326
vt 0.055526 0.925326
vt 0.054351 0.925326
vt 0.055526 0.924445
vt 0.054351 0.924445
vt 0.790014 0.922349
vt 0.790014 0.923230
vt 0.788839 0.923230
vt 0.788839 0.922349
vt 0.787665 0.923230
vt 0.787665 0.922349
vt 0.790014 0.921468
vt 0.788839 0.921468
vt 0.787665 0.921468
vt 0.443043 0.942734
vt 0.443043 0.943615
vt 0.441869 0.943615
vt 0.441869 0.942734
vt 0.440694 0.943615
vt 0.440694 0.942734
vt 0.470112 0.930095
vt 0.470112 0.933619
vt 0.468937 0.933619
vt 0.468937 0.930095
vt 0.788839 0.927635
vt 0.787665 0.927635
vt 0.443043 0.946258
vt 0.443043 0.949782
vt 0.441869 0.949782
vt 0.441869 0.946258
vt 0.788839 0.924111
vt 0.787665 0.924111
vt 0.443043 0.945377
vt 0.441869 0.945377
vt 0.056700 0.920921
vt 0.055526 0.920921
vt 0.054351 0.920921
vt 0.056700 0.917398
vt 0.055526 0.917398
vt 0.054351 0.917398
vt 0.070796 0.926795
vt 0.084891 0.926794
vt 0.070796 0.925620
vt 0.084891 0.925620
vt 0.055526 0.927969
vt 0.054351 0.927969
vt 0.443043 0.955948
vt 0.443043 0.956829
vt 0.441869 0.956829
vt 0.441869 0.955948
vt 0.440694 0.956829
vt 0.440694 0.955948
vt 0.070796 0.917397
vt 0.056700 0.916223
s 0
usemtl M_General
f 227/1/1 223/2/1 4/3/1 3/4/1
f 53/5/2 43/6/2 8/7/2 7/8/2
f 164/9/3 160/10/3 6/4/3 5/11/3
f 80/12/4 70/5/4 2/8/4 1/13/4
f 202/14/5 164/15/5 5/16/5 46/17/5
f 220/18/6 161/19/6 2/20/6 70/21/6
f 286/22/6 221/23/6 12/24/6 83/25/6
f 12/24/6 127/26/6 152/27/6 83/25/6
f 268/28/5 224/29/5 14/30/5 59/31/5
f 127/32/6 128/33/6 153/34/6 152/35/6
f 224/36/3 232/37/3 15/38/3 14/39/3
f 14/30/5 124/40/5 134/41/5 59/31/5
f 155/42/1 163/43/1 11/44/1 10/38/1
f 125/45/5 126/46/5 136/47/5 135/48/5
f 123/49/3 122/50/3 125/51/3 124/52/3
f 11/44/1 129/53/1 130/54/1 10/38/1
f 128/55/1 127/56/1 132/57/1 131/58/1
f 277/59/5 235/60/5 37/61/5 71/62/5
f 235/60/5 238/63/5 36/64/5 37/61/5
f 238/63/5 241/65/5 35/66/5 36/64/5
f 120/67/5 119/68/5 144/69/5 143/70/5
f 36/64/5 117/71/5 120/67/5 37/61/5
f 116/72/5 115/73/5 118/74/5 119/68/5
f 259/75/6 244/76/6 31/77/6 47/78/6
f 244/76/6 247/79/6 30/80/6 31/77/6
f 247/79/6 250/81/6 29/82/6 30/80/6
f 193/83/6 169/84/6 26/85/6 58/86/6
f 169/84/6 172/87/6 27/88/6 26/85/6
f 172/87/6 175/89/6 28/90/6 27/88/6
f 211/91/5 178/92/5 23/93/5 82/94/5
f 178/92/5 181/95/5 24/96/5 23/93/5
f 181/95/5 184/97/5 25/98/5 24/96/5
f 44/99/4 58/100/4 26/101/4 25/102/4
f 25/102/4 26/101/4 27/103/4 24/104/4
f 24/104/4 27/103/4 28/105/4 23/106/4
f 65/100/2 79/107/2 20/108/2 19/101/2
f 19/101/2 20/108/2 21/109/2 18/103/2
f 18/103/2 21/109/2 22/110/2 17/105/2
f 5/111/4 6/112/4 56/113/4 46/114/4
f 46/114/4 56/113/4 57/115/4 45/116/4
f 45/116/4 57/115/4 58/100/4 44/99/4
f 160/117/6 187/118/6 56/119/6 6/120/6
f 187/121/6 190/122/6 57/123/6 56/124/6
f 190/122/6 193/125/6 58/126/6 57/123/6
f 232/127/6 253/128/6 49/129/6 15/130/6
f 253/131/6 256/132/6 48/133/6 49/134/6
f 256/132/6 259/75/6 47/78/6 48/133/6
f 114/135/5 113/136/5 116/72/5 117/71/5
f 31/77/6 111/137/6 96/138/6 47/78/6
f 110/139/6 109/140/6 94/141/6 95/142/6
f 108/143/6 107/144/6 110/139/6 111/137/6
f 29/82/6 105/145/6 108/143/6 30/80/6
f 104/146/6 103/147/6 106/148/6 107/144/6
f 241/65/5 262/149/5 61/150/5 35/66/5
f 262/149/5 265/151/5 60/152/5 61/150/5
f 265/151/5 268/28/5 59/31/5 60/152/5
f 184/97/5 196/153/5 44/154/5 25/98/5
f 196/153/5 199/155/5 45/156/5 44/154/5
f 199/155/5 202/14/5 46/17/5 45/156/5
f 17/105/2 22/110/2 41/157/2 55/158/2
f 55/158/2 41/157/2 42/159/2 54/160/2
f 54/160/2 42/159/2 43/6/2 53/5/2
f 3/112/2 4/161/2 77/162/2 67/113/2
f 67/113/2 77/162/2 78/163/2 66/115/2
f 66/115/2 78/163/2 79/107/2 65/100/2
f 157/164/5 205/165/5 80/166/5 1/167/5
f 205/165/5 208/168/5 81/169/5 80/166/5
f 208/168/5 211/91/5 82/94/5 81/169/5
f 229/170/5 271/171/5 73/172/5 9/173/5
f 271/171/5 274/174/5 72/175/5 73/172/5
f 274/174/5 277/59/5 71/62/5 72/175/5
f 102/176/6 101/177/6 122/178/6 123/179/6
f 48/133/6 99/180/6 102/181/6 49/134/6
f 98/182/6 97/183/6 100/184/6 101/185/6
f 96/138/6 95/142/6 98/182/6 99/180/6
f 61/150/5 93/186/5 114/135/5 35/66/5
f 92/187/5 91/188/5 112/189/5 113/136/5
f 250/81/6 280/190/6 85/191/6 29/82/6
f 280/190/6 283/192/6 84/193/6 85/191/6
f 283/192/6 286/194/6 83/195/6 84/193/6
f 175/89/6 214/196/6 68/197/6 28/90/6
f 214/198/6 217/199/6 69/200/6 68/201/6
f 217/199/6 220/202/6 70/203/6 69/200/6
f 23/106/4 28/105/4 68/158/4 82/204/4
f 82/204/4 68/158/4 69/160/4 81/205/4
f 81/205/4 69/160/4 70/5/4 80/12/4
f 154/206/6 86/207/6 87/208/6 151/209/6
f 89/210/5 133/211/5 91/188/5 92/187/5
f 151/209/6 87/208/6 88/212/6 148/213/6
f 60/152/5 90/214/5 93/186/5 61/150/5
f 148/213/6 88/212/6 32/215/6 103/147/6
f 93/186/5 92/187/5 113/136/5 114/135/5
f 145/216/5 74/217/5 75/218/5 142/219/5
f 95/142/6 94/141/6 97/183/6 98/182/6
f 142/219/5 75/218/5 76/220/5 139/221/5
f 47/78/6 96/138/6 99/180/6 48/133/6
f 139/221/5 76/220/5 10/222/5 130/223/5
f 99/180/6 98/182/6 101/185/6 102/181/6
f 136/47/5 62/224/5 63/225/5 133/211/5
f 101/177/6 100/226/6 121/227/6 122/178/6
f 133/211/5 63/225/5 64/228/5 91/188/5
f 49/129/6 102/176/6 123/179/6 15/130/6
f 91/188/5 64/228/5 38/229/5 112/189/5
f 105/145/6 104/146/6 107/144/6 108/143/6
f 94/141/6 50/230/6 51/231/6 97/183/6
f 107/144/6 106/148/6 109/140/6 110/139/6
f 97/183/6 51/231/6 52/232/6 100/184/6
f 30/80/6 108/143/6 111/137/6 31/77/6
f 100/226/6 52/233/6 16/234/6 121/227/6
f 111/137/6 110/139/6 95/142/6 96/138/6
f 103/147/6 32/215/6 33/235/6 106/148/6
f 113/136/5 112/189/5 115/73/5 116/72/5
f 106/148/6 33/235/6 34/236/6 109/140/6
f 35/66/5 114/135/5 117/71/5 36/64/5
f 109/140/6 34/236/6 50/230/6 94/141/6
f 117/71/5 116/72/5 119/68/5 120/67/5
f 112/189/5 38/229/5 39/237/5 115/73/5
f 119/68/5 118/74/5 145/216/5 144/69/5
f 115/73/5 39/237/5 40/238/5 118/74/5
f 37/61/5 120/67/5 143/70/5 71/62/5
f 118/74/5 40/238/5 74/217/5 145/216/5
f 129/53/1 128/55/1 131/58/1 130/54/1
f 127/56/1 12/239/1 9/240/1 132/57/1
f 122/50/3 121/241/3 126/242/3 125/51/3
f 121/241/3 16/240/3 13/243/3 126/242/3
f 15/38/3 123/49/3 124/52/3 14/39/3
f 126/46/5 13/244/5 62/224/5 136/47/5
f 124/40/5 125/45/5 135/48/5 134/41/5
f 129/245/6 11/246/6 86/247/6 154/248/6
f 128/33/6 129/249/6 154/206/6 153/34/6
f 90/214/5 89/210/5 92/187/5 93/186/5
f 59/31/5 134/41/5 90/214/5 60/152/5
f 134/41/5 135/48/5 89/210/5 90/214/5
f 135/48/5 136/47/5 133/211/5 89/210/5
f 73/172/5 137/250/5 132/251/5 9/173/5
f 137/250/5 138/252/5 131/253/5 132/251/5
f 138/252/5 139/221/5 130/223/5 131/253/5
f 72/175/5 140/254/5 137/250/5 73/172/5
f 140/254/5 141/255/5 138/252/5 137/250/5
f 141/255/5 142/219/5 139/221/5 138/252/5
f 71/62/5 143/70/5 140/254/5 72/175/5
f 143/70/5 144/69/5 141/255/5 140/254/5
f 144/69/5 145/216/5 142/219/5 141/255/5
f 85/191/6 146/256/6 105/145/6 29/82/6
f 146/256/6 147/257/6 104/146/6 105/145/6
f 147/257/6 148/213/6 103/147/6 104/146/6
f 84/193/6 149/258/6 146/256/6 85/191/6
f 149/258/6 150/259/6 147/257/6 146/256/6
f 150/259/6 151/209/6 148/213/6 147/257/6
f 83/195/6 152/35/6 149/258/6 84/193/6
f 152/35/6 153/34/6 150/259/6 149/258/6
f 153/34/6 154/206/6 151/209/6 150/259/6
f 87/208/6 86/207/6 218/260/6 215/261/6
f 215/261/6 218/260/6 219/262/6 216/263/6
f 216/263/6 219/262/6 220/202/6 217/199/6
f 88/212/6 87/208/6 215/261/6 212/264/6
f 212/264/6 215/261/6 216/263/6 213/265/6
f 213/265/6 216/263/6 217/199/6 214/198/6
f 32/215/6 88/212/6 212/264/6 173/266/6
f 173/266/6 212/264/6 213/265/6 174/267/6
f 174/267/6 213/265/6 214/198/6 175/268/6
f 75/218/5 74/217/5 209/269/5 206/270/5
f 206/270/5 209/269/5 210/271/5 207/272/5
f 207/272/5 210/271/5 211/91/5 208/168/5
f 76/220/5 75/218/5 206/270/5 203/273/5
f 203/273/5 206/270/5 207/272/5 204/274/5
f 204/274/5 207/272/5 208/168/5 205/165/5
f 10/222/5 76/220/5 203/273/5 155/275/5
f 155/275/5 203/273/5 204/274/5 156/276/5
f 156/276/5 204/274/5 205/165/5 157/164/5
f 63/225/5 62/224/5 200/277/5 197/278/5
f 197/278/5 200/277/5 201/279/5 198/280/5
f 198/280/5 201/279/5 202/14/5 199/155/5
f 64/228/5 63/225/5 197/278/5 194/281/5
f 194/281/5 197/278/5 198/280/5 195/282/5
f 195/282/5 198/280/5 199/155/5 196/153/5
f 38/229/5 64/228/5 194/281/5 182/283/5
f 182/283/5 194/281/5 195/282/5 183/284/5
f 183/284/5 195/282/5 196/153/5 184/97/5
f 51/231/6 50/230/6 191/285/6 188/286/6
f 188/286/6 191/285/6 192/287/6 189/288/6
f 189/288/6 192/287/6 193/125/6 190/122/6
f 52/232/6 51/231/6 188/286/6 185/289/6
f 185/289/6 188/286/6 189/288/6 186/290/6
f 186/290/6 189/288/6 190/122/6 187/121/6
f 16/234/6 52/233/6 185/291/6 158/292/6
f 158/292/6 185/291/6 186/293/6 159/294/6
f 159/294/6 186/293/6 187/118/6 160/117/6
f 39/237/5 38/229/5 182/283/5 179/295/5
f 179/295/5 182/283/5 183/284/5 180/296/5
f 180/296/5 183/284/5 184/97/5 181/95/5
f 40/238/5 39/237/5 179/295/5 176/297/5
f 176/297/5 179/295/5 180/296/5 177/298/5
f 177/298/5 180/296/5 181/95/5 178/92/5
f 74/217/5 40/238/5 176/297/5 209/269/5
f 209/269/5 176/297/5 177/298/5 210/271/5
f 210/271/5 177/298/5 178/92/5 211/91/5
f 33/235/6 32/215/6 173/266/6 170/299/6
f 170/299/6 173/266/6 174/267/6 171/300/6
f 171/300/6 174/267/6 175/268/6 172/301/6
f 34/236/6 33/235/6 170/299/6 167/302/6
f 167/302/6 170/299/6 171/300/6 168/303/6
f 168/303/6 171/300/6 172/301/6 169/304/6
f 50/230/6 34/236/6 167/302/6 191/285/6
f 191/285/6 167/302/6 168/303/6 192/287/6
f 192/287/6 168/303/6 169/304/6 193/125/6
f 1/8/1 2/7/1 161/305/1 157/306/1
f 157/306/1 161/305/1 162/307/1 156/308/1
f 156/308/1 162/307/1 163/43/1 155/42/1
f 86/247/6 11/246/6 163/309/6 218/310/6
f 218/310/6 163/309/6 162/311/6 219/312/6
f 219/312/6 162/311/6 161/19/6 220/18/6
f 62/224/5 13/244/5 166/313/5 200/277/5
f 200/277/5 166/313/5 165/314/5 201/279/5
f 201/279/5 165/314/5 164/15/5 202/14/5
f 13/243/3 16/240/3 158/315/3 166/316/3
f 166/316/3 158/315/3 159/317/3 165/318/3
f 165/318/3 159/317/3 160/10/3 164/9/3
f 78/319/6 77/320/6 284/321/6 281/322/6
f 281/322/6 284/321/6 285/323/6 282/324/6
f 282/324/6 285/323/6 286/194/6 283/192/6
f 79/325/6 78/319/6 281/322/6 278/326/6
f 278/326/6 281/322/6 282/324/6 279/327/6
f 279/327/6 282/324/6 283/192/6 280/190/6
f 20/328/6 79/329/6 278/330/6 248/331/6
f 248/332/6 278/326/6 279/327/6 249/333/6
f 249/333/6 279/327/6 280/190/6 250/81/6
f 66/334/5 65/335/5 275/336/5 272/337/5
f 272/337/5 275/336/5 276/338/5 273/339/5
f 273/339/5 276/338/5 277/59/5 274/174/5
f 67/340/5 66/334/5 272/337/5 269/341/5
f 269/341/5 272/337/5 273/339/5 270/342/5
f 270/342/5 273/339/5 274/174/5 271/171/5
f 3/3/5 67/340/5 269/341/5 227/343/5
f 227/343/5 269/341/5 270/342/5 228/344/5
f 228/344/5 270/342/5 271/171/5 229/170/5
f 54/345/5 53/346/5 266/347/5 263/348/5
f 263/348/5 266/347/5 267/349/5 264/350/5
f 264/350/5 267/349/5 268/28/5 265/151/5
f 55/351/5 54/345/5 263/348/5 260/352/5
f 260/352/5 263/348/5 264/350/5 261/353/5
f 261/353/5 264/350/5 265/151/5 262/149/5
f 17/43/5 55/351/5 260/352/5 239/354/5
f 239/354/5 260/352/5 261/353/5 240/355/5
f 240/355/5 261/353/5 262/149/5 241/65/5
f 42/356/6 41/357/6 257/358/6 254/359/6
f 254/359/6 257/358/6 258/360/6 255/361/6
f 255/361/6 258/360/6 259/75/6 256/132/6
f 43/362/6 42/356/6 254/359/6 251/363/6
f 251/363/6 254/359/6 255/361/6 252/364/6
f 252/364/6 255/361/6 256/132/6 253/131/6
f 8/365/6 43/366/6 251/367/6 230/368/6
f 230/368/6 251/367/6 252/369/6 231/370/6
f 231/370/6 252/369/6 253/128/6 232/127/6
f 21/371/6 20/372/6 248/373/6 245/374/6
f 245/375/6 248/332/6 249/333/6 246/376/6
f 246/376/6 249/333/6 250/81/6 247/79/6
f 22/377/6 21/378/6 245/379/6 242/380/6
f 242/381/6 245/375/6 246/376/6 243/382/6
f 243/382/6 246/376/6 247/79/6 244/76/6
f 41/383/6 22/377/6 242/380/6 257/384/6
f 257/358/6 242/381/6 243/382/6 258/360/6
f 258/360/6 243/382/6 244/76/6 259/75/6
f 18/385/5 17/43/5 239/354/5 236/386/5
f 236/386/5 239/354/5 240/355/5 237/387/5
f 237/387/5 240/355/5 241/65/5 238/63/5
f 19/388/5 18/385/5 236/386/5 233/389/5
f 233/389/5 236/386/5 237/387/5 234/390/5
f 234/390/5 237/387/5 238/63/5 235/60/5
f 65/335/5 19/388/5 233/389/5 275/336/5
f 275/336/5 233/389/5 234/390/5 276/338/5
f 276/338/5 234/390/5 235/60/5 277/59/5
f 7/13/3 8/8/3 230/391/3 226/392/3
f 226/392/3 230/391/3 231/393/3 225/394/3
f 225/394/3 231/393/3 232/37/3 224/36/3
f 53/346/5 7/7/5 226/395/5 266/347/5
f 266/347/5 226/395/5 225/396/5 267/349/5
f 267/349/5 225/396/5 224/29/5 268/28/5
f 77/397/6 4/398/6 223/399/6 284/400/6
f 284/400/6 223/399/6 222/401/6 285/402/6
f 285/402/6 222/401/6 221/23/6 286/22/6
f 9/240/1 12/239/1 221/388/1 229/403/1
f 229/403/1 221/388/1 222/404/1 228/317/1
f 228/317/1 222/404/1 223/2/1 227/1/1
