# Blender 4.5.1 LTS
# www.blender.org
mtllib Dungeon_Road_Building_01.mtl
o Dungeon_Road_Building_01
v 1.705892 0.000000 6.278308
v 1.705892 10.026534 6.278308
v 1.705893 0.000000 13.910315
v 1.705893 10.026534 13.910315
v 0.000002 0.000000 6.278308
v 0.000002 10.026534 6.278308
v 0.000002 0.000000 13.910316
v 0.000002 10.026534 13.910316
v 0.831169 0.000000 -0.000001
v 0.831169 10.026534 -0.000001
v 0.831171 0.000000 5.993211
v 0.831171 10.026534 5.993211
v -0.000000 0.000000 -0.000000
v -0.000000 10.026534 -0.000000
v 0.000002 0.000000 5.993212
v 0.000002 10.026534 5.993212
v 1.705892 6.380522 6.278308
v 1.705893 6.380522 13.910315
v 0.000002 6.380522 13.910316
v 0.000002 6.380522 6.278308
v 1.705893 3.684958 13.910315
v 0.000002 3.684958 13.910316
v 0.000002 3.684958 6.278308
v 1.705892 3.684958 6.278308
v 1.705892 0.000000 12.690683
v 1.705892 0.000000 7.543532
v 1.705892 10.026534 7.543532
v 1.705892 10.026534 12.690683
v 0.000002 0.000000 7.543532
v 0.000002 0.000000 12.690684
v 0.000002 10.026534 12.690684
v 0.000002 10.026534 7.543532
v 0.000002 6.380522 12.690684
v 0.000002 6.380522 7.543532
v 1.705892 6.380522 7.543532
v 1.705892 6.380522 12.690683
v 1.705892 3.684958 7.543532
v 1.705892 3.684958 12.690683
v 0.000002 3.684958 12.690684
v 0.000002 3.684958 7.543532
v 1.427408 0.000000 12.690684
v 1.427408 0.000000 7.543532
v 1.427408 3.684958 7.543532
v 1.427408 3.684958 12.690684
v 0.831169 3.684958 -0.000001
v 0.831171 3.684958 5.993211
v 0.000002 3.684958 5.993212
v -0.000000 3.684958 -0.000000
v 0.831170 0.000000 5.132612
v 0.831169 0.000000 0.759337
v 0.831169 10.026534 0.759337
v 0.831170 10.026534 5.132612
v 0.000000 0.000000 0.759337
v 0.000001 0.000000 5.132613
v 0.000001 10.026534 5.132613
v 0.000000 10.026534 0.759337
v 0.000001 3.684958 5.132613
v 0.000000 3.684958 0.759337
v 0.831169 3.684958 0.759337
v 0.831170 3.684958 5.132612
v 0.497602 0.000000 5.132613
v 0.497601 0.000000 0.759337
v 0.497601 3.684958 0.759337
v 0.497602 3.684958 5.132613
v 0.831169 4.683964 -0.000001
v 0.831171 4.683964 5.993211
v 0.000002 4.683964 5.993212
v -0.000000 4.683964 -0.000000
v 0.000001 4.683964 5.132613
v 0.000000 4.683964 0.759337
v 0.831169 4.683964 0.759337
v 0.831170 4.683964 5.132612
v 0.831169 3.684958 0.759337
v 0.831170 3.684958 5.132612
v 0.831169 4.683964 0.759337
v 0.831170 4.683964 5.132612
v 2.289702 3.684958 0.759337
v 2.289703 3.684958 5.132612
v 1.086530 4.683964 0.759337
v 2.289702 4.202695 0.759337
v 1.458330 4.660408 0.759337
v 1.793736 4.592049 0.759337
v 2.059916 4.485578 0.759337
v 2.230814 4.351415 0.759337
v 2.289703 4.202695 5.132612
v 1.086531 4.683964 5.132612
v 2.230816 4.351415 5.132612
v 2.059918 4.485578 5.132612
v 1.793738 4.592049 5.132612
v 1.458332 4.660408 5.132612
v 2.473098 6.380522 6.278307
v 2.473098 10.026534 6.278307
v 2.473098 10.026534 12.690683
v 2.473098 10.026534 13.910315
v 2.473098 6.380522 13.910315
v 2.473098 6.380522 12.690683
v 2.473098 10.026534 7.543531
v 2.473098 6.380522 7.543531
v 0.831169 5.612925 -0.000001
v 0.831171 5.612925 5.993211
v 0.000002 5.612925 5.993212
v -0.000000 5.612925 -0.000000
v 0.000001 5.612925 5.132613
v 0.000000 5.612925 0.759337
v 0.831169 5.612925 0.759337
v 0.831170 5.612925 5.132612
v 1.219918 5.612925 -0.000001
v 1.219918 10.026534 -0.000001
v 1.219919 10.026534 5.132612
v 1.219919 10.026534 5.993211
v 1.219918 10.026534 0.759337
v 1.219919 5.612925 5.993211
v 1.219918 5.612925 0.759337
v 1.219919 5.612925 5.132612
v 0.831169 6.623677 -0.000001
v 0.831169 8.432300 -0.000001
v 0.831171 8.432300 5.993211
v 0.831171 6.623677 5.993211
v 0.000002 8.432300 5.993212
v 0.000002 6.623677 5.993212
v 0.000000 8.432300 -0.000000
v 0.000000 6.623677 -0.000000
v 0.000002 8.432300 5.132613
v 0.000002 6.623677 5.132613
v 0.000000 8.432300 0.759337
v 0.000000 6.623677 0.759337
v 1.219918 6.623677 -0.000001
v 1.219918 8.432300 -0.000001
v 1.219919 8.432300 5.993211
v 1.219919 6.623677 5.993211
v 1.219918 8.432300 0.759337
v 1.219918 6.623677 0.759337
v 1.219919 8.432300 5.132612
v 1.219919 6.623677 5.132612
v 0.891782 8.432300 0.759337
v 0.891782 6.623677 0.759337
v 0.891783 8.432300 5.132612
v 0.891783 6.623677 5.132612
vn -0.0000 -1.0000 -0.0000
vn -0.0000 -0.0000 1.0000
vn -1.0000 -0.0000 -0.0000
vn -0.0000 -0.0000 -1.0000
vn -0.0000 1.0000 -0.0000
vn 1.0000 -0.0000 -0.0000
vn 0.0632 0.9980 -0.0000
vn 0.1997 0.9799 -0.0000
vn 0.3714 0.9285 -0.0000
vn 0.6175 0.7866 -0.0000
vn 0.9298 0.3682 -0.0000
vt 0.451498 0.958511
vt 0.451498 0.953107
vt 0.455824 0.953107
vt 0.455824 0.958511
vt 0.419921 0.931058
vt 0.419921 0.903430
vt 0.429540 0.903430
vt 0.429540 0.931058
vt 0.413124 0.931058
vt 0.413124 0.903430
vt 0.415595 0.903430
vt 0.415595 0.931058
vt 0.439158 0.903430
vt 0.439158 0.931058
vt 0.046297 0.950562
vt 0.046297 0.940943
vt 0.047626 0.940943
vt 0.047626 0.950562
vt 0.475406 0.982657
vt 0.475406 0.981564
vt 0.479105 0.981564
vt 0.479105 0.982657
vt 0.421707 0.915122
vt 0.421707 0.900511
vt 0.429617 0.900511
vt 0.429617 0.915122
vt 0.415504 0.915122
vt 0.415504 0.900511
vt 0.418007 0.900511
vt 0.418007 0.915122
vt 0.437527 0.900511
vt 0.437527 0.915122
vt 0.069047 0.939154
vt 0.061136 0.939154
vt 0.061136 0.938189
vt 0.069047 0.938189
vt 0.429540 0.951483
vt 0.439158 0.951483
vt 0.413124 0.951483
vt 0.415595 0.951483
vt 0.419921 0.951483
vt 0.456010 0.923856
vt 0.456010 0.903430
vt 0.458392 0.903430
vt 0.458392 0.923856
vt 0.456010 0.951778
vt 0.458392 0.951778
vt 0.419921 0.979406
vt 0.429540 0.979406
vt 0.413124 0.979406
vt 0.415595 0.979406
vt 0.439158 0.979406
vt 0.400687 0.979406
vt 0.400687 0.951483
vt 0.403070 0.951483
vt 0.403070 0.979406
vt 0.443484 0.951778
vt 0.443484 0.923856
vt 0.445955 0.923856
vt 0.445955 0.951778
vt 0.457394 0.951778
vt 0.457394 0.957183
vt 0.455824 0.957183
vt 0.455824 0.951778
vt 0.443484 0.903430
vt 0.445955 0.903430
vt 0.400687 0.931058
vt 0.403070 0.931058
vt 0.039612 0.950562
vt 0.039612 0.940943
vt 0.040892 0.940943
vt 0.040892 0.950562
vt 0.400687 0.903430
vt 0.403070 0.903430
vt 0.046297 0.936618
vt 0.047626 0.936618
vt 0.443484 0.931058
vt 0.200580 0.958697
vt 0.200580 0.930774
vt 0.210634 0.930774
vt 0.210634 0.958697
vt 0.470017 0.931353
vt 0.470017 0.903430
vt 0.471587 0.903430
vt 0.471587 0.931353
vt 0.468446 0.931353
vt 0.468446 0.903430
vt 0.429617 0.992402
vt 0.429617 0.958630
vt 0.437527 0.958630
vt 0.437527 0.992402
vt 0.415504 0.992402
vt 0.415504 0.958630
vt 0.418007 0.958630
vt 0.418007 0.992402
vt 0.421707 0.992402
vt 0.421707 0.958630
vt 0.458149 0.951952
vt 0.458149 0.918181
vt 0.460987 0.918181
vt 0.460987 0.951952
vt 0.441227 0.951952
vt 0.441227 0.918181
vt 0.443731 0.918181
vt 0.443731 0.951952
vt 0.398248 0.992402
vt 0.398248 0.958630
vt 0.401085 0.958630
vt 0.401085 0.992402
vt 0.069047 0.945801
vt 0.061136 0.945801
vt 0.061136 0.944708
vt 0.069047 0.944708
vt 0.398248 0.915122
vt 0.398248 0.900511
vt 0.401085 0.900511
vt 0.401085 0.915122
vt 0.057437 0.945801
vt 0.057437 0.944708
vt 0.475406 0.976010
vt 0.479105 0.976010
vt 0.162159 0.934283
vt 0.162159 0.900511
vt 0.176577 0.900511
vt 0.176577 0.934283
vt 0.460987 0.984630
vt 0.460987 0.950858
vt 0.464161 0.950858
vt 0.464161 0.984630
vt 0.478580 0.900511
vt 0.478580 0.934283
vt 0.475406 0.934283
vt 0.475406 0.900511
vt 0.478580 0.982657
vt 0.478580 0.988211
vt 0.475406 0.988211
vt 0.443731 0.909025
vt 0.458149 0.909025
vt 0.441227 0.909025
vt 0.401085 0.949474
vt 0.415504 0.949474
vt 0.398248 0.949474
vt 0.429617 0.949474
vt 0.437527 0.949474
vt 0.418007 0.949474
vt 0.421707 0.949474
vt 0.460987 0.909025
vt 0.319319 0.901842
vt 0.313956 0.901842
vt 0.320859 0.901842
vt 0.324303 0.901842
vt 0.324303 0.974741
vt 0.324122 0.974741
vt 0.324122 0.901842
vt 0.323595 0.974741
vt 0.323595 0.901842
vt 0.322248 0.974741
vt 0.322248 0.901842
vt 0.320859 0.974741
vt 0.319319 0.974741
vt 0.313956 0.974741
vt 0.324303 0.901842
vt 0.324303 0.974741
vt 0.470918 0.958980
vt 0.470918 0.931353
vt 0.473300 0.931353
vt 0.473300 0.958980
vt 0.458392 0.958980
vt 0.458392 0.931353
vt 0.460864 0.931353
vt 0.460864 0.958980
vt 0.039612 0.936618
vt 0.040892 0.936618
vt 0.451498 0.959792
vt 0.455824 0.959792
vt 0.451498 0.951778
vt 0.443731 0.900511
vt 0.458149 0.900511
vt 0.441227 0.900511
vt 0.401085 0.940961
vt 0.415504 0.940961
vt 0.398248 0.940961
vt 0.429617 0.940961
vt 0.437527 0.940961
vt 0.418007 0.940961
vt 0.421707 0.940961
vt 0.460987 0.900511
vt 0.458149 0.966563
vt 0.460987 0.966563
vt 0.441227 0.966563
vt 0.443731 0.966563
vt 0.057437 0.939154
vt 0.475406 0.975045
vt 0.479105 0.975045
vt 0.441227 0.915122
vt 0.421707 0.931698
vt 0.418007 0.931698
vt 0.057437 0.938189
vt 0.437527 0.931698
vt 0.441227 0.931698
vt 0.441227 0.940961
vt 0.443731 0.992402
vt 0.443731 0.983138
vt 0.458149 0.983138
vt 0.458149 0.992402
vt 0.475406 0.958470
vt 0.475406 0.941894
vt 0.478528 0.941894
vt 0.478528 0.958470
vt 0.441227 0.992402
vt 0.441227 0.983138
vt 0.460987 0.983138
vt 0.460987 0.992402
vt 0.401085 0.931698
vt 0.415504 0.931698
vt 0.398248 0.931698
vt 0.429617 0.931698
vt 0.650111 0.953959
vt 0.650111 0.937383
vt 0.664529 0.937383
vt 0.664529 0.953959
vt 0.487015 0.906065
vt 0.487015 0.900511
vt 0.490138 0.900511
vt 0.490138 0.906065
vt 0.490138 0.906065
vt 0.490138 0.911619
vt 0.487015 0.911619
vt 0.487015 0.906065
vt 0.478528 0.975045
s 0
usemtl M_General
f 36/1/1 35/2/1 98/3/1 96/4/1
f 18/5/2 4/6/2 8/7/2 19/8/2
f 34/9/3 32/10/3 6/11/3 20/12/3
f 20/8/4 6/7/4 2/13/4 17/14/4
f 32/15/5 27/16/5 2/17/5 6/18/5
f 23/37/4 20/8/4 17/14/4 24/38/4
f 40/39/3 34/9/3 20/12/3 23/40/3
f 21/41/2 18/5/2 19/8/2 22/37/2
f 38/42/6 36/43/6 18/44/6 21/45/6
f 25/46/6 38/42/6 21/45/6 3/47/6
f 3/48/2 21/41/2 22/37/2 7/49/2
f 29/50/3 40/39/3 23/40/3 5/51/3
f 5/49/4 23/37/4 24/38/4 1/52/4
f 7/53/3 22/54/3 39/55/3 30/56/3
f 30/56/3 39/55/3 40/39/3 29/50/3
f 1/57/6 24/58/6 37/59/6 26/60/6
f 37/61/1 38/62/1 44/63/1 43/64/1
f 24/58/6 17/65/6 35/66/6 37/59/6
f 37/59/6 35/66/6 36/43/6 38/42/6
f 22/54/3 19/67/3 33/68/3 39/55/3
f 39/55/3 33/68/3 34/9/3 40/39/3
f 8/69/5 4/70/5 28/71/5 31/72/5
f 31/72/5 28/71/5 27/16/5 32/15/5
f 19/67/3 8/73/3 31/74/3 33/68/3
f 33/68/3 31/74/3 32/10/3 34/9/3
f 2/17/5 27/16/5 97/75/5 92/76/5
f 17/14/4 2/13/4 92/65/4 91/77/4
f 42/78/6 43/79/6 44/80/6 41/81/6
f 26/82/2 37/83/2 43/84/2 42/85/2
f 38/83/4 25/82/4 41/86/4 44/87/4
f 96/164/6 93/165/6 94/166/6 95/167/6
f 91/168/6 92/169/6 97/170/6 98/171/6
f 98/171/6 97/170/6 93/165/6 96/164/6
f 28/71/5 4/70/5 94/172/5 93/173/5
f 27/16/5 28/71/5 93/173/5 97/75/5
f 18/174/1 36/1/1 96/4/1 95/175/1
f 35/2/1 17/176/1 91/64/1 98/3/1
f 4/6/2 18/5/2 95/12/2 94/11/2
usemtl M_General
f 100/19/1 106/20/1 114/21/1 112/22/1
f 117/23/2 12/24/2 16/25/2 119/26/2
f 125/27/3 56/28/3 14/29/3 121/30/3
f 121/26/4 14/25/4 10/31/4 116/32/4
f 56/33/5 51/34/5 10/35/5 14/36/5
f 13/88/4 48/89/4 45/90/4 9/91/4
f 53/92/3 58/93/3 48/94/3 13/95/3
f 11/96/2 46/97/2 47/89/2 15/88/2
f 49/98/6 60/99/6 46/100/6 11/101/6
f 9/102/6 45/103/6 59/104/6 50/105/6
f 15/106/3 47/107/3 57/108/3 54/109/3
f 54/109/3 57/108/3 58/93/3 53/92/3
f 16/110/5 12/111/5 52/112/5 55/113/5
f 55/113/5 52/112/5 51/34/5 56/33/5
f 119/114/3 16/115/3 55/116/3 123/117/3
f 123/117/3 55/116/3 56/28/3 125/27/3
f 52/112/5 12/111/5 110/118/5 109/119/5
f 106/20/1 105/120/1 113/121/1 114/21/1
f 62/122/6 63/123/6 64/124/6 61/125/6
f 50/126/2 59/127/2 63/128/2 62/129/2
f 60/130/4 49/131/4 61/132/4 64/133/4
f 59/134/1 60/135/1 64/136/1 63/19/1
f 59/104/6 71/137/6 72/138/6 60/99/6
f 45/103/6 65/139/6 71/137/6 59/104/6
f 57/108/3 69/140/3 70/141/3 58/93/3
f 47/107/3 67/142/3 69/140/3 57/108/3
f 48/89/4 68/143/4 65/144/4 45/90/4
f 58/93/3 70/141/3 68/145/3 48/94/3
f 46/97/2 66/146/2 67/143/2 47/89/2
f 60/99/6 72/138/6 66/147/6 46/100/6
f 80/148/4 73/149/4 84/150/4
f 79/151/7 86/152/7 90/153/7 81/154/7
f 81/154/8 90/153/8 89/155/8 82/156/8
f 82/156/9 89/155/9 88/157/9 83/158/9
f 83/158/10 88/157/10 87/159/10 84/150/10
f 84/150/11 87/159/11 85/160/11 80/148/11
f 73/149/4 80/148/4 77/149/4
f 77/149/6 80/148/6 85/160/6 78/161/6
f 75/162/5 76/163/5 86/152/5 79/151/5
f 76/163/2 74/161/2 86/152/2
f 84/150/4 73/149/4 83/158/4
f 83/158/4 73/149/4 82/156/4
f 82/156/4 73/149/4 81/154/4
f 81/154/4 73/149/4 79/151/4
f 79/151/4 73/149/4 75/162/4
f 86/152/2 74/161/2 90/153/2
f 90/153/2 74/161/2 89/155/2
f 89/155/2 74/161/2 88/157/2
f 88/157/2 74/161/2 87/159/2
f 87/159/2 74/161/2 85/160/2
f 85/160/2 74/161/2 78/161/2
f 71/137/6 105/177/6 106/178/6 72/138/6
f 65/139/6 99/179/6 105/177/6 71/137/6
f 69/140/3 103/180/3 104/181/3 70/141/3
f 67/142/3 101/182/3 103/180/3 69/140/3
f 68/143/4 102/183/4 99/184/4 65/144/4
f 70/141/3 104/181/3 102/185/3 68/145/3
f 66/146/2 100/186/2 101/183/2 67/143/2
f 72/138/6 106/178/6 100/187/6 66/147/6
f 133/188/6 109/98/6 110/101/6 129/189/6
f 128/190/6 108/102/6 111/105/6 131/191/6
f 131/191/6 111/105/6 109/98/6 133/188/6
f 51/34/5 52/112/5 109/119/5 111/192/5
f 105/120/1 99/193/1 107/194/1 113/121/1
f 116/32/4 10/31/4 108/179/4 128/195/4
f 118/196/2 100/186/2 112/185/2 130/197/2
f 10/35/5 51/34/5 111/192/5 108/198/5
f 12/24/2 117/23/2 129/30/2 110/29/2
f 117/23/2 118/196/2 130/197/2 129/30/2
f 99/184/4 115/199/4 127/200/4 107/201/4
f 115/199/4 116/32/4 128/195/4 127/200/4
f 113/202/6 132/203/6 134/204/6 114/205/6
f 132/206/2 131/207/2 135/208/2 136/209/2
f 107/210/6 127/211/6 132/203/6 113/202/6
f 127/211/6 128/190/6 131/191/6 132/203/6
f 114/205/6 134/204/6 130/212/6 112/213/6
f 134/204/6 133/188/6 129/189/6 130/212/6
f 103/180/3 124/214/3 126/215/3 104/181/3
f 124/214/3 123/117/3 125/27/3 126/215/3
f 101/182/3 120/216/3 124/214/3 103/180/3
f 120/216/3 119/114/3 123/117/3 124/214/3
f 102/183/4 122/217/4 115/199/4 99/184/4
f 122/217/4 121/26/4 116/32/4 115/199/4
f 104/181/3 126/215/3 122/197/3 102/185/3
f 126/215/3 125/27/3 121/30/3 122/197/3
f 100/186/2 118/196/2 120/217/2 101/183/2
f 118/196/2 117/23/2 119/26/2 120/217/2
f 136/218/6 135/219/6 137/220/6 138/221/6
f 134/222/5 132/223/5 136/224/5 138/225/5
f 131/226/1 133/227/1 137/228/1 135/229/1
f 133/209/4 134/230/4 138/193/4 137/206/4
