# Blender 4.5.1 LTS
# www.blender.org
mtllib Dungeon_Road_10x10.mtl
o Dungeon_Road_10x10
v -2.500000 -2.000000 5.000000
v -2.500000 0.000000 5.000000
v -2.500000 -2.000000 -5.000000
v -2.500000 0.000000 -5.000000
v 2.500000 -2.000000 5.000000
v 2.500000 0.000000 5.000000
v 2.500000 -2.000000 -5.000000
v 2.500000 0.000000 -5.000000
v -5.000000 -2.000000 -5.000000
v -5.000000 -2.000000 5.000000
v -5.000000 0.000000 5.000000
v -5.000000 0.000000 -5.000000
v 0.000000 -2.000000 -5.000000
v 0.000000 0.000000 -5.000000
v 0.000000 -2.000000 5.000000
v 0.000000 0.000000 5.000000
v 5.000000 0.000000 -5.000000
v 5.000000 -2.000000 -5.000000
v 5.000000 -2.000000 5.000000
v 5.000000 0.000000 5.000000
vn -0.0000 -0.0000 -1.0000
vn -0.0000 1.0000 -0.0000
vn -0.0000 -0.0000 1.0000
vn -0.0000 -1.0000 -0.0000
vn -1.0000 -0.0000 -0.0000
vn 1.0000 -0.0000 -0.0000
vt 0.526079 0.931274
vt 0.550032 0.931274
vt 0.550032 0.940256
vt 0.526079 0.940256
vt 0.550032 0.922292
vt 0.526079 0.922292
vt 0.526079 0.913309
vt 0.550032 0.913309
vt 0.451155 0.921857
vt 0.407928 0.921857
vt 0.407928 0.905647
vt 0.451155 0.905647
vt 0.573984 0.922292
vt 0.573984 0.913309
vt 0.573984 0.958220
vt 0.573984 0.967202
vt 0.550032 0.967202
vt 0.550032 0.958220
vt 0.847341 0.940528
vt 0.847341 0.956738
vt 0.804114 0.956738
vt 0.804114 0.940528
vt 0.597936 0.922292
vt 0.573984 0.904327
vt 0.597936 0.904327
vt 0.550032 0.904327
vt 0.407928 0.954277
vt 0.451155 0.954277
vt 0.451155 0.970488
vt 0.407928 0.970488
vt 0.573984 0.949238
vt 0.550032 0.949238
vt 0.573984 0.940256
vt 0.847341 0.924318
vt 0.804114 0.924318
vt 0.573984 0.931274
vt 0.597936 0.940256
vt 0.526079 0.904327
vt 0.573984 0.976184
vt 0.550032 0.976184
s 0
usemtl M_General
f 4/1/1 3/2/1 9/3/1 12/4/1
f 13/5/1 14/6/1 8/7/1 7/8/1
f 8/9/2 6/10/2 20/11/2 17/12/2
f 15/13/3 16/5/3 2/8/3 1/14/3
f 13/15/4 7/16/4 5/17/4 15/18/4
f 14/19/2 4/20/2 2/21/2 16/22/2
f 10/23/5 11/13/5 12/24/5 9/25/5
f 1/14/3 2/8/3 11/26/3 10/24/3
f 2/27/2 4/28/2 12/29/2 11/30/2
f 3/31/4 1/32/4 10/3/4 9/33/4
f 8/34/2 14/19/2 16/22/2 6/35/2
f 3/31/4 13/15/4 15/18/4 1/32/4
f 5/36/3 6/2/3 16/5/3 15/13/3
f 3/2/1 4/1/1 14/6/1 13/5/1
f 18/37/6 17/33/6 20/13/6 19/23/6
f 7/8/1 8/7/1 17/38/1 18/26/1
f 6/2/3 5/36/3 19/33/3 20/3/3
f 5/17/4 7/16/4 18/39/4 19/40/4
