# Blender 4.5.1 LTS
# www.blender.org
mtllib Dungeon_RoadCross_2x2.mtl
o Dungeon_RoadCross_2x2
v 0.800000 -1.000000 -1.000000
v 0.800000 0.000000 -1.000000
v 0.800000 -1.000000 1.000000
v 0.800000 0.000000 1.000000
v -0.800000 -1.000000 -1.000000
v -0.800000 0.000000 -1.000000
v -0.800000 -1.000000 1.000000
v -0.800000 0.000000 1.000000
v -0.700000 -1.000000 1.000000
v 0.000000 -1.000000 1.000000
v 0.700000 -1.000000 1.000000
v 0.700000 0.000000 1.000000
v 0.000000 0.000000 1.000000
v -0.700000 0.000000 1.000000
v 0.700000 -1.000000 -1.000000
v -0.000000 -1.000000 -1.000000
v -0.700000 -1.000000 -1.000000
v -0.700000 0.000000 -1.000000
v -0.000000 0.000000 -1.000000
v 0.700000 0.000000 -1.000000
v 0.800000 0.200000 -1.000000
v 0.800000 0.200000 1.000000
v -0.700000 0.200000 1.000000
v -0.800000 0.200000 1.000000
v -0.800000 0.200000 -1.000000
v 0.700000 0.200000 -1.000000
v 0.700000 0.200000 1.000000
v -0.700000 0.200000 -1.000000
v 0.800000 -1.000000 0.800000
v 0.800000 0.000000 0.800000
v -0.800000 0.000000 0.800000
v -0.700000 0.000000 0.800000
v 0.000000 0.000000 0.800000
v 0.700000 0.000000 0.800000
v 0.700000 -1.000000 0.800000
v 0.000000 -1.000000 0.800000
v -0.700000 -1.000000 0.800000
v 0.800000 0.200000 0.800000
v -0.700000 0.200000 0.800000
v 0.700000 0.200000 0.800000
v 0.800000 -1.000000 -0.800000
v -0.800000 0.000000 -0.800000
v -0.700000 0.000000 -0.800000
v -0.000000 0.000000 -0.800000
v 0.700000 0.000000 -0.800000
v 0.700000 -1.000000 -0.800000
v -0.000000 -1.000000 -0.800000
v -0.700000 -1.000000 -0.800000
v -0.700000 0.200000 -0.800000
v 0.700000 0.200000 -0.800000
v 0.800000 0.000000 -0.800000
v 0.800000 0.200000 -0.800000
v 1.000000 -1.000000 0.800000
v 1.000000 0.000000 0.800000
v -1.000000 -1.000000 0.800000
v -1.000000 0.000000 0.800000
v 1.000000 -1.000000 -0.800000
v 1.000000 0.000000 -0.800000
v -1.000000 -1.000000 -0.800000
v -1.000000 0.000000 -0.800000
v -1.000000 -1.000000 -0.700000
v -1.000000 -1.000000 0.000000
v -1.000000 -1.000000 0.700000
v -1.000000 0.000000 0.700000
v -1.000000 0.000000 0.000000
v -1.000000 0.000000 -0.700000
v 1.000000 -1.000000 0.700000
v 1.000000 -1.000000 0.000000
v 1.000000 -1.000000 -0.700000
v 1.000000 0.000000 -0.700000
v 1.000000 0.000000 0.000000
v 1.000000 0.000000 0.700000
v 1.000000 0.200000 0.800000
v -1.000000 0.200000 0.800000
v -1.000000 0.200000 -0.700000
v -1.000000 0.200000 -0.800000
v 1.000000 0.200000 -0.800000
v 1.000000 0.200000 0.700000
v -1.000000 0.200000 0.700000
v 1.000000 0.200000 -0.700000
v -0.800000 -1.000000 0.800000
v -0.800000 -1.000000 -0.800000
v -0.800000 0.000000 -0.700000
v -0.800000 0.000000 0.000000
v -0.800000 0.000000 0.700000
v -0.800000 -1.000000 0.700000
v -0.800000 -1.000000 0.000000
v -0.800000 -1.000000 -0.700000
v -0.800000 0.200000 0.800000
v -0.800000 0.200000 -0.800000
v -0.800000 0.200000 -0.700000
v -0.800000 0.200000 0.700000
v 0.800000 0.000000 -0.700000
v 0.800000 0.000000 0.000000
v 0.800000 0.000000 0.700000
v 0.800000 -1.000000 0.700000
v 0.800000 -1.000000 0.000000
v 0.800000 -1.000000 -0.700000
v 0.800000 0.200000 -0.700000
v 0.800000 0.200000 0.700000
v 0.000000 -1.000000 -0.700000
v 0.000000 -1.000000 0.000000
v 0.000000 -1.000000 0.700000
v -0.700000 -1.000000 -0.700000
v -0.700000 -1.000000 0.000000
v -0.700000 -1.000000 0.700000
v 0.700000 -1.000000 -0.700000
v 0.700000 -1.000000 0.000000
v 0.700000 -1.000000 0.700000
v 0.000000 0.000000 0.000000
v 0.000000 0.000000 -0.700000
v 0.000000 0.000000 0.700000
v -0.700000 0.000000 0.000000
v -0.700000 0.000000 0.700000
v 0.700000 0.000000 0.000000
v -0.700000 0.000000 -0.700000
v -0.700000 0.200000 -0.700000
v 0.700000 0.000000 -0.700000
v 0.700000 0.200000 -0.700000
v 0.700000 0.000000 0.700000
v 0.700000 0.200000 0.700000
v -0.700000 0.200000 0.700000
vn 1.0000 -0.0000 -0.0000
vn -0.0000 -0.0000 1.0000
vn -1.0000 -0.0000 -0.0000
vn -0.0000 -0.0000 -1.0000
vn -0.0000 -1.0000 -0.0000
vn -0.0000 1.0000 -0.0000
vt 0.375000 0.125000
vt 0.625000 0.125000
vt 0.625000 0.250000
vt 0.375000 0.250000
vt 0.375000 0.437500
vt 0.625000 0.437500
vt 0.625000 0.500000
vt 0.375000 0.500000
vt 0.375000 0.687500
vt 0.625000 0.687500
vt 0.625000 0.750000
vt 0.375000 0.750000
vt 0.375000 0.937500
vt 0.625000 0.937500
vt 0.625000 1.000000
vt 0.375000 1.000000
vt 0.312500 0.687500
vt 0.312500 0.750000
vt 0.625000 0.312500
vt 0.812500 0.625000
vt 0.812500 0.500000
vt 0.687500 0.687500
vt 0.750000 0.687500
vt 0.750000 0.750000
vt 0.687500 0.750000
vt 0.812500 0.687500
vt 0.812500 0.750000
vt 0.125000 0.687500
vt 0.187500 0.687500
vt 0.187500 0.750000
vt 0.125000 0.750000
vt 0.250000 0.687500
vt 0.250000 0.750000
vt 0.625000 0.812500
vt 0.375000 0.812500
vt 0.625000 0.875000
vt 0.375000 0.875000
vt 0.375000 0.312500
vt 0.625000 0.375000
vt 0.375000 0.375000
vt 0.875000 0.687500
vt 0.875000 0.750000
vt 0.625000 0.062500
vt 0.625000 0.000000
vt 0.625000 0.625000
vt 0.687500 0.500000
vt 0.687500 0.625000
vt 0.875000 0.500000
vt 0.875000 0.625000
vt 0.250000 0.500000
vt 0.312500 0.500000
vt 0.312500 0.625000
vt 0.250000 0.625000
vt 0.187500 0.500000
vt 0.187500 0.625000
vt 0.125000 0.500000
vt 0.125000 0.625000
vt 0.750000 0.500000
vt 0.750000 0.625000
vt 0.375000 0.625000
vt 0.375000 0.000000
vt 0.375000 0.062500
vt 0.250000 0.683594
vt 0.312500 0.683594
vt 0.187500 0.683594
vt 0.187500 0.628906
vt 0.250000 0.628906
vt 0.250000 0.656250
vt 0.187500 0.656250
vt 0.312500 0.628906
vt 0.312500 0.656250
vt 0.687500 0.683594
vt 0.750000 0.683594
vt 0.812500 0.683594
vt 0.750000 0.628906
vt 0.812500 0.628906
vt 0.812500 0.656250
vt 0.750000 0.656250
vt 0.687500 0.628906
vt 0.687500 0.656250
s 0
f 29/1/1 30/2/1 4/3/1 3/4/1
f 9/5/2 14/6/2 8/7/2 7/8/2
f 82/9/3 42/10/3 6/11/3 5/12/3
f 15/13/4 20/14/4 2/15/4 1/16/4
f 48/17/5 82/9/5 5/12/5 17/18/5
f 12/19/2 4/3/2 22/3/2 27/19/2
f 34/20/3 12/21/3 27/21/3 40/20/3
f 43/22/6 44/23/6 19/24/6 18/25/6
f 44/23/6 45/26/6 20/27/6 19/24/6
f 41/28/5 46/29/5 15/30/5 1/31/5
f 46/29/5 47/32/5 16/33/5 15/30/5
f 47/32/5 48/17/5 17/18/5 16/33/5
f 5/12/4 6/11/4 18/34/4 17/35/4
f 17/35/4 18/34/4 19/36/4 16/37/4
f 16/37/4 19/36/4 20/14/4 15/13/4
f 3/4/2 4/3/2 12/19/2 11/38/2
f 11/38/2 12/19/2 13/39/2 10/40/2
f 10/40/2 13/39/2 14/6/2 9/5/2
f 50/26/6 52/41/6 21/42/6 26/27/6
f 90/10/6 49/22/6 28/25/6 25/11/6
f 43/22/1 18/25/1 28/25/1 49/22/1
f 51/43/1 2/44/1 21/44/1 52/43/1
f 2/15/4 20/14/4 26/14/4 21/15/4
f 8/7/2 14/6/2 23/6/2 24/7/2
f 18/34/4 6/11/4 25/11/4 28/34/4
f 31/45/3 8/7/3 24/7/3 89/45/3
f 4/3/1 30/2/1 38/2/1 22/3/1
f 14/46/1 32/47/1 39/47/1 23/46/1
f 24/7/6 23/46/6 39/47/6 89/45/6
f 27/21/6 22/48/6 38/49/6 40/20/6
f 10/50/5 9/51/5 37/52/5 36/53/5
f 11/54/5 10/50/5 36/53/5 35/55/5
f 3/56/5 11/54/5 35/55/5 29/57/5
f 13/58/6 12/21/6 34/20/6 33/59/6
f 14/46/6 13/58/6 33/59/6 32/47/6
f 9/51/5 7/8/5 81/60/5 37/52/5
f 7/8/3 8/7/3 31/45/3 81/60/3
f 1/61/1 2/44/1 51/43/1 41/62/1
f 20/27/3 45/26/3 50/26/3 26/27/3
f 6/11/3 42/10/3 90/10/3 25/11/3
f 81/1/2 31/2/2 56/3/2 55/4/2
f 61/5/3 66/6/3 60/7/3 59/8/3
f 41/9/4 51/10/4 58/11/4 57/12/4
f 67/13/1 72/14/1 54/15/1 53/16/1
f 98/17/5 41/9/5 57/12/5 69/18/5
f 64/19/3 56/3/3 74/3/3 79/19/3
f 85/20/4 64/21/4 79/21/4 92/20/4
f 93/22/6 94/23/6 71/24/6 70/25/6
f 94/23/6 95/26/6 72/27/6 71/24/6
f 29/28/5 96/29/5 67/30/5 53/31/5
f 96/29/5 97/32/5 68/33/5 67/30/5
f 97/32/5 98/17/5 69/18/5 68/33/5
f 57/12/1 58/11/1 70/34/1 69/35/1
f 69/35/1 70/34/1 71/36/1 68/37/1
f 68/37/1 71/36/1 72/14/1 67/13/1
f 55/4/3 56/3/3 64/19/3 63/38/3
f 63/38/3 64/19/3 65/39/3 62/40/3
f 62/40/3 65/39/3 66/6/3 61/5/3
f 100/26/6 38/41/6 73/42/6 78/27/6
f 52/10/6 99/22/6 80/25/6 77/11/6
f 93/22/2 70/25/2 80/25/2 99/22/2
f 30/43/2 54/44/2 73/44/2 38/43/2
f 54/15/1 72/14/1 78/14/1 73/15/1
f 60/7/3 66/6/3 75/6/3 76/7/3
f 70/34/1 58/11/1 77/11/1 80/34/1
f 42/45/4 60/7/4 76/7/4 90/45/4
f 56/3/2 31/2/2 89/2/2 74/3/2
f 66/46/2 83/47/2 91/47/2 75/46/2
f 76/7/6 75/46/6 91/47/6 90/45/6
f 79/21/6 74/48/6 89/49/6 92/20/6
f 62/50/5 61/51/5 88/52/5 87/53/5
f 63/54/5 62/50/5 87/53/5 86/55/5
f 55/56/5 63/54/5 86/55/5 81/57/5
f 65/58/6 64/21/6 85/20/6 84/59/6
f 66/46/6 65/58/6 84/59/6 83/47/6
f 61/51/5 59/8/5 82/60/5 88/52/5
f 59/8/4 60/7/4 42/45/4 82/60/4
f 53/61/2 54/44/2 30/43/2 29/62/2
f 72/27/4 95/26/4 100/26/4 78/27/4
f 58/11/4 51/10/4 52/10/4 77/11/4
f 108/63/5 107/64/5 98/17/5 97/32/5
f 109/65/5 108/63/5 97/32/5 96/29/5
f 106/66/5 105/67/5 102/68/5 103/69/5
f 105/67/5 104/70/5 101/71/5 102/68/5
f 87/53/5 88/52/5 104/70/5 105/67/5
f 86/55/5 87/53/5 105/67/5 106/66/5
f 103/69/5 102/68/5 108/63/5 109/65/5
f 102/68/5 101/71/5 107/64/5 108/63/5
f 48/17/5 104/70/5 88/52/5 82/9/5
f 47/32/5 101/71/5 104/70/5 48/17/5
f 46/29/5 107/64/5 101/71/5 47/32/5
f 41/28/5 98/17/5 107/64/5 46/29/5
f 37/52/5 81/60/5 86/55/5 106/66/5
f 36/53/5 37/52/5 106/66/5 103/69/5
f 35/55/5 36/53/5 103/69/5 109/65/5
f 29/57/5 35/55/5 109/65/5 96/29/5
f 118/72/6 115/73/6 94/23/6 93/22/6
f 115/73/6 120/74/6 95/26/6 94/23/6
f 113/75/6 114/76/6 112/77/6 110/78/6
f 116/79/6 113/75/6 110/78/6 111/80/6
f 83/47/6 84/59/6 113/75/6 116/79/6
f 84/59/6 85/20/6 114/76/6 113/75/6
f 110/78/6 112/77/6 120/74/6 115/73/6
f 111/80/6 110/78/6 115/73/6 118/72/6
f 91/47/2 83/47/2 116/47/2 117/47/2
f 49/22/6 90/10/6 91/10/6 117/22/6
f 43/22/1 49/22/1 117/22/1 116/22/1
f 44/23/6 43/22/6 116/79/6 111/80/6
f 45/26/6 44/23/6 111/80/6 118/72/6
f 93/22/2 99/22/2 119/22/2 118/22/2
f 50/26/3 45/26/3 118/26/3 119/26/3
f 52/10/6 50/26/6 119/26/6 99/22/6
f 34/20/6 120/74/6 112/77/6 33/59/6
f 33/59/6 112/77/6 114/76/6 32/47/6
f 100/26/4 95/26/4 120/26/4 121/26/4
f 34/20/3 40/20/3 121/20/3 120/20/3
f 38/49/6 100/26/6 121/26/6 40/20/6
f 39/47/1 32/47/1 114/47/1 122/47/1
f 85/20/4 92/20/4 122/20/4 114/20/4
f 39/47/6 122/20/6 92/20/6 89/45/6
