# Blender 4.5.1 LTS
# www.blender.org
mtllib Dungeon_RoadConer_10x10.mtl
o Dungeon_RoadConer_10x10
v 2.499998 -2.000000 -5.000001
v 2.499998 0.000000 -5.000001
v 2.500002 -2.000000 4.999999
v 2.500002 0.000000 4.999999
v -2.500002 -2.000000 -4.999999
v -2.500002 0.000000 -4.999999
v -2.499998 -2.000000 5.000001
v -2.499998 0.000000 5.000001
v 5.000001 -2.000000 4.999999
v 4.999999 -2.000000 -5.000001
v 4.999999 0.000000 -5.000001
v 5.000001 0.000000 4.999999
v 0.000002 -2.000000 5.000000
v 0.000002 0.000000 5.000000
v -0.000002 -2.000000 -5.000000
v -0.000002 0.000000 -5.000000
v -4.999999 0.000000 5.000001
v -4.999999 -2.000000 5.000001
v -5.000001 -2.000000 -4.999999
v -5.000001 0.000000 -4.999999
v 2.500001 -2.000000 2.499999
v 2.500000 -2.000000 -0.000001
v 2.499999 -2.000000 -2.500001
v 2.499999 0.000000 -2.500001
v 2.500000 0.000000 -0.000001
v 2.500001 0.000000 2.499999
v -2.500001 -2.000000 -2.499999
v -2.500000 -2.000000 0.000001
v -2.499999 -2.000000 2.500001
v -2.499999 0.000000 2.500001
v -2.500000 0.000000 0.000001
v -2.500001 0.000000 -2.499999
v 5.000001 -2.000000 2.499998
v 5.000000 -2.000000 -0.000002
v 4.999999 -2.000000 -2.500002
v 4.999999 0.000000 -2.500002
v 5.000000 0.000000 -0.000002
v 5.000001 0.000000 2.499998
v -0.000001 0.000000 -2.500000
v 0.000001 -2.000000 2.500000
v 0.000000 -2.000000 0.000000
v -0.000001 -2.000000 -2.500000
v -5.000001 -2.000000 -2.499998
v -5.000000 -2.000000 0.000002
v -4.999999 -2.000000 2.500002
v -4.999999 0.000000 2.500002
v -5.000000 0.000000 0.000002
v -5.000001 0.000000 -2.499998
v 2.478612 0.000000 0.326315
v 2.414815 0.000000 0.647047
v 2.309699 0.000000 0.956708
v 2.165064 0.000000 1.249999
v 1.983384 0.000000 1.521903
v 1.767767 0.000000 1.767766
v 1.521904 0.000000 1.983382
v 1.250000 0.000000 2.165062
v 0.000000 0.000000 0.000000
v 0.956709 0.000000 2.309698
v 0.647048 0.000000 2.414813
v 0.326316 0.000000 2.478611
v 0.000001 0.000000 2.499999
vn -0.0000 -0.0000 1.0000
vn -0.0000 1.0000 -0.0000
vn -0.0000 -0.0000 -1.0000
vn -0.0000 -1.0000 -0.0000
vn 1.0000 -0.0000 -0.0000
vn -1.0000 -0.0000 -0.0000
vt 0.526079 0.931274
vt 0.550032 0.931274
vt 0.550032 0.940256
vt 0.526079 0.940256
vt 0.550032 0.922292
vt 0.526079 0.922292
vt 0.526079 0.913309
vt 0.550032 0.913309
vt 0.460724 0.924041
vt 0.460724 0.902770
vt 0.481996 0.902770
vt 0.481996 0.924041
vt 0.573984 0.922292
vt 0.573984 0.913309
vt 0.556020 0.958220
vt 0.556020 0.967202
vt 0.550032 0.967202
vt 0.550032 0.958220
vt 0.793220 0.924079
vt 0.762159 0.924079
vt 0.762159 0.893018
vt 0.793220 0.893018
vt 0.597936 0.908818
vt 0.573984 0.908818
vt 0.573984 0.904327
vt 0.597936 0.904327
vt 0.550032 0.904327
vt 0.418182 0.966584
vt 0.418182 0.987855
vt 0.396911 0.987855
vt 0.396911 0.966584
vt 0.556020 0.949238
vt 0.550032 0.949238
vt 0.556020 0.940256
vt 0.824281 0.924079
vt 0.824281 0.893018
vt 0.573984 0.931274
vt 0.597936 0.926783
vt 0.573984 0.926783
vt 0.597936 0.922292
vt 0.526079 0.904327
vt 0.573984 0.940256
vt 0.567996 0.967202
vt 0.573984 0.967202
vt 0.573984 0.976184
vt 0.567996 0.976184
vt 0.556020 0.976184
vt 0.550032 0.976184
vt 0.562008 0.967202
vt 0.562008 0.976184
vt 0.597936 0.940256
vt 0.573984 0.935765
vt 0.597936 0.935765
vt 0.573984 0.931274
vt 0.597936 0.931274
vt 0.573984 0.949238
vt 0.573984 0.958220
vt 0.567996 0.958220
vt 0.567996 0.949238
vt 0.562008 0.958220
vt 0.562008 0.949238
vt 0.460724 0.987855
vt 0.439453 0.987855
vt 0.439453 0.966584
vt 0.460724 0.966584
vt 0.824281 0.986202
vt 0.793220 0.986202
vt 0.793220 0.955141
vt 0.824281 0.955141
vt 0.567996 0.940256
vt 0.562008 0.940256
vt 0.418182 0.902770
vt 0.418182 0.924041
vt 0.396911 0.924041
vt 0.396911 0.902770
vt 0.418182 0.945312
vt 0.396911 0.945312
vt 0.573984 0.917800
vt 0.597936 0.917800
vt 0.573984 0.913309
vt 0.597936 0.913309
vt 0.762159 0.955141
vt 0.481996 0.966584
vt 0.481996 0.987855
vt 0.855343 0.955141
vt 0.855343 0.986202
vt 0.855343 0.924079
vt 0.762424 0.959195
vt 0.763217 0.963180
vt 0.764523 0.967027
vt 0.766320 0.970671
vt 0.768577 0.974050
vt 0.771256 0.977104
vt 0.774311 0.979783
vt 0.777689 0.982041
vt 0.781333 0.983838
vt 0.785181 0.985144
vt 0.789166 0.985936
vt 0.436677 0.966402
vt 0.433948 0.965859
vt 0.431313 0.964964
vt 0.428818 0.963734
vt 0.426504 0.962188
vt 0.424412 0.960353
vt 0.422578 0.958262
vt 0.421032 0.955948
vt 0.419801 0.953453
vt 0.418907 0.950818
vt 0.418364 0.948089
s 0
usemtl M_General
f 4/1/1 3/2/1 9/3/1 12/4/1
f 13/5/1 14/6/1 8/7/1 7/8/1
f 32/9/2 6/10/2 20/11/2 48/12/2
f 15/13/3 16/5/3 2/8/3 1/14/3
f 42/15/4 27/16/4 5/17/4 15/18/4
f 39/19/2 24/20/2 2/21/2 16/22/2
f 33/23/5 38/24/5 12/25/5 9/26/5
f 1/14/3 2/8/3 11/27/3 10/25/3
f 26/28/2 4/29/2 12/30/2 38/31/2
f 23/32/4 1/33/4 10/3/4 35/34/4
f 32/35/2 39/19/2 16/22/2 6/36/2
f 23/32/4 42/15/4 15/18/4 1/33/4
f 5/37/3 6/2/3 16/5/3 15/13/3
f 3/2/1 4/1/1 14/6/1 13/5/1
f 43/38/6 48/39/6 20/13/6 19/40/6
f 7/8/1 8/7/1 17/41/1 18/27/1
f 6/2/3 5/37/3 19/42/3 20/3/3
f 29/43/4 7/44/4 18/45/4 45/46/4
f 5/17/4 27/16/4 43/47/4 19/48/4
f 27/16/4 28/49/4 44/50/4 43/47/4
f 28/49/4 29/43/4 45/46/4 44/50/4
f 18/51/6 17/42/6 46/52/6 45/53/6
f 45/53/6 46/52/6 47/54/6 44/55/6
f 44/55/6 47/54/6 48/39/6 43/38/6
f 3/56/4 13/57/4 40/58/4 21/59/4
f 21/59/4 40/58/4 41/60/4 22/61/4
f 22/61/4 41/60/4 42/15/4 23/32/4
f 8/62/2 14/63/2 61/64/2 30/65/2
f 30/66/2 61/67/2 57/68/2 31/69/2
f 31/69/2 57/68/2 39/19/2 32/35/2
f 3/56/4 21/59/4 33/70/4 9/42/4
f 21/59/4 22/61/4 34/71/4 33/70/4
f 22/61/4 23/32/4 35/34/4 34/71/4
f 2/72/2 24/73/2 36/74/2 11/75/2
f 24/73/2 25/76/2 37/77/2 36/74/2
f 25/76/2 26/28/2 38/31/2 37/77/2
f 10/40/5 11/13/5 36/78/5 35/79/5
f 35/79/5 36/78/5 37/80/5 34/81/5
f 34/81/5 37/80/5 38/24/5 33/23/5
f 14/63/2 4/29/2 26/28/2 61/64/2
f 57/68/2 25/82/2 24/20/2 39/19/2
f 13/57/4 7/44/4 29/43/4 40/58/4
f 40/58/4 29/43/4 28/49/4 41/60/4
f 41/60/4 28/49/4 27/16/4 42/15/4
f 8/62/2 30/65/2 46/83/2 17/84/2
f 30/66/2 31/69/2 47/85/2 46/86/2
f 31/69/2 32/35/2 48/87/2 47/85/2
f 25/82/2 57/68/2 49/88/2
f 49/88/2 57/68/2 50/89/2
f 50/89/2 57/68/2 51/90/2
f 51/90/2 57/68/2 52/91/2
f 52/91/2 57/68/2 53/92/2
f 53/92/2 57/68/2 54/93/2
f 54/93/2 57/68/2 55/94/2
f 55/94/2 57/68/2 56/95/2
f 56/95/2 57/68/2 58/96/2
f 58/96/2 57/68/2 59/97/2
f 59/97/2 57/68/2 60/98/2
f 60/98/2 57/68/2 61/67/2
f 60/99/2 61/64/2 26/28/2
f 59/100/2 60/99/2 26/28/2
f 58/101/2 59/100/2 26/28/2
f 56/102/2 58/101/2 26/28/2
f 55/103/2 56/102/2 26/28/2
f 54/104/2 55/103/2 26/28/2
f 53/105/2 54/104/2 26/28/2
f 52/106/2 53/105/2 26/28/2
f 51/107/2 52/106/2 26/28/2
f 50/108/2 51/107/2 26/28/2
f 49/109/2 50/108/2 26/28/2
f 25/76/2 49/109/2 26/28/2
