# Blender 4.5.1 LTS
# www.blender.org
mtllib Dungeon_RoadConer_2x2.mtl
o Dungeon_RoadConer_2x2
v 0.800000 -1.000000 -1.000000
v 0.800000 0.000000 -1.000000
v -0.800000 -1.000000 -1.000000
v -0.800000 0.000000 -1.000000
v -0.700000 -1.000000 -1.000000
v 0.000000 -1.000000 -1.000000
v 0.700000 -1.000000 -1.000000
v 0.700000 0.000000 -1.000000
v 0.000000 0.000000 -1.000000
v -0.700000 0.000000 -1.000000
v 0.800000 0.200000 -1.000000
v -0.700000 0.200000 -1.000000
v -0.800000 0.200000 -1.000000
v 0.700000 0.200000 -1.000000
v 0.738666 -1.000000 -0.534126
v 0.738666 0.000000 -0.534126
v -0.806815 -1.000000 -0.948236
v -0.806815 0.000000 -0.948236
v -0.710222 -1.000000 -0.922354
v -0.034074 -1.000000 -0.741181
v 0.642074 -1.000000 -0.560007
v 0.642074 0.000000 -0.560007
v -0.034074 0.000000 -0.741181
v -0.710222 0.000000 -0.922354
v 0.738666 0.200000 -0.534126
v -0.710222 0.200000 -0.922354
v -0.806815 0.200000 -0.948236
v 0.642074 0.200000 -0.560007
v 0.558846 -1.000000 -0.100000
v 0.558846 0.000000 -0.100000
v -0.826795 -1.000000 -0.900000
v -0.826795 0.000000 -0.900000
v -0.740192 -1.000000 -0.850000
v -0.133975 -1.000000 -0.500000
v 0.472243 -1.000000 -0.150000
v 0.472243 0.000000 -0.150000
v -0.133975 0.000000 -0.500000
v -0.740192 0.000000 -0.850000
v 0.558846 0.200000 -0.100000
v -0.740192 0.200000 -0.850000
v -0.826795 0.200000 -0.900000
v 0.472243 0.200000 -0.150000
v 0.272792 -1.000000 0.272792
v 0.272792 0.000000 0.272792
v -0.858579 -1.000000 -0.858579
v -0.858579 0.000000 -0.858579
v -0.787868 -1.000000 -0.787868
v -0.292893 -1.000000 -0.292893
v 0.202081 -1.000000 0.202082
v 0.202081 0.000000 0.202082
v -0.292893 0.000000 -0.292893
v -0.787868 0.000000 -0.787868
v 0.272792 0.200000 0.272792
v -0.787868 0.200000 -0.787868
v -0.858579 0.200000 -0.858579
v 0.202081 0.200000 0.202082
v -0.100000 -1.000000 0.558846
v -0.100000 0.000000 0.558846
v -0.900000 -1.000000 -0.826795
v -0.900000 0.000000 -0.826795
v -0.850000 -1.000000 -0.740192
v -0.500000 -1.000000 -0.133975
v -0.150000 -1.000000 0.472243
v -0.150000 0.000000 0.472243
v -0.500000 0.000000 -0.133975
v -0.850000 0.000000 -0.740192
v -0.100000 0.200000 0.558846
v -0.850000 0.200000 -0.740192
v -0.900000 0.200000 -0.826795
v -0.150000 0.200000 0.472243
v -0.534126 -1.000000 0.738666
v -0.534126 0.000000 0.738666
v -0.948236 -1.000000 -0.806815
v -0.948236 0.000000 -0.806815
v -0.922354 -1.000000 -0.710222
v -0.741181 -1.000000 -0.034074
v -0.560008 -1.000000 0.642074
v -0.560008 0.000000 0.642074
v -0.741181 0.000000 -0.034074
v -0.922354 0.000000 -0.710222
v -0.534126 0.200000 0.738666
v -0.922354 0.200000 -0.710222
v -0.948236 0.200000 -0.806815
v -0.560008 0.200000 0.642074
v -1.000000 -1.000000 0.800000
v -1.000000 0.000000 0.800000
v -1.000000 -1.000000 -0.800000
v -1.000000 0.000000 -0.800000
v -1.000000 -1.000000 -0.700000
v -1.000000 -1.000000 -0.000000
v -1.000000 -1.000000 0.700000
v -1.000000 0.000000 0.700000
v -1.000000 0.000000 -0.000000
v -1.000000 0.000000 -0.700000
v -1.000000 0.200000 0.800000
v -1.000000 0.200000 -0.700000
v -1.000000 0.200000 -0.800000
v -1.000000 0.200000 0.700000
vn -0.0000 -0.0000 -1.0000
vn -0.0000 -1.0000 -0.0000
vn -0.9239 -0.0000 -0.3827
vn 0.9239 -0.0000 0.3827
vn -0.0000 1.0000 -0.0000
vn 0.9914 -0.0000 0.1305
vn -0.9914 -0.0000 -0.1305
vn -0.7934 -0.0000 -0.6088
vn 0.7934 -0.0000 0.6088
vn 0.6088 -0.0000 0.7934
vn -0.6088 -0.0000 -0.7934
vn -0.3827 -0.0000 -0.9239
vn 0.3827 -0.0000 0.9239
vn -0.1305 -0.0000 -0.9914
vn -1.0000 -0.0000 -0.0000
vn 0.1305 -0.0000 0.9914
vt 0.375000 0.437500
vt 0.375000 0.500000
vt 0.625000 0.500000
vt 0.625000 0.437500
vt 0.625000 0.312500
vt 0.625000 0.250000
vt 0.375000 0.250000
vt 0.375000 0.312500
vt 0.375000 0.375000
vt 0.625000 0.375000
s 0
f 5/1/1 3/2/1 4/3/1 10/4/1
f 8/5/1 14/5/1 11/6/1 2/6/1
f 1/7/1 7/8/1 8/5/1 2/6/1
f 7/8/1 6/9/1 9/10/1 8/5/1
f 6/9/1 5/1/1 10/4/1 9/10/1
f 4/3/1 13/3/1 12/4/1 10/4/1
f 19/1/2 20/9/2 34/9/2 33/1/2
f 17/2/2 19/1/2 33/1/2 31/2/2
f 27/3/3 18/3/3 32/3/3 41/3/3
f 18/3/3 17/2/3 31/2/3 32/3/3
f 24/4/4 26/4/4 40/4/4 38/4/4
f 23/10/5 24/4/5 38/4/5 37/10/5
f 6/9/2 7/8/2 21/8/2 20/9/2
f 11/6/5 14/5/5 28/5/5 25/6/5
f 1/7/6 2/6/6 16/6/6 15/7/6
f 14/5/7 8/5/7 22/5/7 28/5/7
f 8/5/5 9/10/5 23/10/5 22/5/5
f 7/8/2 1/7/2 15/7/2 21/8/2
f 2/6/6 11/6/6 25/6/6 16/6/6
f 9/10/5 10/4/5 24/4/5 23/10/5
f 10/4/6 12/4/6 26/4/6 24/4/6
f 4/3/7 3/2/7 17/2/7 18/3/7
f 13/3/7 4/3/7 18/3/7 27/3/7
f 3/2/2 5/1/2 19/1/2 17/2/2
f 5/1/2 6/9/2 20/9/2 19/1/2
f 12/4/5 13/3/5 27/3/5 26/4/5
f 36/5/5 37/10/5 51/10/5 50/5/5
f 42/5/8 36/5/8 50/5/8 56/5/8
f 29/7/9 30/6/9 44/6/9 43/7/9
f 39/6/5 42/5/5 56/5/5 53/6/5
f 34/9/2 35/8/2 49/8/2 48/9/2
f 40/4/5 41/3/5 55/3/5 54/4/5
f 26/4/5 27/3/5 41/3/5 40/4/5
f 20/9/2 21/8/2 35/8/2 34/9/2
f 25/6/5 28/5/5 42/5/5 39/6/5
f 15/7/4 16/6/4 30/6/4 29/7/4
f 28/5/3 22/5/3 36/5/3 42/5/3
f 22/5/5 23/10/5 37/10/5 36/5/5
f 21/8/2 15/7/2 29/7/2 35/8/2
f 16/6/4 25/6/4 39/6/4 30/6/4
f 51/10/5 52/4/5 66/4/5 65/10/5
f 44/6/10 53/6/10 67/6/10 58/6/10
f 49/8/2 43/7/2 57/7/2 63/8/2
f 50/5/5 51/10/5 65/10/5 64/5/5
f 56/5/11 50/5/11 64/5/11 70/5/11
f 43/7/10 44/6/10 58/6/10 57/7/10
f 35/8/2 29/7/2 43/7/2 49/8/2
f 30/6/9 39/6/9 53/6/9 44/6/9
f 37/10/5 38/4/5 52/4/5 51/10/5
f 38/4/9 40/4/9 54/4/9 52/4/9
f 32/3/8 31/2/8 45/2/8 46/3/8
f 41/3/8 32/3/8 46/3/8 55/3/8
f 31/2/2 33/1/2 47/1/2 45/2/2
f 33/1/2 34/9/2 48/9/2 47/1/2
f 61/1/2 62/9/2 76/9/2 75/1/2
f 59/2/2 61/1/2 75/1/2 73/2/2
f 69/3/12 60/3/12 74/3/12 83/3/12
f 60/3/12 59/2/12 73/2/12 74/3/12
f 66/4/13 68/4/13 82/4/13 80/4/13
f 65/10/5 66/4/5 80/4/5 79/10/5
f 52/4/10 54/4/10 68/4/10 66/4/10
f 46/3/11 45/2/11 59/2/11 60/3/11
f 55/3/11 46/3/11 60/3/11 69/3/11
f 45/2/2 47/1/2 61/1/2 59/2/2
f 47/1/2 48/9/2 62/9/2 61/1/2
f 54/4/5 55/3/5 69/3/5 68/4/5
f 48/9/2 49/8/2 63/8/2 62/9/2
f 53/6/5 56/5/5 70/5/5 67/6/5
f 76/9/2 77/8/2 91/8/2 90/9/2
f 82/4/5 83/3/5 97/3/5 96/4/5
f 75/1/2 76/9/2 90/9/2 89/1/2
f 73/2/2 75/1/2 89/1/2 87/2/2
f 83/3/14 74/3/14 88/3/14 97/3/14
f 74/3/14 73/2/14 87/2/14 88/3/14
f 68/4/5 69/3/5 83/3/5 82/4/5
f 62/9/2 63/8/2 77/8/2 76/9/2
f 67/6/5 70/5/5 84/5/5 81/6/5
f 57/7/13 58/6/13 72/6/13 71/7/13
f 70/5/12 64/5/12 78/5/12 84/5/12
f 64/5/5 65/10/5 79/10/5 78/5/5
f 63/8/2 57/7/2 71/7/2 77/8/2
f 58/6/13 67/6/13 81/6/13 72/6/13
f 89/1/15 94/4/15 88/3/15 87/2/15
f 92/5/15 86/6/15 95/6/15 98/5/15
f 85/7/15 86/6/15 92/5/15 91/8/15
f 91/8/15 92/5/15 93/10/15 90/9/15
f 90/9/15 93/10/15 94/4/15 89/1/15
f 88/3/15 94/4/15 96/4/15 97/3/15
f 81/6/5 84/5/5 98/5/5 95/6/5
f 71/7/16 72/6/16 86/6/16 85/7/16
f 84/5/14 78/5/14 92/5/14 98/5/14
f 78/5/5 79/10/5 93/10/5 92/5/5
f 77/8/2 71/7/2 85/7/2 91/8/2
f 72/6/16 81/6/16 95/6/16 86/6/16
f 79/10/5 80/4/5 94/4/5 93/10/5
f 80/4/16 82/4/16 96/4/16 94/4/16
