# Blender 4.5.1 LTS
# www.blender.org
mtllib Dungeon_RoadTJunction_10x10.mtl
o Dungeon_RoadTJunction_10x10
v -2.500000 -2.000000 5.000000
v -2.500000 0.000000 5.000000
v -2.500000 -2.000000 -5.000000
v -2.500000 0.000000 -5.000000
v 2.500000 -2.000000 5.000000
v 2.500000 0.000000 5.000000
v 2.500000 -2.000000 -5.000000
v 2.500000 0.000000 -5.000000
v -5.000000 -2.000000 -5.000000
v -5.000000 -2.000000 5.000000
v -5.000000 0.000000 5.000000
v -5.000000 0.000000 -5.000000
v 0.000000 -2.000000 -5.000000
v 0.000000 0.000000 -5.000000
v 0.000000 -2.000000 5.000000
v 0.000000 0.000000 5.000000
v 5.000000 0.000000 -5.000000
v 5.000000 -2.000000 -5.000000
v 5.000000 -2.000000 5.000000
v 5.000000 0.000000 5.000000
v -2.500000 -2.000000 -2.500000
v -2.500000 -2.000000 0.000000
v -2.500000 -2.000000 2.500000
v -2.500000 0.000000 2.500000
v -2.500000 0.000000 0.000000
v -2.500000 0.000000 -2.500000
v 2.500000 -2.000000 2.500000
v 2.500000 -2.000000 0.000000
v 2.500000 -2.000000 -2.500000
v 2.500000 0.000000 -2.500000
v 2.500000 0.000000 0.000000
v 2.500000 0.000000 2.500000
v -5.000000 -2.000000 -2.500000
v -5.000000 -2.000000 0.000000
v -5.000000 -2.000000 2.500000
v -5.000000 0.000000 2.500000
v -5.000000 0.000000 0.000000
v -5.000000 0.000000 -2.500000
v 0.000000 0.000000 -2.500000
v 0.000000 0.000000 0.000000
v 0.000000 0.000000 2.500000
v 0.000000 -2.000000 -2.500000
v 0.000000 -2.000000 0.000000
v 0.000000 -2.000000 2.500000
v 5.000000 -2.000000 2.500000
v 5.000000 -2.000000 0.000000
v 5.000000 -2.000000 -2.500000
v 5.000000 0.000000 -2.500000
v 5.000000 0.000000 0.000000
v 5.000000 0.000000 2.500000
vn -0.0000 -0.0000 -1.0000
vn -0.0000 1.0000 -0.0000
vn -0.0000 -0.0000 1.0000
vn -0.0000 -1.0000 -0.0000
vn -1.0000 -0.0000 -0.0000
vn 1.0000 -0.0000 -0.0000
vt 0.526079 0.931274
vt 0.550032 0.931274
vt 0.550032 0.940256
vt 0.526079 0.940256
vt 0.550032 0.922292
vt 0.526079 0.922292
vt 0.526079 0.913309
vt 0.550032 0.913309
vt 0.418735 0.921857
vt 0.407928 0.921857
vt 0.407928 0.905647
vt 0.418735 0.905647
vt 0.573984 0.922292
vt 0.573984 0.913309
vt 0.556020 0.958220
vt 0.556020 0.967202
vt 0.550032 0.967202
vt 0.550032 0.958220
vt 0.808594 0.930309
vt 0.797497 0.930309
vt 0.797497 0.919213
vt 0.808594 0.919213
vt 0.597936 0.908818
vt 0.573984 0.908818
vt 0.573984 0.904327
vt 0.597936 0.904327
vt 0.550032 0.904327
vt 0.440349 0.954277
vt 0.451155 0.954277
vt 0.451155 0.970488
vt 0.440349 0.970488
vt 0.556020 0.949238
vt 0.550032 0.949238
vt 0.556020 0.940256
vt 0.819690 0.930309
vt 0.819690 0.919213
vt 0.573984 0.931274
vt 0.597936 0.926783
vt 0.573984 0.926783
vt 0.597936 0.922292
vt 0.526079 0.904327
vt 0.573984 0.940256
vt 0.567996 0.967202
vt 0.573984 0.967202
vt 0.573984 0.976184
vt 0.567996 0.976184
vt 0.556020 0.976184
vt 0.550032 0.976184
vt 0.562008 0.967202
vt 0.562008 0.976184
vt 0.597936 0.940256
vt 0.573984 0.935765
vt 0.597936 0.935765
vt 0.573984 0.931274
vt 0.597936 0.931274
vt 0.573984 0.949238
vt 0.573984 0.958220
vt 0.567996 0.958220
vt 0.567996 0.949238
vt 0.562008 0.958220
vt 0.562008 0.949238
vt 0.460416 0.953757
vt 0.449319 0.953757
vt 0.449319 0.942660
vt 0.460416 0.942660
vt 0.819690 0.952503
vt 0.808594 0.952503
vt 0.808594 0.941406
vt 0.819690 0.941406
vt 0.567996 0.940256
vt 0.562008 0.940256
vt 0.407928 0.954277
vt 0.418735 0.954277
vt 0.418735 0.970488
vt 0.407928 0.970488
vt 0.797497 0.941406
vt 0.786400 0.941406
vt 0.786400 0.930309
vt 0.797497 0.952503
vt 0.786400 0.952503
vt 0.573984 0.917800
vt 0.597936 0.917800
vt 0.573984 0.913309
vt 0.597936 0.913309
vt 0.438223 0.953757
vt 0.438223 0.942660
vt 0.451155 0.921857
vt 0.440349 0.921857
vt 0.440349 0.905647
vt 0.451155 0.905647
vt 0.830787 0.941406
vt 0.830787 0.952503
vt 0.830787 0.930309
s 0
usemtl M_General
f 4/1/1 3/2/1 9/3/1 12/4/1
f 13/5/1 14/6/1 8/7/1 7/8/1
f 32/9/2 6/10/2 20/11/2 50/12/2
f 15/13/3 16/5/3 2/8/3 1/14/3
f 44/15/4 27/16/4 5/17/4 15/18/4
f 41/19/2 24/20/2 2/21/2 16/22/2
f 33/23/5 38/24/5 12/25/5 9/26/5
f 1/14/3 2/8/3 11/27/3 10/25/3
f 26/28/2 4/29/2 12/30/2 38/31/2
f 23/32/4 1/33/4 10/3/4 35/34/4
f 32/35/2 41/19/2 16/22/2 6/36/2
f 23/32/4 44/15/4 15/18/4 1/33/4
f 5/37/3 6/2/3 16/5/3 15/13/3
f 3/2/1 4/1/1 14/6/1 13/5/1
f 45/38/6 50/39/6 20/13/6 19/40/6
f 7/8/1 8/7/1 17/41/1 18/27/1
f 6/2/3 5/37/3 19/42/3 20/3/3
f 29/43/4 7/44/4 18/45/4 47/46/4
f 5/17/4 27/16/4 45/47/4 19/48/4
f 27/16/4 28/49/4 46/50/4 45/47/4
f 28/49/4 29/43/4 47/46/4 46/50/4
f 18/51/6 17/42/6 48/52/6 47/53/6
f 47/53/6 48/52/6 49/54/6 46/55/6
f 46/55/6 49/54/6 50/39/6 45/38/6
f 3/56/4 13/57/4 42/58/4 21/59/4
f 21/59/4 42/58/4 43/60/4 22/61/4
f 22/61/4 43/60/4 44/15/4 23/32/4
f 8/62/2 14/63/2 39/64/2 30/65/2
f 30/66/2 39/67/2 40/68/2 31/69/2
f 31/69/2 40/68/2 41/19/2 32/35/2
f 3/56/4 21/59/4 33/70/4 9/42/4
f 21/59/4 22/61/4 34/71/4 33/70/4
f 22/61/4 23/32/4 35/34/4 34/71/4
f 2/72/2 24/73/2 36/74/2 11/75/2
f 24/20/2 25/76/2 37/77/2 36/78/2
f 25/76/2 26/79/2 38/80/2 37/77/2
f 10/40/5 11/13/5 36/81/5 35/82/5
f 35/82/5 36/81/5 37/83/5 34/84/5
f 34/84/5 37/83/5 38/24/5 33/23/5
f 14/63/2 4/85/2 26/86/2 39/64/2
f 39/67/2 26/79/2 25/76/2 40/68/2
f 40/68/2 25/76/2 24/20/2 41/19/2
f 13/57/4 7/44/4 29/43/4 42/58/4
f 42/58/4 29/43/4 28/49/4 43/60/4
f 43/60/4 28/49/4 27/16/4 44/15/4
f 8/87/2 30/88/2 48/89/2 17/90/2
f 30/66/2 31/69/2 49/91/2 48/92/2
f 31/69/2 32/35/2 50/93/2 49/91/2
