# Blender 4.5.1 LTS
# www.blender.org
mtllib Dungeon_RoadEndCap_10x10.mtl
o Dungeon_RoadEndCap_10x10
v -2.500000 -2.000000 5.000000
v -2.500000 0.000000 5.000000
v -2.500000 -2.000000 -0.363569
v -2.500000 0.000000 -0.363569
v 2.500000 -2.000000 5.000000
v 2.500000 0.000000 5.000000
v 2.500000 -2.000000 -1.411111
v 2.500000 0.000000 -1.411111
v -5.000000 -2.000000 -1.983142
v -5.000000 -2.000000 5.000000
v -5.000000 0.000000 5.000000
v -5.000000 0.000000 -1.983142
v 0.442694 -2.000000 -1.466925
v 0.442694 0.000000 -1.466925
v 0.000000 -2.000000 5.000000
v 0.000000 0.000000 5.000000
v 5.000000 0.000000 -1.983142
v 5.000000 -2.000000 -1.983142
v 5.000000 -2.000000 5.000000
v 5.000000 0.000000 5.000000
v 3.750000 0.000000 5.000000
v 3.750000 0.000000 -0.898721
v 3.750000 -2.000000 -0.898721
v 3.750000 -2.000000 5.000000
v 1.250000 0.000000 -0.898721
v 1.250000 -2.000000 5.000000
v 1.250000 -2.000000 -0.898721
v 1.250000 0.000000 5.000000
v -1.250000 -2.000000 -0.898721
v -1.250000 0.000000 5.000000
v -1.250000 0.000000 -0.898721
v -1.250000 -2.000000 5.000000
v -3.750000 -2.000000 -0.898721
v -3.750000 0.000000 -0.898721
v -3.750000 0.000000 5.000000
v -3.750000 -2.000000 5.000000
v -2.500000 -1.520767 5.000000
v -2.500000 -1.520767 -0.363569
v 2.500000 -1.520767 -1.411111
v 2.500000 -1.520767 5.000000
v -5.000000 -1.520767 5.000000
v -5.000000 -1.520767 -1.983142
v 0.000000 -1.520767 5.000000
v 0.442694 -1.520767 -1.466925
v 5.000000 -1.520767 -1.983142
v 5.000000 -1.520767 5.000000
v 3.750000 -1.520767 5.000000
v 3.750000 -1.520767 -0.898721
v 1.250000 -1.520767 5.000000
v 1.250000 -1.520767 -0.898721
v -1.250000 -1.520767 -0.898721
v -1.250000 -1.520767 5.000000
v -3.750000 -1.520767 5.000000
v -3.750000 -1.520767 -0.898721
v -2.500000 -1.520763 -5.000000
v -2.500000 -1.999997 -5.000000
v -1.250000 -1.999997 -5.000000
v 2.500000 -1.520763 -5.000000
v 2.500000 -1.999997 -5.000000
v -5.000000 -1.520763 -5.000000
v -5.000000 -1.999997 -5.000000
v -3.750000 -1.999997 -5.000000
v 1.250000 -1.999997 -5.000000
v 0.442694 -1.999997 -5.000000
v 0.442694 -1.520763 -5.000000
v 5.000000 -1.520763 -5.000000
v 5.000000 -1.999997 -5.000000
v 3.750000 -1.999997 -5.000000
v 3.750000 -1.520763 -5.000000
v 1.250000 -1.520763 -5.000000
v -1.250000 -1.520763 -5.000000
v -3.750000 -1.520763 -5.000000
vn -0.0000 -1.0000 -0.0000
vn -0.3793 -0.0000 -0.9253
vn -0.0000 1.0000 -0.0000
vn -0.0000 -0.0000 1.0000
vn -1.0000 -0.0000 -0.0000
vn -0.3182 -0.0000 -0.9480
vn 1.0000 -0.0000 -0.0000
vn -0.6553 -0.0000 -0.7554
vn 0.3793 -0.0000 -0.9253
vn 0.5756 -0.0000 -0.8178
vn -0.3936 -0.0000 -0.9193
vn 0.3936 -0.0000 -0.9193
vn 0.6553 -0.0000 -0.7554
vn -0.0000 -0.0000 -1.0000
vt 0.573984 0.976184
vt 0.573984 0.971693
vt 0.544292 0.917801
vt 0.526079 0.917800
vt 0.526079 0.913309
vt 0.544292 0.913309
vt 0.451155 0.913752
vt 0.407928 0.913752
vt 0.407928 0.905647
vt 0.451155 0.905647
vt 0.568245 0.917800
vt 0.550032 0.917800
vt 0.550032 0.913309
vt 0.568245 0.913309
vt 0.573984 0.962711
vt 0.573984 0.967202
vt 0.550032 0.967202
vt 0.550032 0.962711
vt 0.847341 0.948633
vt 0.847341 0.956738
vt 0.804114 0.956738
vt 0.804114 0.948633
vt 0.592197 0.922292
vt 0.573984 0.922292
vt 0.573984 0.904327
vt 0.592197 0.904327
vt 0.568245 0.908818
vt 0.550032 0.908818
vt 0.550032 0.904327
vt 0.568245 0.904327
vt 0.407928 0.962383
vt 0.451155 0.962383
vt 0.451155 0.970488
vt 0.407928 0.970488
vt 0.573984 0.944747
vt 0.550032 0.944747
vt 0.550032 0.940256
vt 0.573984 0.940256
vt 0.847341 0.932423
vt 0.847341 0.940528
vt 0.804114 0.940528
vt 0.804114 0.932423
vt 0.573984 0.953729
vt 0.573984 0.958220
vt 0.550032 0.958220
vt 0.550032 0.953729
vt 0.568245 0.926783
vt 0.550032 0.926783
vt 0.550032 0.922292
vt 0.568245 0.922292
vt 0.544292 0.926783
vt 0.526079 0.926783
vt 0.526079 0.922292
vt 0.544292 0.922292
vt 0.592197 0.940256
vt 0.544292 0.908818
vt 0.526079 0.908818
vt 0.526079 0.904327
vt 0.544292 0.904327
vt 0.568245 0.935765
vt 0.573984 0.935765
vt 0.568245 0.940256
vt 0.550032 0.971693
vt 0.550032 0.976184
vt 0.568245 0.931274
vt 0.573984 0.931274
vt 0.451155 0.921857
vt 0.407928 0.921857
vt 0.550032 0.931274
vt 0.847341 0.924318
vt 0.804114 0.924318
vt 0.544292 0.931274
vt 0.526079 0.931274
vt 0.573984 0.949238
vt 0.550032 0.949238
vt 0.407928 0.954277
vt 0.451155 0.954277
vt 0.544292 0.935765
vt 0.526079 0.935765
vt 0.573984 0.913309
vt 0.573984 0.908818
vt 0.573984 0.917800
vt 0.076133 0.945385
vt 0.076133 0.940894
vt 0.573984 0.926783
vt 0.597936 0.904327
vt 0.550032 0.935765
vt 0.076133 0.949876
vt 0.597936 0.940256
vt 0.597936 0.922292
vt 0.076133 0.958858
vt 0.076133 0.954367
vt 0.076133 0.927421
vt 0.076133 0.922930
vt 0.544292 0.940256
vt 0.526079 0.940256
vt 0.076133 0.936403
vt 0.076133 0.931912
s 0
usemtl M_General.003
f 18/1/1 23/2/1 68/2/1 67/1/1
f 50/3/2 25/4/2 8/5/2 39/6/2
f 22/7/3 21/8/3 20/9/3 17/10/3
f 52/11/4 30/12/4 2/13/4 37/14/4
f 27/15/1 7/16/1 5/17/1 26/18/1
f 31/19/3 4/20/3 2/21/3 30/22/3
f 41/23/5 11/24/5 12/25/5 42/26/5
f 53/27/4 35/28/4 11/29/4 41/30/4
f 35/31/3 34/32/3 12/33/3 11/34/3
f 33/35/1 36/36/1 10/37/1 9/38/1
f 25/39/3 14/40/3 16/41/3 28/42/3
f 29/43/1 13/44/1 15/45/1 32/46/1
f 49/47/4 28/48/4 16/49/4 43/50/4
f 51/51/6 31/52/6 14/53/6 44/54/6
f 45/55/7 17/38/7 20/24/7 46/23/7
f 48/56/8 22/57/8 17/58/8 45/59/8
f 47/60/4 24/61/4 19/38/4 46/62/4
f 24/63/1 23/2/1 18/1/1 19/64/1
f 5/17/1 7/16/1 23/2/1 24/63/1
f 40/65/4 5/66/4 24/61/4 47/60/4
f 39/6/9 8/5/9 22/57/9 48/56/9
f 8/67/3 6/68/3 21/8/3 22/7/3
f 40/65/4 6/69/4 28/48/4 49/47/4
f 8/70/3 25/39/3 28/42/3 6/71/3
f 13/44/1 27/15/1 26/18/1 15/45/1
f 44/54/10 14/53/10 25/4/10 50/3/10
f 38/72/11 4/73/11 31/52/11 51/51/11
f 3/74/1 29/43/1 32/46/1 1/75/1
f 14/40/3 31/19/3 30/22/3 16/41/3
f 43/50/4 16/49/4 30/12/4 52/11/4
f 3/74/1 1/75/1 36/36/1 33/35/1
f 2/76/3 4/77/3 34/32/3 35/31/3
f 37/14/4 2/13/4 35/28/4 53/27/4
f 3/74/1 33/35/1 62/35/1 56/74/1
f 4/73/12 38/72/12 54/78/12 34/79/12
f 1/80/4 37/14/4 53/27/4 36/81/4
f 15/24/4 43/50/4 52/11/4 32/82/4
f 51/83/3 44/84/3 65/84/3 71/83/3
f 13/44/1 29/43/1 57/43/1 64/44/1
f 5/66/4 40/65/4 49/47/4 26/85/4
f 9/86/5 42/26/5 60/26/5 61/86/5
f 6/69/4 40/65/4 47/60/4 21/87/4
f 21/87/4 47/60/4 46/62/4 20/37/4
f 38/88/3 51/83/3 71/83/3 55/88/3
f 18/89/7 45/55/7 46/23/7 19/90/7
f 42/91/3 54/92/3 72/92/3 60/91/3
f 26/85/4 49/47/4 43/50/4 15/24/4
f 36/81/4 53/27/4 41/30/4 10/25/4
f 10/90/5 41/23/5 42/26/5 9/86/5
f 32/82/4 52/11/4 37/14/4 1/80/4
f 48/93/3 45/94/3 66/94/3 69/93/3
f 34/79/13 54/78/13 42/95/13 12/96/13
f 72/78/14 62/87/14 61/37/14 60/95/14
f 55/72/14 56/69/14 62/87/14 72/78/14
f 56/69/14 55/72/14 71/51/14 57/48/14
f 64/49/14 65/54/14 70/3/14 63/12/14
f 59/13/14 58/6/14 69/56/14 68/28/14
f 68/28/14 69/56/14 66/59/14 67/29/14
f 57/48/14 71/51/14 65/54/14 64/49/14
f 63/12/14 70/3/14 58/6/14 59/13/14
f 33/35/1 9/38/1 61/38/1 62/35/1
f 44/84/3 50/97/3 70/97/3 65/84/3
f 7/16/1 27/15/1 63/15/1 59/16/1
f 39/98/3 48/93/3 69/93/3 58/98/3
f 29/43/1 3/74/1 56/74/1 57/43/1
f 23/2/1 7/16/1 59/16/1 68/2/1
f 54/92/3 38/88/3 55/88/3 72/92/3
f 27/15/1 13/44/1 64/44/1 63/15/1
f 50/97/3 39/98/3 58/98/3 70/97/3
f 45/55/7 18/89/7 67/89/7 66/55/7
