# Blender 4.5.1 LTS
# www.blender.org
mtllib Dungeon_Base_20x20.mtl
o Dungeon_Base_20x20
v -20.000000 -2.000000 20.000000
v -20.000000 0.000000 20.000000
v -20.000000 -2.000000 -0.000001
v -20.000000 0.000000 -0.000001
v 0.000001 -2.000000 20.000000
v 0.000001 0.000000 20.000000
v 0.000001 -2.000000 -0.000001
v 0.000001 0.000000 -0.000001
v -20.000000 -2.000000 9.999999
v -20.000000 0.000000 10.000000
v 0.000001 -2.000000 10.000000
v 0.000001 0.000000 9.999999
v -9.999999 -2.000000 -0.000001
v -10.000000 0.000000 -0.000001
v -10.000000 -2.000000 20.000000
v -9.999999 0.000000 20.000000
v -10.000000 0.000000 10.000000
v -9.999999 -2.000000 10.000000
v -20.000000 0.000000 7.500000
v -20.000000 0.000000 5.000000
v -20.000000 0.000000 2.500000
v 0.000001 -2.000000 7.500000
v 0.000001 -2.000000 5.000000
v 0.000001 -2.000000 2.500000
v -20.000000 -2.000000 2.500000
v -20.000000 -2.000000 5.000000
v -20.000000 -2.000000 7.500000
v 0.000001 0.000000 2.500000
v 0.000001 0.000000 5.000000
v 0.000001 0.000000 7.500000
v -9.999999 -2.000000 2.500000
v -9.999999 -2.000000 5.000000
v -9.999999 -2.000000 7.500000
v -10.000000 0.000000 2.500000
v -10.000000 0.000000 5.000000
v -10.000000 0.000000 7.500000
v -20.000000 -2.000000 12.500000
v -20.000000 -2.000000 15.000000
v -20.000000 -2.000000 17.500000
v 0.000001 0.000000 12.500000
v 0.000001 0.000000 15.000000
v 0.000001 0.000000 17.500000
v -20.000000 0.000000 17.500000
v -20.000000 0.000000 15.000000
v -20.000000 0.000000 12.500000
v 0.000001 -2.000000 17.500000
v 0.000001 -2.000000 15.000000
v 0.000001 -2.000000 12.500000
v -10.000000 0.000000 12.500000
v -10.000000 0.000000 15.000000
v -10.000000 0.000000 17.500000
v -9.999999 -2.000000 12.500000
v -9.999999 -2.000000 15.000000
v -10.000000 -2.000000 17.500000
v -7.500000 0.000000 -0.000001
v -5.000000 0.000000 -0.000001
v -2.500000 0.000000 -0.000001
v -7.500000 -2.000000 20.000000
v -5.000000 -2.000000 20.000000
v -2.500000 -2.000000 20.000000
v -7.500000 0.000000 10.000000
v -5.000000 0.000000 10.000000
v -2.500000 0.000000 10.000000
v -2.500000 -2.000000 -0.000001
v -5.000000 -2.000000 -0.000001
v -7.500000 -2.000000 -0.000001
v -2.500000 0.000000 20.000000
v -5.000000 0.000000 20.000000
v -7.500000 0.000000 20.000000
v -2.500000 -2.000000 10.000000
v -5.000000 -2.000000 10.000000
v -7.500000 -2.000000 10.000000
v -7.500000 0.000000 2.500000
v -5.000000 0.000000 2.500000
v -2.500000 0.000000 2.500000
v -7.500000 0.000000 5.000000
v -5.000000 0.000000 5.000000
v -2.500000 0.000000 5.000000
v -7.500000 0.000000 7.500000
v -5.000000 0.000000 7.500000
v -2.500000 0.000000 7.500000
v -2.500000 -2.000000 2.500000
v -5.000000 -2.000000 2.500000
v -7.500000 -2.000000 2.500000
v -2.500000 -2.000000 5.000000
v -5.000000 -2.000000 5.000000
v -7.500000 -2.000000 5.000000
v -2.500000 -2.000000 7.500000
v -5.000000 -2.000000 7.500000
v -7.500000 -2.000000 7.500000
v -7.500000 0.000000 12.500000
v -5.000000 0.000000 12.500000
v -2.500000 0.000000 12.500000
v -7.500000 0.000000 15.000000
v -5.000000 0.000000 15.000000
v -2.500000 0.000000 15.000000
v -7.500000 0.000000 17.500000
v -5.000000 0.000000 17.500000
v -2.500000 0.000000 17.500000
v -2.500000 -2.000000 12.500000
v -5.000000 -2.000000 12.500000
v -7.500000 -2.000000 12.500000
v -2.500000 -2.000000 15.000000
v -5.000000 -2.000000 15.000000
v -7.500000 -2.000000 15.000000
v -2.500000 -2.000000 17.500000
v -5.000000 -2.000000 17.500000
v -7.500000 -2.000000 17.500000
v -12.500000 -2.000000 -0.000001
v -15.000000 -2.000000 -0.000001
v -17.500000 -2.000000 -0.000001
v -12.500000 0.000000 20.000000
v -15.000000 0.000000 20.000000
v -17.500000 0.000000 20.000000
v -12.500000 -2.000000 10.000000
v -15.000000 -2.000000 10.000000
v -17.500000 -2.000000 10.000000
v -17.500000 0.000000 -0.000001
v -15.000000 0.000000 -0.000001
v -12.500000 0.000000 -0.000001
v -17.500000 -2.000000 20.000000
v -15.000000 -2.000000 20.000000
v -12.500000 -2.000000 20.000000
v -17.500000 0.000000 10.000000
v -15.000000 0.000000 10.000000
v -12.500000 0.000000 10.000000
v -12.500000 -2.000000 2.500000
v -15.000000 -2.000000 2.500000
v -17.500000 -2.000000 2.500000
v -12.500000 -2.000000 5.000000
v -15.000000 -2.000000 5.000000
v -17.500000 -2.000000 5.000000
v -12.500000 -2.000000 7.500000
v -15.000000 -2.000000 7.500000
v -17.500000 -2.000000 7.500000
v -17.500000 0.000000 2.500000
v -15.000000 0.000000 2.500000
v -12.500000 0.000000 2.500000
v -17.500000 0.000000 5.000000
v -15.000000 0.000000 5.000000
v -12.500000 0.000000 5.000000
v -17.500000 0.000000 7.500000
v -15.000000 0.000000 7.500000
v -12.500000 0.000000 7.500000
v -12.500000 -2.000000 12.500000
v -15.000000 -2.000000 12.500000
v -17.500000 -2.000000 12.500000
v -12.500000 -2.000000 15.000000
v -15.000000 -2.000000 15.000000
v -17.500000 -2.000000 15.000000
v -12.500000 -2.000000 17.500000
v -15.000000 -2.000000 17.500000
v -17.500000 -2.000000 17.500000
v -17.500000 0.000000 12.500000
v -15.000000 0.000000 12.500000
v -12.500000 0.000000 12.500000
v -17.500000 0.000000 15.000000
v -15.000000 0.000000 15.000000
v -12.500000 0.000000 15.000000
v -17.500000 0.000000 17.500000
v -15.000000 0.000000 17.500000
v -12.500000 0.000000 17.500000
vn -1.0000 -0.0000 -0.0000
vn -0.0000 -0.0000 -1.0000
vn 1.0000 -0.0000 -0.0000
vn -0.0000 -0.0000 1.0000
vn -0.0000 -1.0000 -0.0000
vn -0.0000 1.0000 -0.0000
vt 0.095024 0.907771
vt 0.095024 0.968399
vt 0.102602 0.968399
vt 0.102602 0.907771
vt 0.049554 0.907771
vt 0.049554 0.968399
vt 0.041975 0.968399
vt 0.041975 0.907771
vt 0.095024 0.915350
vt 0.102602 0.915350
vt 0.418671 0.903046
vt 0.411093 0.903046
vt 0.411093 0.895468
vt 0.418671 0.895468
vt 0.418671 0.933360
vt 0.411093 0.933360
vt 0.411093 0.925781
vt 0.418671 0.925781
vt 0.095024 0.945664
vt 0.102602 0.945664
vt 0.102602 0.938085
vt 0.095024 0.938085
vt 0.079867 0.907771
vt 0.079867 0.968399
vt 0.072289 0.968399
vt 0.072289 0.907771
vt 0.064710 0.907771
vt 0.064710 0.968399
vt 0.064710 0.945664
vt 0.072289 0.945664
vt 0.072289 0.938085
vt 0.064710 0.938085
vt 0.820563 0.948124
vt 0.812984 0.948124
vt 0.812984 0.940546
vt 0.820563 0.940546
vt 0.448985 0.903046
vt 0.441406 0.903046
vt 0.441406 0.895468
vt 0.448985 0.895468
vt 0.064710 0.915350
vt 0.072289 0.915350
vt 0.448985 0.956095
vt 0.441406 0.956095
vt 0.441406 0.948516
vt 0.448985 0.948516
vt 0.820563 0.963281
vt 0.812984 0.963281
vt 0.812984 0.955703
vt 0.820563 0.955703
vt 0.072289 0.960820
vt 0.064710 0.960820
vt 0.072289 0.953242
vt 0.064710 0.953242
vt 0.087446 0.968399
vt 0.087446 0.907771
vt 0.102602 0.960820
vt 0.095024 0.960820
vt 0.102602 0.953242
vt 0.095024 0.953242
vt 0.418671 0.956095
vt 0.411093 0.956095
vt 0.411093 0.948516
vt 0.418671 0.948516
vt 0.790249 0.963281
vt 0.782671 0.963281
vt 0.782671 0.955703
vt 0.790249 0.955703
vt 0.782671 0.948124
vt 0.790249 0.948124
vt 0.072289 0.930507
vt 0.064710 0.930507
vt 0.072289 0.922928
vt 0.064710 0.922928
vt 0.812984 0.932967
vt 0.820563 0.932967
vt 0.812984 0.925389
vt 0.820563 0.925389
vt 0.812984 0.917811
vt 0.820563 0.917811
vt 0.057132 0.968399
vt 0.057132 0.907771
vt 0.411093 0.918203
vt 0.418671 0.918203
vt 0.790249 0.932967
vt 0.782671 0.932967
vt 0.782671 0.925389
vt 0.790249 0.925389
vt 0.782671 0.917811
vt 0.790249 0.917811
vt 0.102602 0.930507
vt 0.095024 0.930507
vt 0.102602 0.922928
vt 0.095024 0.922928
vt 0.079867 0.922928
vt 0.079867 0.915350
vt 0.087446 0.922928
vt 0.087446 0.915350
vt 0.079867 0.930507
vt 0.087446 0.930507
vt 0.079867 0.938085
vt 0.087446 0.938085
vt 0.843298 0.925389
vt 0.835720 0.925389
vt 0.835720 0.917811
vt 0.843298 0.917811
vt 0.828141 0.925389
vt 0.828141 0.917811
vt 0.843298 0.932967
vt 0.835720 0.932967
vt 0.828141 0.932967
vt 0.471720 0.925781
vt 0.464141 0.925781
vt 0.464141 0.918203
vt 0.471720 0.918203
vt 0.835720 0.940546
vt 0.828141 0.940546
vt 0.079867 0.953242
vt 0.079867 0.945664
vt 0.087446 0.953242
vt 0.087446 0.945664
vt 0.079867 0.960820
vt 0.087446 0.960820
vt 0.843298 0.955703
vt 0.835720 0.955703
vt 0.835720 0.948124
vt 0.843298 0.948124
vt 0.828141 0.955703
vt 0.828141 0.948124
vt 0.843298 0.963281
vt 0.835720 0.963281
vt 0.828141 0.963281
vt 0.471720 0.956095
vt 0.464141 0.956095
vt 0.464141 0.948516
vt 0.471720 0.948516
vt 0.835720 0.970860
vt 0.828141 0.970860
vt 0.820563 0.970860
vt 0.471720 0.903046
vt 0.464141 0.903046
vt 0.464141 0.895468
vt 0.471720 0.895468
vt 0.828141 0.910232
vt 0.835720 0.910232
vt 0.820563 0.910232
vt 0.471720 0.933360
vt 0.464141 0.933360
vt 0.805406 0.925389
vt 0.805406 0.917811
vt 0.797828 0.925389
vt 0.797828 0.917811
vt 0.805406 0.932967
vt 0.797828 0.932967
vt 0.805406 0.940546
vt 0.797828 0.940546
vt 0.790249 0.940546
vt 0.041975 0.922928
vt 0.049554 0.922928
vt 0.049554 0.915350
vt 0.041975 0.915350
vt 0.057132 0.922928
vt 0.057132 0.915350
vt 0.041975 0.930507
vt 0.049554 0.930507
vt 0.057132 0.930507
vt 0.041975 0.938085
vt 0.049554 0.938085
vt 0.057132 0.938085
vt 0.805406 0.955703
vt 0.805406 0.948124
vt 0.797828 0.955703
vt 0.797828 0.948124
vt 0.805406 0.963281
vt 0.797828 0.963281
vt 0.433828 0.956095
vt 0.433828 0.948516
vt 0.805406 0.970860
vt 0.797828 0.970860
vt 0.790249 0.970860
vt 0.041975 0.953242
vt 0.049554 0.953242
vt 0.049554 0.945664
vt 0.041975 0.945664
vt 0.057132 0.953242
vt 0.057132 0.945664
vt 0.041975 0.960820
vt 0.049554 0.960820
vt 0.057132 0.960820
vt 0.433828 0.903046
vt 0.433828 0.895468
vt 0.797828 0.910232
vt 0.805406 0.910232
vt 0.790249 0.910232
s 0
usemtl M_General
f 25/1/1 21/2/1 4/3/1 3/4/1
f 64/1/2 57/2/2 8/3/2 7/4/2
f 46/5/3 42/6/3 6/7/3 5/8/3
f 121/5/4 114/6/4 2/7/4 1/8/4
f 106/9/5 46/10/5 5/4/5 60/1/5
f 160/11/6 43/12/6 2/13/6 114/14/6
f 142/15/6 19/16/6 10/17/6 124/18/6
f 88/19/5 22/20/5 11/21/5 70/22/5
f 22/23/3 30/24/3 12/25/3 11/26/3
f 37/27/1 45/28/1 10/25/1 9/26/1
f 133/29/5 33/30/5 18/31/5 115/32/5
f 79/33/6 36/34/6 17/35/6 61/36/6
f 97/37/6 51/38/6 16/39/6 69/40/6
f 151/41/5 54/42/5 15/26/5 123/27/5
f 58/23/4 69/24/4 16/25/4 15/26/4
f 109/27/2 120/28/2 14/25/2 13/26/2
f 55/43/6 14/44/6 34/45/6 73/46/6
f 73/47/6 34/48/6 35/49/6 76/50/6
f 76/50/6 35/49/6 36/34/6 79/33/6
f 109/28/5 13/25/5 31/51/5 127/52/5
f 127/52/5 31/51/5 32/53/5 130/54/5
f 130/54/5 32/53/5 33/30/5 133/29/5
f 7/4/3 8/3/3 28/2/3 24/1/3
f 24/1/3 28/2/3 29/55/3 23/56/3
f 23/56/3 29/55/3 30/24/3 22/23/3
f 64/2/5 7/3/5 24/57/5 82/58/5
f 82/58/5 24/57/5 23/59/5 85/60/5
f 85/60/5 23/59/5 22/20/5 88/19/5
f 118/61/6 4/62/6 21/63/6 136/64/6
f 136/65/6 21/66/6 20/67/6 139/68/6
f 139/68/6 20/67/6 19/69/6 142/70/6
f 9/26/1 10/25/1 19/24/1 27/23/1
f 27/23/1 19/24/1 20/55/1 26/56/1
f 26/56/1 20/55/1 21/2/1 25/1/1
f 115/32/5 18/31/5 52/71/5 145/72/5
f 145/72/5 52/71/5 53/73/5 148/74/5
f 148/74/5 53/73/5 54/42/5 151/41/5
f 61/36/6 17/35/6 49/75/6 91/76/6
f 91/76/6 49/75/6 50/77/6 94/78/6
f 94/78/6 50/77/6 51/79/6 97/80/6
f 1/8/1 2/7/1 43/6/1 39/5/1
f 39/5/1 43/6/1 44/81/1 38/82/1
f 38/82/1 44/81/1 45/28/1 37/27/1
f 124/18/6 10/17/6 45/83/6 154/84/6
f 154/85/6 45/86/6 44/87/6 157/88/6
f 157/88/6 44/87/6 43/89/6 160/90/6
f 70/22/5 11/21/5 48/91/5 100/92/5
f 100/92/5 48/91/5 47/93/5 103/94/5
f 103/94/5 47/93/5 46/10/5 106/9/5
f 11/26/3 12/25/3 40/28/3 48/27/3
f 48/27/3 40/28/3 41/81/3 47/82/3
f 47/82/3 41/81/3 42/6/3 46/5/3
f 53/73/5 105/95/5 108/96/5 54/42/5
f 105/95/5 104/97/5 107/98/5 108/96/5
f 104/97/5 103/94/5 106/9/5 107/98/5
f 52/71/5 102/99/5 105/95/5 53/73/5
f 102/99/5 101/100/5 104/97/5 105/95/5
f 101/100/5 100/92/5 103/94/5 104/97/5
f 18/31/5 72/101/5 102/99/5 52/71/5
f 72/101/5 71/102/5 101/100/5 102/99/5
f 71/102/5 70/22/5 100/92/5 101/100/5
f 41/103/6 96/104/6 99/105/6 42/106/6
f 96/104/6 95/107/6 98/108/6 99/105/6
f 95/107/6 94/78/6 97/80/6 98/108/6
f 40/109/6 93/110/6 96/104/6 41/103/6
f 93/110/6 92/111/6 95/107/6 96/104/6
f 92/111/6 91/76/6 94/78/6 95/107/6
f 12/112/6 63/113/6 93/114/6 40/115/6
f 63/116/6 62/117/6 92/111/6 93/110/6
f 62/117/6 61/36/6 91/76/6 92/111/6
f 32/53/5 87/118/5 90/119/5 33/30/5
f 87/118/5 86/120/5 89/121/5 90/119/5
f 86/120/5 85/60/5 88/19/5 89/121/5
f 31/51/5 84/122/5 87/118/5 32/53/5
f 84/122/5 83/123/5 86/120/5 87/118/5
f 83/123/5 82/58/5 85/60/5 86/120/5
f 13/25/5 66/24/5 84/122/5 31/51/5
f 66/24/5 65/55/5 83/123/5 84/122/5
f 65/55/5 64/2/5 82/58/5 83/123/5
f 29/124/6 78/125/6 81/126/6 30/127/6
f 78/125/6 77/128/6 80/129/6 81/126/6
f 77/128/6 76/50/6 79/33/6 80/129/6
f 28/130/6 75/131/6 78/125/6 29/124/6
f 75/131/6 74/132/6 77/128/6 78/125/6
f 74/132/6 73/47/6 76/50/6 77/128/6
f 8/133/6 57/134/6 75/135/6 28/136/6
f 57/137/6 56/138/6 74/132/6 75/131/6
f 56/138/6 55/139/6 73/47/6 74/132/6
f 5/4/4 6/3/4 67/2/4 60/1/4
f 60/1/4 67/2/4 68/55/4 59/56/4
f 59/56/4 68/55/4 69/24/4 58/23/4
f 42/140/6 99/141/6 67/142/6 6/143/6
f 99/105/6 98/108/6 68/144/6 67/145/6
f 98/108/6 97/80/6 69/146/6 68/144/6
f 30/147/6 81/148/6 63/113/6 12/112/6
f 81/126/6 80/129/6 62/117/6 63/116/6
f 80/129/6 79/33/6 61/36/6 62/117/6
f 33/30/5 90/119/5 72/101/5 18/31/5
f 90/119/5 89/121/5 71/102/5 72/101/5
f 89/121/5 88/19/5 70/22/5 71/102/5
f 54/42/5 108/96/5 58/23/5 15/26/5
f 108/96/5 107/98/5 59/56/5 58/23/5
f 107/98/5 106/9/5 60/1/5 59/56/5
f 13/26/2 14/25/2 55/24/2 66/23/2
f 66/23/2 55/24/2 56/55/2 65/56/2
f 65/56/2 56/55/2 57/2/2 64/1/2
f 50/77/6 159/149/6 162/150/6 51/79/6
f 159/149/6 158/151/6 161/152/6 162/150/6
f 158/151/6 157/88/6 160/90/6 161/152/6
f 49/75/6 156/153/6 159/149/6 50/77/6
f 156/153/6 155/154/6 158/151/6 159/149/6
f 155/154/6 154/85/6 157/88/6 158/151/6
f 17/35/6 126/155/6 156/153/6 49/75/6
f 126/155/6 125/156/6 155/154/6 156/153/6
f 125/156/6 124/157/6 154/85/6 155/154/6
f 38/158/5 150/159/5 153/160/5 39/161/5
f 150/159/5 149/162/5 152/163/5 153/160/5
f 149/162/5 148/74/5 151/41/5 152/163/5
f 37/164/5 147/165/5 150/159/5 38/158/5
f 147/165/5 146/166/5 149/162/5 150/159/5
f 146/166/5 145/72/5 148/74/5 149/162/5
f 9/167/5 117/168/5 147/165/5 37/164/5
f 117/168/5 116/169/5 146/166/5 147/165/5
f 116/169/5 115/32/5 145/72/5 146/166/5
f 35/49/6 141/170/6 144/171/6 36/34/6
f 141/170/6 140/172/6 143/173/6 144/171/6
f 140/172/6 139/68/6 142/70/6 143/173/6
f 34/48/6 138/174/6 141/170/6 35/49/6
f 138/174/6 137/175/6 140/172/6 141/170/6
f 137/175/6 136/65/6 139/68/6 140/172/6
f 14/44/6 120/176/6 138/177/6 34/45/6
f 120/178/6 119/179/6 137/175/6 138/174/6
f 119/179/6 118/180/6 136/65/6 137/175/6
f 26/181/5 132/182/5 135/183/5 27/184/5
f 132/182/5 131/185/5 134/186/5 135/183/5
f 131/185/5 130/54/5 133/29/5 134/186/5
f 25/187/5 129/188/5 132/182/5 26/181/5
f 129/188/5 128/189/5 131/185/5 132/182/5
f 128/189/5 127/52/5 130/54/5 131/185/5
f 3/7/5 111/6/5 129/188/5 25/187/5
f 111/6/5 110/81/5 128/189/5 129/188/5
f 110/81/5 109/28/5 127/52/5 128/189/5
f 3/8/2 4/7/2 118/6/2 111/5/2
f 111/5/2 118/6/2 119/81/2 110/82/2
f 110/82/2 119/81/2 120/28/2 109/27/2
f 39/161/5 153/160/5 121/5/5 1/8/5
f 153/160/5 152/163/5 122/82/5 121/5/5
f 152/163/5 151/41/5 123/27/5 122/82/5
f 27/184/5 135/183/5 117/168/5 9/167/5
f 135/183/5 134/186/5 116/169/5 117/168/5
f 134/186/5 133/29/5 115/32/5 116/169/5
f 36/34/6 144/171/6 126/155/6 17/35/6
f 144/171/6 143/173/6 125/156/6 126/155/6
f 143/173/6 142/70/6 124/157/6 125/156/6
f 51/38/6 162/190/6 112/191/6 16/39/6
f 162/150/6 161/152/6 113/192/6 112/193/6
f 161/152/6 160/90/6 114/194/6 113/192/6
f 15/26/4 16/25/4 112/28/4 123/27/4
f 123/27/4 112/28/4 113/81/4 122/82/4
f 122/82/4 113/81/4 114/6/4 121/5/4
