# Blender 4.5.1 LTS
# www.blender.org
mtllib Dungeon_Road_2x2.mtl
o Dungeon_Road_2x2
v -0.800000 -1.000000 1.000000
v -0.800000 0.000000 1.000000
v -0.800000 -1.000000 -1.000000
v -0.800000 0.000000 -1.000000
v 0.800000 -1.000000 1.000000
v 0.800000 0.000000 1.000000
v 0.800000 -1.000000 -1.000000
v 0.800000 0.000000 -1.000000
v 0.700000 -1.000000 -1.000000
v 0.000000 -1.000000 -1.000000
v -0.700000 -1.000000 -1.000000
v -0.700000 0.000000 -1.000000
v 0.000000 0.000000 -1.000000
v 0.700000 0.000000 -1.000000
v -0.700000 -1.000000 1.000000
v 0.000000 -1.000000 1.000000
v 0.700000 -1.000000 1.000000
v 0.700000 0.000000 1.000000
v 0.000000 0.000000 1.000000
v -0.700000 0.000000 1.000000
v -0.800000 0.200000 1.000000
v -0.800000 0.200000 -1.000000
v 0.700000 0.200000 -1.000000
v 0.800000 0.200000 -1.000000
v 0.800000 0.200000 1.000000
v -0.700000 0.200000 1.000000
v -0.700000 0.200000 -1.000000
v 0.700000 0.200000 1.000000
vn -1.0000 -0.0000 -0.0000
vn -0.0000 -0.0000 -1.0000
vn 1.0000 -0.0000 -0.0000
vn -0.0000 -0.0000 1.0000
vn -0.0000 -1.0000 -0.0000
vn -0.0000 1.0000 -0.0000
vt 0.375000 0.000000
vt 0.625000 0.000000
vt 0.625000 0.250000
vt 0.375000 0.250000
vt 0.375000 0.437500
vt 0.625000 0.437500
vt 0.625000 0.500000
vt 0.375000 0.500000
vt 0.625000 0.750000
vt 0.375000 0.750000
vt 0.375000 0.937500
vt 0.625000 0.937500
vt 0.625000 1.000000
vt 0.375000 1.000000
vt 0.312500 0.500000
vt 0.312500 0.750000
vt 0.625000 0.312500
vt 0.812500 0.750000
vt 0.812500 0.500000
vt 0.687500 0.500000
vt 0.750000 0.500000
vt 0.750000 0.750000
vt 0.687500 0.750000
vt 0.125000 0.500000
vt 0.187500 0.500000
vt 0.187500 0.750000
vt 0.125000 0.750000
vt 0.250000 0.500000
vt 0.250000 0.750000
vt 0.625000 0.812500
vt 0.375000 0.812500
vt 0.625000 0.875000
vt 0.375000 0.875000
vt 0.375000 0.312500
vt 0.625000 0.375000
vt 0.375000 0.375000
vt 0.875000 0.500000
vt 0.875000 0.750000
s 0
f 1/1/1 2/2/1 4/3/1 3/4/1
f 9/5/2 14/6/2 8/7/2 7/8/2
f 7/8/3 8/7/3 6/9/3 5/10/3
f 15/11/4 20/12/4 2/13/4 1/14/4
f 9/15/5 7/8/5 5/10/5 17/16/5
f 12/17/2 4/3/2 22/3/2 27/17/2
f 20/18/3 12/19/3 27/19/3 26/18/3
f 14/20/6 13/21/6 19/22/6 18/23/6
f 13/21/6 12/19/6 20/18/6 19/22/6
f 3/24/5 11/25/5 15/26/5 1/27/5
f 11/25/5 10/28/5 16/29/5 15/26/5
f 10/28/5 9/15/5 17/16/5 16/29/5
f 5/10/4 6/9/4 18/30/4 17/31/4
f 17/31/4 18/30/4 19/32/4 16/33/4
f 16/33/4 19/32/4 20/12/4 15/11/4
f 3/4/2 4/3/2 12/17/2 11/34/2
f 11/34/2 12/17/2 13/35/2 10/36/2
f 10/36/2 13/35/2 14/6/2 9/5/2
f 27/19/6 22/37/6 21/38/6 26/18/6
f 24/7/6 23/20/6 28/23/6 25/9/6
f 14/20/1 18/23/1 28/23/1 23/20/1
f 4/3/1 2/2/1 21/2/1 22/3/1
f 2/13/4 20/12/4 26/12/4 21/13/4
f 8/7/2 14/6/2 23/6/2 24/7/2
f 18/30/4 6/9/4 25/9/4 28/30/4
f 6/9/3 8/7/3 24/7/3 25/9/3
