# Blender 3.6.2
# www.blender.org
mtllib Dungeon_Blank_10x10x5_R.mtl
o Dungeon_Blank_10x10x5_R
v -10.011627 -1.999999 9.988373
v -10.011627 0.026535 9.988373
v -0.011626 0.026534 -0.011628
v -0.011628 -2.000000 -0.011628
v -10.011627 -1.999999 -0.011627
v -10.011627 0.026535 -0.011627
v -0.011626 0.026534 4.988373
v -0.011626 0.026534 2.488373
v -0.011628 -2.000000 4.988373
v -0.011628 -2.000000 2.488373
v -10.011627 -1.999999 7.488372
v -10.011627 -1.999999 4.988372
v -10.011627 -1.999999 2.488372
v -10.011627 0.026535 7.488372
v -10.011627 0.026535 4.988372
v -10.011627 0.026535 2.488372
v -2.511628 -1.999999 9.988373
v -5.011628 -1.999999 9.988373
v -7.511628 -1.999999 9.988373
v -7.511627 0.026535 9.988373
v -5.011627 0.026535 9.988373
v -2.511627 0.026534 9.988373
v -2.511627 -1.999999 -0.011628
v -5.011627 -1.999999 -0.011628
v -7.511627 -1.999999 -0.011628
v -2.511626 0.026534 -0.011628
v -5.011626 0.026535 -0.011628
v -7.511626 0.026535 -0.011628
v -5.011626 4.026534 7.488373
v -7.511626 4.026535 7.488373
v -2.511627 0.026534 7.488373
v -0.011626 4.026534 4.988373
v -7.511626 4.026535 -0.011628
v -10.011627 4.026535 -0.011628
v -10.011627 4.026535 2.488372
v -0.011626 4.026534 -0.011628
v -0.011626 4.026534 2.488373
v -2.511628 -1.999999 7.488373
v -5.011627 -1.999999 7.488373
v -7.511628 -1.999999 7.488373
v -2.511628 -1.999999 4.988372
v -5.011627 -1.999999 4.988372
v -7.511627 -1.999999 4.988372
v -2.511628 -1.999999 2.488372
v -5.011627 -1.999999 2.488372
v -7.511627 -1.999999 2.488372
v -0.011626 2.026534 2.488373
v -0.011626 2.026534 -0.011628
v -10.011627 2.026535 2.488372
v -10.011627 2.026535 -0.011627
v -7.511626 2.026535 -0.011628
v -0.011626 2.026534 7.488373
v -0.011626 2.026534 4.988373
v -10.011627 2.026535 7.488372
v -10.011627 2.026535 4.988372
v -2.511627 2.026534 7.488373
v -2.511627 2.026534 4.988372
v -7.511626 6.026535 9.988373
v -2.511626 2.026534 -0.011628
v -5.011626 2.026535 -0.011628
v -5.011626 4.026534 9.988373
v -5.011626 2.026535 7.488373
v -5.011626 2.026535 9.988373
v -5.011626 2.026535 4.988372
v -10.011627 6.026535 -0.011628
v -7.511626 6.026535 -0.011628
v -10.011627 4.026535 9.988373
v -2.511627 4.026534 4.988372
v -2.511627 4.026534 2.488372
v -2.511626 4.026534 -0.011628
v -5.011626 4.026534 -0.011628
v -2.511627 2.026534 9.988373
v -5.011626 4.026534 4.988372
v -7.511626 4.026535 2.488372
v -5.011626 4.026534 2.488372
v -0.011626 6.026533 2.488373
v -0.011626 6.026533 -0.011628
v -2.511627 6.026533 2.488372
v -2.511626 6.026533 -0.011628
v -5.011626 6.026533 -0.011628
v -7.511626 6.026535 2.488372
v -5.011626 6.026533 2.488372
v -10.011627 6.026535 2.488372
v -10.011627 6.026535 4.988372
v -10.011627 6.026535 7.488372
v -7.511626 4.026535 9.988373
v -7.511626 2.026535 9.988373
v -10.011627 4.026535 4.988372
v -10.011627 6.026535 9.988373
v -7.511626 6.026535 4.988372
v -7.511626 6.026535 7.488373
v -10.011627 2.026535 9.988373
v -7.511626 4.026535 4.988372
v -10.011627 4.026535 7.488372
v -0.011628 -2.000000 9.988373
v -0.011628 -2.000000 7.488373
v -0.011627 0.026534 9.988373
v -0.011626 0.026534 7.488373
vn -0.0000 -1.0000 -0.0000
vn 1.0000 -0.0000 -0.0000
vn -1.0000 -0.0000 -0.0000
vn -0.0000 -0.0000 -1.0000
vn -0.0000 -0.0000 1.0000
vn -0.0000 1.0000 -0.0000
vt 0.076035 0.937482
vt 0.076035 0.935512
vt 0.093475 0.935512
vt 0.093475 0.937482
vt 0.076035 0.963152
vt 0.076035 0.915754
vt 0.093475 0.915754
vt 0.093475 0.963152
vt 0.023713 0.963152
vt 0.041153 0.963152
vt 0.049873 0.915754
vt 0.041153 0.915754
vt 0.041153 0.963152
vt 0.049873 0.963152
vt 0.023713 0.915754
vt 0.023713 0.963152
vt 0.041153 0.963152
vt 0.041153 0.915754
vt 0.058594 0.963152
vt 0.058594 0.915754
vt 0.058593 0.963152
vt 0.023713 0.937482
vt 0.023713 0.935512
vt 0.041153 0.935512
vt 0.041153 0.937482
vt 0.058594 0.935512
vt 0.058594 0.937482
vt 0.058594 0.943394
vt 0.058594 0.941424
vt 0.076035 0.941424
vt 0.076035 0.943394
vt 0.058594 0.939453
vt 0.076035 0.939453
vt 0.041153 0.943394
vt 0.041153 0.941424
vt 0.041153 0.939453
vt 0.023713 0.941424
vt 0.023713 0.939453
vt 0.067314 0.963152
vt 0.076034 0.963152
vt 0.041153 0.939453
vt 0.041153 0.941423
vt 0.058594 0.937482
vt 0.076034 0.915754
vt 0.067314 0.915754
vt 0.058593 0.915754
vt 0.023713 0.941423
vt 0.049873 0.963152
vt 0.058593 0.963152
vt 0.067314 0.963152
vt 0.093475 0.941424
vt 0.093475 0.943394
vt 0.093475 0.939453
vt 0.058594 0.941423
vt 0.076035 0.941423
vt 0.076035 0.937482
s 0
usemtl M_General.004
f 46/1/1 13/2/1 5/3/1 25/4/1
f 8/5/2 10/6/2 4/7/2 3/8/2
f 92/9/3 67/9/3 94/10/3 54/10/3
f 25/11/4 5/12/4 6/13/4 28/14/4
f 13/6/3 16/5/3 6/8/3 5/7/3
f 1/15/3 2/16/3 14/17/3 11/18/3
f 11/18/3 14/17/3 15/19/3 12/20/3
f 12/20/3 15/19/3 16/5/3 13/6/3
f 2/16/3 92/9/3 54/10/3 14/17/3
f 3/8/2 48/8/2 47/5/2 8/5/2
f 28/14/4 51/14/4 60/21/4 27/21/4
f 98/17/2 96/18/2 9/20/2 7/19/2
f 7/19/2 9/20/2 10/6/2 8/5/2
f 19/22/1 1/23/1 11/24/1 40/25/1
f 40/25/1 11/24/1 12/26/1 43/27/1
f 43/27/1 12/26/1 13/2/1 46/1/1
f 9/28/1 41/29/1 44/30/1 10/31/1
f 41/29/1 42/32/1 45/33/1 44/30/1
f 42/32/1 43/27/1 46/1/1 45/33/1
f 96/34/1 38/35/1 41/29/1 9/28/1
f 38/35/1 39/36/1 42/32/1 41/29/1
f 39/36/1 40/25/1 43/27/1 42/32/1
f 17/37/5 95/37/5 97/37/5 22/37/5
f 17/37/1 18/38/1 39/36/1 38/35/1
f 18/38/1 19/22/1 40/25/1 39/36/1
f 27/21/4 60/21/4 59/39/4 26/39/4
f 6/13/4 50/13/4 51/14/4 28/14/4
f 15/19/3 55/19/3 49/5/3 16/5/3
f 26/39/4 59/39/4 48/40/4 3/40/4
f 16/5/3 49/5/3 50/8/3 6/8/3
f 14/17/3 54/17/3 55/19/3 15/19/3
f 17/37/1 38/35/1 96/35/1 95/37/1
f 62/41/6 63/41/6 72/42/6 56/42/6
f 93/43/6 30/43/6 29/32/6 73/32/6
f 4/44/4 23/45/4 26/39/4 3/40/4
f 23/45/4 24/46/4 27/21/4 26/39/4
f 24/46/4 25/11/4 28/14/4 27/21/4
f 8/5/2 47/5/2 53/19/2 7/19/2
f 7/19/2 53/19/2 52/17/2 98/17/2
f 22/47/2 31/42/2 56/42/2 72/42/2
f 1/12/5 19/11/5 20/48/5 2/13/5
f 19/11/5 18/46/5 21/49/5 20/48/5
f 18/46/5 17/45/5 22/50/5 21/49/5
f 10/31/1 44/30/1 23/51/1 4/52/1
f 44/30/1 45/33/1 24/53/1 23/51/1
f 45/33/1 46/1/1 25/4/1 24/53/1
f 47/5/2 37/5/2 32/19/2 53/19/2
f 67/9/3 89/16/3 85/17/3 94/10/3
f 48/8/2 36/8/2 37/5/2 47/5/2
f 87/41/5 63/41/5 61/32/5 86/43/5
f 59/39/4 70/39/4 36/40/4 48/40/4
f 55/19/3 88/19/3 35/5/3 49/5/3
f 52/34/6 53/28/6 57/54/6 56/42/6
f 56/42/6 57/54/6 64/32/6 62/41/6
f 62/41/2 64/32/2 73/32/2 29/32/2
f 54/17/3 94/17/3 88/19/3 55/19/3
f 50/13/4 34/13/4 33/14/4 51/14/4
f 51/14/4 33/14/4 71/21/4 60/21/4
f 22/47/5 72/42/5 63/41/5 21/49/5
f 98/34/5 52/34/5 56/42/5 31/42/5
f 33/14/4 66/14/4 80/21/4 71/21/4
f 94/17/3 85/17/3 84/19/3 88/19/3
f 32/28/6 37/31/6 69/55/6 68/54/6
f 68/54/6 69/55/6 75/33/6 73/32/6
f 73/32/6 75/33/6 74/56/6 93/43/6
f 36/8/2 77/8/2 76/5/2 37/5/2
f 69/55/5 78/55/5 82/33/5 75/33/5
f 71/21/4 80/21/4 79/39/4 70/39/4
f 60/21/4 71/21/4 70/39/4 59/39/4
f 57/54/5 68/54/5 73/32/5 64/32/5
f 49/5/3 35/5/3 34/8/3 50/8/3
f 53/28/5 32/28/5 68/54/5 57/54/5
f 81/56/6 66/4/6 65/3/6 83/2/6
f 76/31/6 77/52/6 79/51/6 78/55/6
f 78/55/6 79/51/6 80/53/6 82/33/6
f 82/33/6 80/53/6 66/4/6 81/56/6
f 34/13/4 65/13/4 66/14/4 33/14/4
f 37/31/5 76/31/5 78/55/5 69/55/5
f 88/19/3 84/19/3 83/5/3 35/5/3
f 70/39/4 79/39/4 77/40/4 36/40/4
f 35/5/3 83/5/3 65/8/3 34/8/3
f 75/33/5 82/33/5 81/56/5 74/56/5
f 81/56/2 90/56/2 93/56/2 74/56/2
f 62/41/2 29/32/2 61/32/2 63/41/2
f 20/48/5 21/49/5 63/41/5 87/41/5
f 2/16/5 20/48/5 87/41/5 92/9/5
f 87/41/5 86/41/5 67/9/5 92/9/5
f 86/41/5 58/41/5 89/9/5 67/9/5
f 30/43/6 86/43/6 61/32/6 29/32/6
f 30/43/2 91/43/2 58/41/2 86/41/2
f 93/43/2 90/43/2 91/43/2 30/43/2
f 83/2/6 84/19/6 90/56/6 81/56/6
f 91/43/6 90/43/6 84/19/6 85/17/6
f 91/43/6 85/17/6 89/16/6 58/41/6
f 95/37/2 96/35/2 98/35/2 97/37/2
f 22/47/6 97/37/6 98/35/6 31/42/6
