# Blender 4.5.1 LTS
# www.blender.org
mtllib Dungeon_RoadTJunction_2x2.mtl
o Dungeon_RoadTJunction_2x2
v 0.800000 -1.000000 2.500000
v 0.800000 0.000000 2.500000
v -0.700000 0.000000 -0.800000
v 0.000000 -1.000000 -0.800000
v -0.800000 -1.000000 2.500000
v -0.800000 0.000000 2.500000
v -0.700000 -1.000000 2.500000
v 0.000000 -1.000000 2.500000
v 0.700000 -1.000000 2.500000
v 0.700000 0.000000 2.500000
v 0.000000 0.000000 2.500000
v -0.700000 0.000000 2.500000
v 0.000000 0.000000 -0.800000
v 0.700000 0.000000 -0.800000
v 0.800000 0.200000 2.500000
v -0.700000 0.200000 2.500000
v -0.800000 0.200000 2.500000
v 0.000000 0.200000 -0.800000
v 0.700000 0.200000 2.500000
v 0.800000 -1.000000 0.800000
v 0.800000 0.000000 0.800000
v -0.800000 0.000000 0.800000
v -0.700000 0.000000 0.800000
v 0.000000 0.000000 0.800000
v 0.700000 0.000000 0.800000
v 0.700000 -1.000000 0.800000
v 0.000000 -1.000000 0.800000
v -0.700000 -1.000000 0.800000
v 0.800000 0.200000 0.800000
v -0.700000 0.200000 0.800000
v 0.700000 0.200000 0.800000
v 0.800000 -1.000000 -0.800000
v -0.800000 0.000000 -0.800000
v 0.000000 0.200000 -0.700000
v 0.700000 -1.000000 -0.800000
v -0.700000 -1.000000 -0.800000
v -0.700000 0.200000 -0.800000
v 0.700000 0.200000 -0.800000
v 0.800000 0.000000 -0.800000
v 0.800000 0.200000 -0.800000
v 2.500000 -1.000000 0.800000
v 2.500000 0.000000 0.800000
v -2.500000 -1.000000 0.800000
v -2.500000 0.000000 0.800000
v 2.500000 -1.000000 -0.800000
v 2.500000 0.000000 -0.800000
v -2.500000 -1.000000 -0.800000
v -2.500000 0.000000 -0.800000
v -2.500000 -1.000000 -0.700000
v -2.500000 -1.000000 0.000000
v -2.500000 -1.000000 0.700000
v -2.500000 0.000000 0.700000
v -2.500000 0.000000 0.000000
v -2.500000 0.000000 -0.700000
v 2.500000 -1.000000 0.700000
v 2.500000 -1.000000 0.000000
v 2.500000 -1.000000 -0.700000
v 2.500000 0.000000 -0.700000
v 2.500000 0.000000 0.000000
v 2.500000 0.000000 0.700000
v 2.500000 0.200000 0.800000
v -2.500000 0.200000 0.800000
v -2.500000 0.200000 -0.700000
v -2.500000 0.200000 -0.800000
v 2.500000 0.200000 -0.800000
v 2.500000 0.200000 0.700000
v -2.500000 0.200000 0.700000
v 2.500000 0.200000 -0.700000
v -0.800000 -1.000000 0.800000
v -0.800000 -1.000000 -0.800000
v -0.800000 0.000000 -0.700000
v -0.800000 0.000000 0.000000
v -0.800000 0.000000 0.700000
v -0.800000 -1.000000 0.700000
v -0.800000 -1.000000 0.000000
v -0.800000 -1.000000 -0.700000
v -0.800000 0.200000 0.800000
v -0.800000 0.200000 -0.800000
v -0.800000 0.200000 -0.700000
v -0.800000 0.200000 0.700000
v 0.800000 0.000000 -0.700000
v 0.800000 0.000000 0.000000
v 0.800000 0.000000 0.700000
v 0.800000 -1.000000 0.700000
v 0.800000 -1.000000 0.000000
v 0.800000 -1.000000 -0.700000
v 0.800000 0.200000 -0.700000
v 0.800000 0.200000 0.700000
v 0.000000 -1.000000 -0.700000
v 0.000000 -1.000000 0.000000
v 0.000000 -1.000000 0.700000
v -0.700000 -1.000000 -0.700000
v -0.700000 -1.000000 0.000000
v -0.700000 -1.000000 0.700000
v 0.700000 -1.000000 -0.700000
v 0.700000 -1.000000 0.000000
v 0.700000 -1.000000 0.700000
v 0.000000 0.000000 0.000000
v 0.000000 0.000000 -0.700000
v 0.000000 0.000000 0.700000
v -0.700000 0.000000 0.000000
v -0.700000 0.000000 0.700000
v 0.700000 0.000000 0.000000
v -0.700000 0.000000 -0.700000
v -0.700000 0.200000 -0.700000
v 0.700000 0.000000 -0.700000
v 0.700000 0.200000 -0.700000
v 0.700000 0.000000 0.700000
v 0.700000 0.200000 0.700000
v -0.700000 0.200000 0.700000
vn 1.0000 -0.0000 -0.0000
vn -0.0000 -0.0000 1.0000
vn -0.0000 -0.0000 -1.0000
vn -1.0000 -0.0000 -0.0000
vn -0.0000 1.0000 -0.0000
vn -0.0000 -1.0000 -0.0000
vt 0.375000 0.125000
vt 0.625000 0.125000
vt 0.625000 0.250000
vt 0.375000 0.250000
vt 0.375000 0.437500
vt 0.625000 0.437500
vt 0.625000 0.500000
vt 0.375000 0.500000
vt 0.625000 0.625000
vt 0.625000 0.312500
vt 0.812500 0.625000
vt 0.812500 0.500000
vt 0.375000 0.625000
vt 0.625000 0.687500
vt 0.375000 0.687500
vt 0.375000 0.312500
vt 0.625000 0.375000
vt 0.375000 0.375000
vt 0.687500 0.500000
vt 0.687500 0.625000
vt 0.875000 0.500000
vt 0.875000 0.625000
vt 0.250000 0.500000
vt 0.312500 0.500000
vt 0.312500 0.625000
vt 0.250000 0.625000
vt 0.187500 0.500000
vt 0.187500 0.625000
vt 0.125000 0.500000
vt 0.125000 0.625000
vt 0.750000 0.500000
vt 0.750000 0.625000
vt 0.625000 0.750000
vt 0.375000 0.750000
vt 0.375000 0.937500
vt 0.625000 0.937500
vt 0.625000 1.000000
vt 0.375000 1.000000
vt 0.312500 0.687500
vt 0.312500 0.750000
vt 0.687500 0.687500
vt 0.750000 0.687500
vt 0.750000 0.750000
vt 0.687500 0.750000
vt 0.812500 0.687500
vt 0.812500 0.750000
vt 0.125000 0.687500
vt 0.187500 0.687500
vt 0.187500 0.750000
vt 0.125000 0.750000
vt 0.250000 0.687500
vt 0.250000 0.750000
vt 0.625000 0.812500
vt 0.375000 0.812500
vt 0.625000 0.875000
vt 0.375000 0.875000
vt 0.875000 0.687500
vt 0.875000 0.750000
vt 0.625000 0.062500
vt 0.625000 0.000000
vt 0.375000 0.000000
vt 0.375000 0.062500
vt 0.250000 0.683594
vt 0.312500 0.683594
vt 0.187500 0.683594
vt 0.187500 0.628906
vt 0.250000 0.628906
vt 0.250000 0.656250
vt 0.187500 0.656250
vt 0.312500 0.628906
vt 0.312500 0.656250
vt 0.687500 0.683594
vt 0.750000 0.683594
vt 0.812500 0.683594
vt 0.750000 0.628906
vt 0.812500 0.628906
vt 0.812500 0.656250
vt 0.750000 0.656250
vt 0.687500 0.628906
vt 0.687500 0.656250
s 0
f 20/1/1 21/2/1 2/3/1 1/4/1
f 7/5/2 12/6/2 6/7/2 5/8/2
f 33/9/3 78/9/3 37/9/3 3/9/3
f 10/10/2 2/3/2 15/3/2 19/10/2
f 25/11/4 10/12/4 19/12/4 31/11/4
f 70/13/3 33/9/3 3/9/3 36/13/3
f 38/14/3 14/14/3 13/14/3 18/14/3
f 14/14/3 35/15/3 4/15/3 13/14/3
f 1/4/2 2/3/2 10/10/2 9/16/2
f 9/16/2 10/10/2 11/17/2 8/18/2
f 8/18/2 11/17/2 12/6/2 7/5/2
f 39/14/3 32/15/3 35/15/3 14/14/3
f 6/7/2 12/6/2 16/6/2 17/7/2
f 40/14/3 39/14/3 14/14/3 38/14/3
f 22/9/4 6/7/4 17/7/4 77/9/4
f 2/3/1 21/2/1 29/2/1 15/3/1
f 12/19/1 23/20/1 30/20/1 16/19/1
f 17/7/5 16/19/5 30/20/5 77/9/5
f 19/12/5 15/21/5 29/22/5 31/11/5
f 8/23/6 7/24/6 28/25/6 27/26/6
f 9/27/6 8/23/6 27/26/6 26/28/6
f 1/29/6 9/27/6 26/28/6 20/30/6
f 11/31/5 10/12/5 25/11/5 24/32/5
f 12/19/5 11/31/5 24/32/5 23/20/5
f 7/24/6 5/8/6 69/13/6 28/25/6
f 5/8/4 6/7/4 22/9/4 69/13/4
f 36/13/3 3/9/3 13/9/3 4/13/3
f 3/9/3 37/9/3 18/9/3 13/9/3
f 69/1/2 22/2/2 44/3/2 43/4/2
f 49/5/4 54/6/4 48/7/4 47/8/4
f 32/15/3 39/14/3 46/33/3 45/34/3
f 55/35/1 60/36/1 42/37/1 41/38/1
f 86/39/6 32/15/6 45/34/6 57/40/6
f 52/10/4 44/3/4 62/3/4 67/10/4
f 73/11/3 52/12/3 67/12/3 80/11/3
f 81/41/5 82/42/5 59/43/5 58/44/5
f 82/42/5 83/45/5 60/46/5 59/43/5
f 20/47/6 84/48/6 55/49/6 41/50/6
f 84/48/6 85/51/6 56/52/6 55/49/6
f 85/51/6 86/39/6 57/40/6 56/52/6
f 45/34/1 46/33/1 58/53/1 57/54/1
f 57/54/1 58/53/1 59/55/1 56/56/1
f 56/56/1 59/55/1 60/36/1 55/35/1
f 43/4/4 44/3/4 52/10/4 51/16/4
f 51/16/4 52/10/4 53/17/4 50/18/4
f 50/18/4 53/17/4 54/6/4 49/5/4
f 88/45/5 29/57/5 61/58/5 66/46/5
f 40/14/5 87/41/5 68/44/5 65/33/5
f 81/41/2 58/44/2 68/44/2 87/41/2
f 21/59/2 42/60/2 61/60/2 29/59/2
f 42/37/1 60/36/1 66/36/1 61/37/1
f 48/7/4 54/6/4 63/6/4 64/7/4
f 58/53/1 46/33/1 65/33/1 68/53/1
f 33/9/3 48/7/3 64/7/3 78/9/3
f 44/3/2 22/2/2 77/2/2 62/3/2
f 54/19/2 71/20/2 79/20/2 63/19/2
f 64/7/5 63/19/5 79/20/5 78/9/5
f 67/12/5 62/21/5 77/22/5 80/11/5
f 50/23/6 49/24/6 76/25/6 75/26/6
f 51/27/6 50/23/6 75/26/6 74/28/6
f 43/29/6 51/27/6 74/28/6 69/30/6
f 53/31/5 52/12/5 73/11/5 72/32/5
f 54/19/5 53/31/5 72/32/5 71/20/5
f 49/24/6 47/8/6 70/13/6 76/25/6
f 47/8/3 48/7/3 33/9/3 70/13/3
f 41/61/2 42/60/2 21/59/2 20/62/2
f 60/46/3 83/45/3 88/45/3 66/46/3
f 46/33/3 39/14/3 40/14/3 65/33/3
f 96/63/6 95/64/6 86/39/6 85/51/6
f 97/65/6 96/63/6 85/51/6 84/48/6
f 94/66/6 93/67/6 90/68/6 91/69/6
f 93/67/6 92/70/6 89/71/6 90/68/6
f 75/26/6 76/25/6 92/70/6 93/67/6
f 74/28/6 75/26/6 93/67/6 94/66/6
f 91/69/6 90/68/6 96/63/6 97/65/6
f 90/68/6 89/71/6 95/64/6 96/63/6
f 36/39/6 92/70/6 76/25/6 70/15/6
f 4/51/6 89/71/6 92/70/6 36/39/6
f 35/48/6 95/64/6 89/71/6 4/51/6
f 32/47/6 86/39/6 95/64/6 35/48/6
f 28/25/6 69/13/6 74/28/6 94/66/6
f 27/26/6 28/25/6 94/66/6 91/69/6
f 26/28/6 27/26/6 91/69/6 97/65/6
f 20/30/6 26/28/6 97/65/6 84/48/6
f 106/72/5 103/73/5 82/42/5 81/41/5
f 103/73/5 108/74/5 83/45/5 82/42/5
f 101/75/5 102/76/5 100/77/5 98/78/5
f 104/79/5 101/75/5 98/78/5 99/80/5
f 71/20/5 72/32/5 101/75/5 104/79/5
f 72/32/5 73/11/5 102/76/5 101/75/5
f 98/78/5 100/77/5 108/74/5 103/73/5
f 99/80/5 98/78/5 103/73/5 106/72/5
f 79/20/2 71/20/2 104/20/2 105/20/2
f 37/41/5 78/14/5 79/14/5 105/41/5
f 105/20/5 34/20/5 18/20/5 37/20/5
f 34/41/5 107/41/5 38/41/5 18/41/5
f 106/41/2 107/41/2 34/41/2 99/41/2
f 81/41/2 87/41/2 107/41/2 106/41/2
f 105/20/2 104/20/2 99/20/2 34/20/2
f 40/14/5 38/45/5 107/45/5 87/41/5
f 25/11/5 108/74/5 100/77/5 24/32/5
f 24/32/5 100/77/5 102/76/5 23/20/5
f 88/45/3 83/45/3 108/45/3 109/45/3
f 25/11/4 31/11/4 109/11/4 108/11/4
f 29/22/5 88/45/5 109/45/5 31/11/5
f 30/20/1 23/20/1 102/20/1 110/20/1
f 73/11/3 80/11/3 110/11/3 102/11/3
f 30/20/5 110/11/5 80/11/5 77/9/5
