# Blender 4.5.1 LTS
# www.blender.org
mtllib Dungeon_RoadEndCap_2x2.mtl
o Dungeon_RoadEndCap_2x2
v -0.800000 -1.000000 2.500000
v -0.800000 0.000000 2.500000
v -0.800000 -1.000000 -0.351861
v -0.800000 0.000000 -0.351861
v 0.800000 -1.000000 2.500000
v 0.800000 0.000000 2.500000
v 0.800000 -1.000000 -0.351861
v 0.800000 0.000000 -0.351861
v 0.700000 -1.000000 -0.351861
v 0.000000 -1.000000 -0.286829
v -0.700000 -1.000000 -0.351861
v -0.700000 0.000000 -0.351861
v 0.000000 0.000000 -0.286829
v 0.700000 0.000000 -0.351861
v -0.700000 -1.000000 2.500000
v 0.000000 -1.000000 2.500000
v 0.700000 -1.000000 2.500000
v 0.700000 0.000000 2.500000
v 0.000000 0.000000 2.500000
v -0.700000 0.000000 2.500000
v -0.800000 0.200000 2.500000
v -0.800000 0.200000 -0.280787
v 0.700000 0.200000 -0.400830
v 0.800000 0.200000 -0.400830
v 0.800000 0.200000 2.500000
v -0.700000 0.200000 2.500000
v -0.700000 0.200000 -0.280787
v 0.700000 0.200000 2.500000
v 0.632455 -1.000000 -0.351861
v 0.492455 -1.000000 -0.161895
v 0.280000 -1.000000 -0.106624
v 0.140000 -1.000000 -0.161895
v 0.140000 0.000000 -0.161895
v 0.280000 0.000000 -0.106624
v 0.492455 0.000000 -0.161895
v 0.632455 0.000000 -0.351861
v 0.140000 -1.000000 2.500000
v 0.280000 -1.000000 2.500000
v 0.420000 -1.000000 2.500000
v 0.560000 -1.000000 2.500000
v 0.560000 0.000000 2.500000
v 0.420000 0.000000 2.500000
v 0.280000 0.000000 2.500000
v 0.140000 0.000000 2.500000
v -0.140000 -1.000000 -0.161895
v -0.213697 -1.000000 -0.231377
v -0.420000 -1.000000 -0.161895
v -0.560000 -1.000000 -0.351861
v -0.560000 0.000000 -0.351861
v -0.420000 0.000000 -0.161895
v -0.213698 0.000000 -0.231377
v -0.140000 0.000000 -0.161895
v -0.560000 -1.000000 2.500000
v -0.420000 -1.000000 2.500000
v -0.280000 -1.000000 2.500000
v -0.140000 -1.000000 2.500000
v -0.140000 0.000000 2.500000
v -0.280000 0.000000 2.500000
v -0.420000 0.000000 2.500000
v -0.560000 0.000000 2.500000
vn -1.0000 -0.0000 -0.0000
vn -0.0000 -0.0000 -1.0000
vn 1.0000 -0.0000 -0.0000
vn -0.0000 -0.0000 1.0000
vn -0.0000 -1.0000 -0.0000
vn -0.0000 0.3349 -0.9423
vn -0.0000 1.0000 -0.0000
vn -0.6658 -0.0000 -0.7461
vn -0.0000 -0.2378 -0.9713
vn 0.6658 -0.0000 -0.7461
vn 0.3672 -0.0000 -0.9301
vn -0.2518 -0.0000 -0.9678
vn -0.8050 -0.0000 -0.5933
vn 0.8050 -0.0000 -0.5933
vn -0.3192 -0.0000 -0.9477
vn 0.6860 -0.0000 -0.7276
vt 0.375000 0.000000
vt 0.625000 0.000000
vt 0.625000 0.250000
vt 0.375000 0.250000
vt 0.375000 0.437500
vt 0.625000 0.437500
vt 0.625000 0.500000
vt 0.375000 0.500000
vt 0.625000 0.750000
vt 0.375000 0.750000
vt 0.375000 0.937500
vt 0.625000 0.937500
vt 0.625000 1.000000
vt 0.375000 1.000000
vt 0.312500 0.500000
vt 0.312500 0.750000
vt 0.625000 0.312500
vt 0.812500 0.750000
vt 0.812500 0.500000
vt 0.737500 0.500000
vt 0.750000 0.500000
vt 0.750000 0.750000
vt 0.737500 0.750000
vt 0.800000 0.500000
vt 0.800000 0.750000
vt 0.125000 0.500000
vt 0.187500 0.500000
vt 0.187500 0.750000
vt 0.125000 0.750000
vt 0.237500 0.500000
vt 0.250000 0.500000
vt 0.250000 0.750000
vt 0.237500 0.750000
vt 0.300000 0.500000
vt 0.300000 0.750000
vt 0.625000 0.812500
vt 0.375000 0.812500
vt 0.375000 0.862500
vt 0.625000 0.862500
vt 0.625000 0.875000
vt 0.375000 0.875000
vt 0.375000 0.925000
vt 0.625000 0.925000
vt 0.375000 0.312500
vt 0.375000 0.362500
vt 0.625000 0.362500
vt 0.625000 0.375000
vt 0.375000 0.375000
vt 0.375000 0.425000
vt 0.625000 0.425000
vt 0.875000 0.500000
vt 0.875000 0.750000
vt 0.687500 0.500000
vt 0.687500 0.750000
vt 0.625000 0.387500
vt 0.375000 0.387500
vt 0.625000 0.400000
vt 0.375000 0.400000
vt 0.625000 0.412500
vt 0.375000 0.412500
vt 0.625000 0.825000
vt 0.375000 0.825000
vt 0.625000 0.837500
vt 0.375000 0.837500
vt 0.625000 0.850000
vt 0.375000 0.850000
vt 0.262500 0.500000
vt 0.262500 0.750000
vt 0.275000 0.500000
vt 0.275000 0.750000
vt 0.287500 0.500000
vt 0.287500 0.750000
vt 0.700000 0.500000
vt 0.700000 0.750000
vt 0.712500 0.500000
vt 0.712500 0.750000
vt 0.725000 0.500000
vt 0.725000 0.750000
vt 0.625000 0.325000
vt 0.375000 0.325000
vt 0.625000 0.337500
vt 0.375000 0.337500
vt 0.625000 0.350000
vt 0.375000 0.350000
vt 0.625000 0.887500
vt 0.375000 0.887500
vt 0.625000 0.900000
vt 0.375000 0.900000
vt 0.625000 0.912500
vt 0.375000 0.912500
vt 0.200000 0.500000
vt 0.200000 0.750000
vt 0.212500 0.500000
vt 0.212500 0.750000
vt 0.225000 0.500000
vt 0.225000 0.750000
vt 0.762500 0.500000
vt 0.762500 0.750000
vt 0.775000 0.500000
vt 0.775000 0.750000
vt 0.787500 0.500000
vt 0.787500 0.750000
s 0
f 1/1/1 2/2/1 4/3/1 3/4/1
f 9/5/2 14/6/2 8/7/2 7/8/2
f 7/8/3 8/7/3 6/9/3 5/10/3
f 15/11/4 20/12/4 2/13/4 1/14/4
f 9/15/5 7/8/5 5/10/5 17/16/5
f 12/17/6 4/3/6 22/3/6 27/17/6
f 20/18/3 12/19/3 27/19/3 26/18/3
f 33/20/7 13/21/7 19/22/7 44/23/7
f 49/24/7 12/19/7 20/18/7 60/25/7
f 3/26/5 11/27/5 15/28/5 1/29/5
f 45/30/5 10/31/5 16/32/5 56/33/5
f 29/34/5 9/15/5 17/16/5 40/35/5
f 5/10/4 6/9/4 18/36/4 17/37/4
f 37/38/4 44/39/4 19/40/4 16/41/4
f 53/42/4 60/43/4 20/12/4 15/11/4
f 3/4/2 4/3/2 12/17/2 11/44/2
f 45/45/8 52/46/8 13/47/8 10/48/8
f 29/49/2 36/50/2 14/6/2 9/5/2
f 27/19/7 22/51/7 21/52/7 26/18/7
f 24/7/7 23/53/7 28/54/7 25/9/7
f 14/53/1 18/54/1 28/54/1 23/53/1
f 4/3/1 2/2/1 21/2/1 22/3/1
f 2/13/4 20/12/4 26/12/4 21/13/4
f 8/7/9 14/6/9 23/6/9 24/7/9
f 18/36/4 6/9/4 25/9/4 28/36/4
f 6/9/3 8/7/3 24/7/3 25/9/3
f 10/48/10 13/47/10 33/55/10 32/56/10
f 32/56/11 33/55/11 34/57/11 31/58/11
f 31/58/12 34/57/12 35/59/12 30/60/12
f 30/60/13 35/59/13 36/50/13 29/49/13
f 17/37/4 18/36/4 41/61/4 40/62/4
f 40/62/4 41/61/4 42/63/4 39/64/4
f 39/64/4 42/63/4 43/65/4 38/66/4
f 38/66/4 43/65/4 44/39/4 37/38/4
f 10/31/5 32/67/5 37/68/5 16/32/5
f 32/67/5 31/69/5 38/70/5 37/68/5
f 31/69/5 30/71/5 39/72/5 38/70/5
f 30/71/5 29/34/5 40/35/5 39/72/5
f 14/53/7 36/73/7 41/74/7 18/54/7
f 36/73/7 35/75/7 42/76/7 41/74/7
f 35/75/7 34/77/7 43/78/7 42/76/7
f 34/77/7 33/20/7 44/23/7 43/78/7
f 11/44/2 12/17/2 49/79/2 48/80/2
f 48/80/14 49/79/14 50/81/14 47/82/14
f 47/82/15 50/81/15 51/83/15 46/84/15
f 46/84/16 51/83/16 52/46/16 45/45/16
f 16/41/4 19/40/4 57/85/4 56/86/4
f 56/86/4 57/85/4 58/87/4 55/88/4
f 55/88/4 58/87/4 59/89/4 54/90/4
f 54/90/4 59/89/4 60/43/4 53/42/4
f 11/27/5 48/91/5 53/92/5 15/28/5
f 48/91/5 47/93/5 54/94/5 53/92/5
f 47/93/5 46/95/5 55/96/5 54/94/5
f 46/95/5 45/30/5 56/33/5 55/96/5
f 13/21/7 52/97/7 57/98/7 19/22/7
f 52/97/7 51/99/7 58/100/7 57/98/7
f 51/99/7 50/101/7 59/102/7 58/100/7
f 50/101/7 49/24/7 60/25/7 59/102/7
