# Blender 4.5.1 LTS
# www.blender.org
mtllib Dungeon_Blank_10x10.mtl
o Dungeon_Blank_10x10
v -10.000000 -2.000000 -0.000000
v -10.000000 -2.000000 10.000000
v -10.000000 10.026534 10.000000
v -10.000000 10.026534 -0.000000
v 0.000000 10.026534 -0.000000
v 0.000000 -2.000000 -0.000000
v 0.000000 -2.000000 10.000000
v 0.000000 10.026534 10.000000
vn -0.0000 -1.0000 -0.0000
vn -1.0000 -0.0000 -0.0000
vn -0.0000 -0.0000 -1.0000
vn -0.0000 1.0000 -0.0000
vn 1.0000 -0.0000 -0.0000
vn -0.0000 -0.0000 1.0000
vt 0.023713 0.943394
vt 0.093475 0.943394
vt 0.093475 0.935512
vt 0.023713 0.935512
vt 0.041153 0.915754
vt 0.041153 0.963152
vt 0.076034 0.963152
vt 0.076034 0.915754
vt 0.023713 0.963152
vt 0.093475 0.963152
vt 0.093475 0.915754
vt 0.023713 0.915754
s 0
usemtl M_General
f 1/1/1 6/2/1 7/3/1 2/4/1
f 2/5/2 3/6/2 4/7/2 1/8/2
f 4/9/3 5/10/3 6/11/3 1/12/3
f 4/1/4 3/4/4 8/3/4 5/2/4
f 6/8/5 5/7/5 8/6/5 7/5/5
f 2/12/6 7/11/6 8/10/6 3/9/6
